G04*
G04 #@! TF.GenerationSoftware,Altium Limited,Altium Designer,24.1.2 (44)*
G04*
G04 Layer_Physical_Order=2*
G04 Layer_Color=8978557*
%FSLAX44Y44*%
%MOMM*%
G71*
G04*
G04 #@! TF.SameCoordinates,C4B2C0E0-4E9B-487C-9046-04FF2B3DFFC7*
G04*
G04*
G04 #@! TF.FilePolarity,Positive*
G04*
G01*
G75*
%ADD18C,0.2540*%
%ADD33C,0.8500*%
%ADD35C,0.4000*%
%ADD36R,2.2000X2.2000*%
%ADD37C,1.7000*%
%ADD38C,2.0000*%
%ADD39C,1.5000*%
%ADD40R,1.5000X1.5000*%
%ADD41C,2.4000*%
%ADD42C,8.0000*%
%ADD43R,1.7000X1.7000*%
%ADD44R,2.2000X2.2000*%
%ADD45C,2.2000*%
%ADD46C,1.8000*%
%ADD47R,1.8000X1.8000*%
%ADD48C,2.1996*%
%ADD49C,1.0000*%
%ADD50R,1.0160X2.2606*%
%ADD51R,2.2606X1.0160*%
%ADD52R,1.3970X0.5588*%
%ADD53R,1.2500X1.0000*%
%ADD54R,1.0000X1.2500*%
G04:AMPARAMS|DCode=55|XSize=2.33mm|YSize=1.55mm|CornerRadius=0.1938mm|HoleSize=0mm|Usage=FLASHONLY|Rotation=90.000|XOffset=0mm|YOffset=0mm|HoleType=Round|Shape=RoundedRectangle|*
%AMROUNDEDRECTD55*
21,1,2.3300,1.1625,0,0,90.0*
21,1,1.9425,1.5500,0,0,90.0*
1,1,0.3875,0.5813,0.9712*
1,1,0.3875,0.5813,-0.9712*
1,1,0.3875,-0.5813,-0.9712*
1,1,0.3875,-0.5813,0.9712*
%
%ADD55ROUNDEDRECTD55*%
G04:AMPARAMS|DCode=56|XSize=1.97mm|YSize=0.6mm|CornerRadius=0.075mm|HoleSize=0mm|Usage=FLASHONLY|Rotation=180.000|XOffset=0mm|YOffset=0mm|HoleType=Round|Shape=RoundedRectangle|*
%AMROUNDEDRECTD56*
21,1,1.9700,0.4500,0,0,180.0*
21,1,1.8200,0.6000,0,0,180.0*
1,1,0.1500,-0.9100,0.2250*
1,1,0.1500,0.9100,0.2250*
1,1,0.1500,0.9100,-0.2250*
1,1,0.1500,-0.9100,-0.2250*
%
%ADD56ROUNDEDRECTD56*%
%ADD57C,0.8000*%
%ADD58C,0.7620*%
G36*
X1130000Y627500D02*
X1260000D01*
Y167500D01*
X1130000D01*
Y27500D01*
X170000D01*
Y167500D01*
X35000D01*
Y625000D01*
X37500Y627500D01*
X170000D01*
Y767500D01*
X1130000D01*
Y627500D01*
D02*
G37*
%LPC*%
G36*
X285157Y736078D02*
X285157Y736078D01*
X252250D01*
X252250Y736078D01*
X250689Y735768D01*
X249366Y734884D01*
X239667Y725184D01*
X239422Y725250D01*
X237578D01*
X235798Y724773D01*
X234202Y723851D01*
X232899Y722548D01*
X232772Y722328D01*
X195238D01*
X193677Y722018D01*
X192354Y721134D01*
X192354Y721134D01*
X190866Y719646D01*
X189982Y718323D01*
X189672Y716762D01*
X189672Y716762D01*
Y709250D01*
X185500D01*
Y695250D01*
X202000D01*
Y709250D01*
X197829D01*
Y714172D01*
X232772D01*
X232899Y713952D01*
X234202Y712649D01*
X234672Y712377D01*
Y709250D01*
X230500D01*
Y695250D01*
X247000D01*
Y709250D01*
X242828D01*
Y712679D01*
X244101Y713952D01*
X245023Y715548D01*
X245500Y717328D01*
Y719172D01*
X245434Y719417D01*
X253939Y727922D01*
X283422D01*
Y725077D01*
X281688D01*
X280151Y724771D01*
X278849Y723901D01*
X277978Y722599D01*
X277673Y721062D01*
Y701637D01*
X277978Y700101D01*
X278849Y698799D01*
X280151Y697928D01*
X281688Y697623D01*
X293312D01*
X294849Y697928D01*
X296151Y698799D01*
X297022Y700101D01*
X297327Y701637D01*
Y721062D01*
X297022Y722599D01*
X296151Y723901D01*
X294849Y724771D01*
X293312Y725077D01*
X291578D01*
Y729657D01*
X291268Y731218D01*
X290384Y732541D01*
X290384Y732541D01*
X288041Y734884D01*
X286718Y735768D01*
X286459Y735819D01*
X285157Y736078D01*
D02*
G37*
G36*
X722991Y745490D02*
X722610D01*
Y734220D01*
X733880D01*
Y734601D01*
X733026Y737790D01*
X731375Y740650D01*
X729040Y742984D01*
X726180Y744635D01*
X722991Y745490D01*
D02*
G37*
G36*
X720070D02*
X719689D01*
X716500Y744635D01*
X713640Y742984D01*
X711306Y740650D01*
X709655Y737790D01*
X708800Y734601D01*
Y734220D01*
X720070D01*
Y745490D01*
D02*
G37*
G36*
X733880Y731680D02*
X721340D01*
X708800D01*
Y731299D01*
X709655Y728110D01*
X711306Y725250D01*
X713640Y722915D01*
X716500Y721265D01*
X718876Y720628D01*
Y719313D01*
X716708Y718732D01*
X713972Y717152D01*
X711738Y714918D01*
X710158Y712182D01*
X709340Y709130D01*
Y705970D01*
X710158Y702918D01*
X711738Y700182D01*
X713972Y697948D01*
X716708Y696368D01*
X717262Y696219D01*
Y692228D01*
X703843D01*
X702282Y691918D01*
X700959Y691034D01*
X700959Y691034D01*
X698616Y688691D01*
X697732Y687368D01*
X697422Y685807D01*
X697422Y685807D01*
Y336189D01*
X681311Y320078D01*
X666080D01*
Y329303D01*
X656087D01*
X655344Y330573D01*
X655578Y331750D01*
Y333017D01*
X658500D01*
Y337188D01*
X669407D01*
X669407Y337188D01*
X670968Y337499D01*
X672291Y338383D01*
X674634Y340726D01*
X674634Y340726D01*
X675518Y342049D01*
X675828Y343610D01*
Y360803D01*
X675518Y362364D01*
X674634Y363687D01*
X674634Y363687D01*
X669437Y368884D01*
X668113Y369768D01*
X666553Y370078D01*
X666553Y370078D01*
X664080D01*
Y379303D01*
X649920D01*
Y352697D01*
X664080D01*
Y360909D01*
X665350Y361435D01*
X667672Y359114D01*
Y345345D01*
X658500D01*
Y349517D01*
X644500D01*
Y333017D01*
X645340D01*
X645826Y331843D01*
X637253Y323271D01*
X636080Y323757D01*
Y329303D01*
X621920D01*
Y324670D01*
X591573D01*
X591470Y324824D01*
X590561Y325432D01*
X589488Y325645D01*
X571288D01*
X570215Y325432D01*
X569305Y324824D01*
X568697Y323914D01*
X568484Y322841D01*
Y318342D01*
X568697Y317269D01*
X569305Y316359D01*
X570215Y315751D01*
X571288Y315538D01*
X589488D01*
X590561Y315751D01*
X591470Y316359D01*
X591573Y316513D01*
X621920D01*
Y302697D01*
X636080D01*
Y311987D01*
X637311Y312232D01*
X638634Y313116D01*
X650747Y325229D01*
X651920Y324743D01*
Y302697D01*
X666080D01*
Y311922D01*
X683000D01*
X683000Y311922D01*
X684561Y312232D01*
X685884Y313116D01*
X704384Y331616D01*
X704384Y331616D01*
X705268Y332939D01*
X705578Y334500D01*
X705578Y334500D01*
Y684072D01*
X717262D01*
Y682330D01*
X707447D01*
Y668170D01*
X734053D01*
Y682330D01*
X725418D01*
Y687750D01*
X725379Y687950D01*
X725418Y688150D01*
Y696219D01*
X725972Y696368D01*
X728708Y697948D01*
X730943Y700182D01*
X732522Y702918D01*
X732865Y704197D01*
X880500D01*
Y695275D01*
X906500D01*
Y721275D01*
X880500D01*
Y712353D01*
X732423D01*
X730943Y714918D01*
X728708Y717152D01*
X725972Y718732D01*
X723804Y719313D01*
Y720628D01*
X726180Y721265D01*
X729040Y722915D01*
X731375Y725250D01*
X733026Y728110D01*
X733880Y731299D01*
Y731680D01*
D02*
G37*
G36*
X202540Y689790D02*
X195020D01*
Y683520D01*
X202540D01*
Y689790D01*
D02*
G37*
G36*
X192480D02*
X184960D01*
Y683520D01*
X192480D01*
Y689790D01*
D02*
G37*
G36*
X247540Y689790D02*
X240020D01*
Y683520D01*
X247540D01*
Y689790D01*
D02*
G37*
G36*
X237480D02*
X229960D01*
Y683520D01*
X237480D01*
Y689790D01*
D02*
G37*
G36*
X202540Y680980D02*
X195020D01*
Y674710D01*
X202540D01*
Y680980D01*
D02*
G37*
G36*
X192480D02*
X184960D01*
Y674710D01*
X192480D01*
Y680980D01*
D02*
G37*
G36*
X247540Y680980D02*
X240020D01*
Y674710D01*
X247540D01*
Y680980D01*
D02*
G37*
G36*
X237480D02*
X229960D01*
Y674710D01*
X237480D01*
Y680980D01*
D02*
G37*
G36*
X293312Y682928D02*
X288770D01*
Y669920D01*
X297878D01*
Y678363D01*
X297530Y680109D01*
X296541Y681591D01*
X295060Y682580D01*
X293312Y682928D01*
D02*
G37*
G36*
X286230D02*
X281688D01*
X279940Y682580D01*
X278459Y681591D01*
X277470Y680109D01*
X277122Y678363D01*
Y669920D01*
X286230D01*
Y682928D01*
D02*
G37*
G36*
X297878Y667380D02*
X288770D01*
Y654372D01*
X293312D01*
X295060Y654720D01*
X296541Y655709D01*
X297530Y657190D01*
X297878Y658938D01*
Y667380D01*
D02*
G37*
G36*
X286230D02*
X277122D01*
Y658938D01*
X277470Y657190D01*
X278459Y655709D01*
X279940Y654720D01*
X281688Y654372D01*
X286230D01*
Y667380D01*
D02*
G37*
G36*
X817382Y654250D02*
X814618D01*
X811947Y653534D01*
X809553Y652152D01*
X807598Y650197D01*
X806216Y647803D01*
X805500Y645132D01*
Y642368D01*
X806216Y639697D01*
X807598Y637303D01*
X809553Y635348D01*
X811947Y633966D01*
X814618Y633250D01*
X817382D01*
X820053Y633966D01*
X822447Y635348D01*
X824402Y637303D01*
X825784Y639697D01*
X826500Y642368D01*
Y645132D01*
X825784Y647803D01*
X824402Y650197D01*
X822447Y652152D01*
X820053Y653534D01*
X817382Y654250D01*
D02*
G37*
G36*
X792382D02*
X789618D01*
X786947Y653534D01*
X784553Y652152D01*
X782598Y650197D01*
X781216Y647803D01*
X780500Y645132D01*
Y642368D01*
X781216Y639697D01*
X782598Y637303D01*
X784553Y635348D01*
X786947Y633966D01*
X789618Y633250D01*
X792382D01*
X795053Y633966D01*
X797447Y635348D01*
X799402Y637303D01*
X800784Y639697D01*
X801500Y642368D01*
Y645132D01*
X800784Y647803D01*
X799402Y650197D01*
X797447Y652152D01*
X795053Y653534D01*
X792382Y654250D01*
D02*
G37*
G36*
X767382D02*
X764618D01*
X761947Y653534D01*
X759553Y652152D01*
X757598Y650197D01*
X756216Y647803D01*
X755500Y645132D01*
Y642368D01*
X756216Y639697D01*
X757598Y637303D01*
X759553Y635348D01*
X761947Y633966D01*
X764618Y633250D01*
X767382D01*
X770053Y633966D01*
X772447Y635348D01*
X774402Y637303D01*
X775784Y639697D01*
X776500Y642368D01*
Y645132D01*
X775784Y647803D01*
X774402Y650197D01*
X772447Y652152D01*
X770053Y653534D01*
X767382Y654250D01*
D02*
G37*
G36*
X734053Y652330D02*
X707447D01*
Y638170D01*
X716672D01*
Y633478D01*
X716452Y633351D01*
X715149Y632048D01*
X714227Y630452D01*
X713750Y628671D01*
Y626828D01*
X714227Y625048D01*
X715149Y623452D01*
X716452Y622149D01*
X718048Y621227D01*
X719828Y620750D01*
X721672D01*
X723452Y621227D01*
X725048Y622149D01*
X726351Y623452D01*
X727273Y625048D01*
X727750Y626828D01*
Y628671D01*
X727273Y630452D01*
X726351Y632048D01*
X725048Y633351D01*
X724828Y633478D01*
Y638170D01*
X734053D01*
Y652330D01*
D02*
G37*
G36*
X977011Y639498D02*
X973589D01*
X970283Y638612D01*
X967319Y636901D01*
X964899Y634481D01*
X963188Y631517D01*
X962302Y628211D01*
Y624789D01*
X963188Y621483D01*
X964899Y618519D01*
X967319Y616099D01*
X970283Y614388D01*
X973589Y613502D01*
X977011D01*
X980317Y614388D01*
X983281Y616099D01*
X985701Y618519D01*
X987412Y621483D01*
X988298Y624789D01*
Y628211D01*
X987412Y631517D01*
X985701Y634481D01*
X983281Y636901D01*
X980317Y638612D01*
X977011Y639498D01*
D02*
G37*
G36*
X875411D02*
X871989D01*
X868683Y638612D01*
X865719Y636901D01*
X863299Y634481D01*
X861588Y631517D01*
X860702Y628211D01*
Y624789D01*
X861588Y621483D01*
X863299Y618519D01*
X865719Y616099D01*
X868683Y614388D01*
X871989Y613502D01*
X875411D01*
X878717Y614388D01*
X881681Y616099D01*
X884101Y618519D01*
X885812Y621483D01*
X886698Y624789D01*
Y628211D01*
X885812Y631517D01*
X884101Y634481D01*
X881681Y636901D01*
X878717Y638612D01*
X875411Y639498D01*
D02*
G37*
G36*
X817382Y621250D02*
X814618D01*
X811947Y620534D01*
X809553Y619152D01*
X807598Y617197D01*
X806216Y614803D01*
X805500Y612132D01*
Y609368D01*
X806216Y606697D01*
X807598Y604303D01*
X809553Y602348D01*
X811947Y600966D01*
X814618Y600250D01*
X817382D01*
X820053Y600966D01*
X822447Y602348D01*
X824402Y604303D01*
X825784Y606697D01*
X826500Y609368D01*
Y612132D01*
X825784Y614803D01*
X824402Y617197D01*
X822447Y619152D01*
X820053Y620534D01*
X817382Y621250D01*
D02*
G37*
G36*
X792382D02*
X789618D01*
X786947Y620534D01*
X784553Y619152D01*
X782598Y617197D01*
X781216Y614803D01*
X780500Y612132D01*
Y609368D01*
X781216Y606697D01*
X782598Y604303D01*
X784553Y602348D01*
X786947Y600966D01*
X789618Y600250D01*
X792382D01*
X795053Y600966D01*
X797447Y602348D01*
X799402Y604303D01*
X800784Y606697D01*
X801500Y609368D01*
Y612132D01*
X800784Y614803D01*
X799402Y617197D01*
X797447Y619152D01*
X795053Y620534D01*
X792382Y621250D01*
D02*
G37*
G36*
X767382D02*
X764618D01*
X761947Y620534D01*
X759553Y619152D01*
X757598Y617197D01*
X756216Y614803D01*
X755500Y612132D01*
Y609368D01*
X756216Y606697D01*
X757598Y604303D01*
X759553Y602348D01*
X761947Y600966D01*
X764618Y600250D01*
X767382D01*
X770053Y600966D01*
X772447Y602348D01*
X774402Y604303D01*
X775784Y606697D01*
X776500Y609368D01*
Y612132D01*
X775784Y614803D01*
X774402Y617197D01*
X772447Y619152D01*
X770053Y620534D01*
X767382Y621250D01*
D02*
G37*
G36*
X282414Y610040D02*
X281770D01*
Y596770D01*
X295040D01*
Y597414D01*
X294049Y601112D01*
X292135Y604428D01*
X289428Y607135D01*
X286112Y609049D01*
X282414Y610040D01*
D02*
G37*
G36*
X231414D02*
X230770D01*
Y596770D01*
X244040D01*
Y597414D01*
X243049Y601112D01*
X241135Y604428D01*
X238428Y607135D01*
X235112Y609049D01*
X231414Y610040D01*
D02*
G37*
G36*
X228230D02*
X227586D01*
X223888Y609049D01*
X220572Y607135D01*
X217865Y604428D01*
X215951Y601112D01*
X214960Y597414D01*
Y596770D01*
X228230D01*
Y610040D01*
D02*
G37*
G36*
X279230D02*
X278586D01*
X274888Y609049D01*
X271572Y607135D01*
X268865Y604428D01*
X266951Y601112D01*
X265960Y597414D01*
Y596770D01*
X279230D01*
Y610040D01*
D02*
G37*
G36*
X295040Y594230D02*
X281770D01*
Y580960D01*
X282414D01*
X286112Y581951D01*
X289428Y583865D01*
X292135Y586572D01*
X294049Y589888D01*
X295040Y593586D01*
Y594230D01*
D02*
G37*
G36*
X279230D02*
X265960D01*
Y593586D01*
X266951Y589888D01*
X268865Y586572D01*
X271572Y583865D01*
X274888Y581951D01*
X278586Y580960D01*
X279230D01*
Y594230D01*
D02*
G37*
G36*
X244040D02*
X230770D01*
Y580960D01*
X231414D01*
X235112Y581951D01*
X238428Y583865D01*
X241135Y586572D01*
X243049Y589888D01*
X244040Y593586D01*
Y594230D01*
D02*
G37*
G36*
X228230D02*
X214960D01*
Y593586D01*
X215951Y589888D01*
X217865Y586572D01*
X220572Y583865D01*
X223888Y581951D01*
X227586Y580960D01*
X228230D01*
Y594230D01*
D02*
G37*
G36*
X282414Y559040D02*
X281770D01*
Y545770D01*
X295040D01*
Y546414D01*
X294049Y550112D01*
X292135Y553428D01*
X289428Y556135D01*
X286112Y558049D01*
X282414Y559040D01*
D02*
G37*
G36*
X231414D02*
X230770D01*
Y545770D01*
X244040D01*
Y546414D01*
X243049Y550112D01*
X241135Y553428D01*
X238428Y556135D01*
X235112Y558049D01*
X231414Y559040D01*
D02*
G37*
G36*
X228230D02*
X227586D01*
X223888Y558049D01*
X220572Y556135D01*
X217865Y553428D01*
X215951Y550112D01*
X214960Y546414D01*
Y545770D01*
X228230D01*
Y559040D01*
D02*
G37*
G36*
X279230D02*
X278586D01*
X274888Y558049D01*
X271572Y556135D01*
X268865Y553428D01*
X266951Y550112D01*
X265960Y546414D01*
Y545770D01*
X279230D01*
Y559040D01*
D02*
G37*
G36*
X295040Y543230D02*
X281770D01*
Y529960D01*
X282414D01*
X286112Y530951D01*
X289428Y532865D01*
X292135Y535572D01*
X294049Y538888D01*
X295040Y542586D01*
Y543230D01*
D02*
G37*
G36*
X279230D02*
X265960D01*
Y542586D01*
X266951Y538888D01*
X268865Y535572D01*
X271572Y532865D01*
X274888Y530951D01*
X278586Y529960D01*
X279230D01*
Y543230D01*
D02*
G37*
G36*
X244040D02*
X230770D01*
Y529960D01*
X231414D01*
X235112Y530951D01*
X238428Y532865D01*
X241135Y535572D01*
X243049Y538888D01*
X244040Y542586D01*
Y543230D01*
D02*
G37*
G36*
X228230D02*
X214960D01*
Y542586D01*
X215951Y538888D01*
X217865Y535572D01*
X220572Y532865D01*
X223888Y530951D01*
X227586Y529960D01*
X228230D01*
Y543230D01*
D02*
G37*
G36*
X770282Y536338D02*
X769770D01*
Y524070D01*
X782038D01*
Y524582D01*
X781116Y528026D01*
X779333Y531113D01*
X776813Y533633D01*
X773726Y535416D01*
X770282Y536338D01*
D02*
G37*
G36*
X767230D02*
X766718D01*
X763275Y535416D01*
X760187Y533633D01*
X757667Y531113D01*
X755884Y528026D01*
X754962Y524582D01*
Y524070D01*
X767230D01*
Y536338D01*
D02*
G37*
G36*
X782038Y521530D02*
X769770D01*
Y509262D01*
X770282D01*
X773726Y510184D01*
X776813Y511967D01*
X779333Y514487D01*
X781116Y517575D01*
X782038Y521018D01*
Y521530D01*
D02*
G37*
G36*
X767230D02*
X754962D01*
Y521018D01*
X755884Y517575D01*
X757667Y514487D01*
X760187Y511967D01*
X763275Y510184D01*
X766718Y509262D01*
X767230D01*
Y521530D01*
D02*
G37*
G36*
X594750Y529250D02*
X568750D01*
Y503250D01*
X594750D01*
Y529250D01*
D02*
G37*
G36*
X1128000Y529250D02*
X1102000D01*
Y503250D01*
X1128000D01*
Y529250D01*
D02*
G37*
G36*
X1058000D02*
X1032000D01*
Y503250D01*
X1058000D01*
Y529250D01*
D02*
G37*
G36*
X667745Y529249D02*
X641745D01*
Y503249D01*
X667745D01*
Y529249D01*
D02*
G37*
G36*
X518745D02*
X492745D01*
Y503249D01*
X518745D01*
Y529249D01*
D02*
G37*
G36*
X889772Y455390D02*
X889720D01*
Y446620D01*
X898490D01*
Y446672D01*
X897806Y449225D01*
X896484Y451515D01*
X894615Y453384D01*
X892325Y454706D01*
X889772Y455390D01*
D02*
G37*
G36*
X887180D02*
X887128D01*
X884575Y454706D01*
X882285Y453384D01*
X880416Y451515D01*
X879094Y449225D01*
X878410Y446672D01*
Y446620D01*
X887180D01*
Y455390D01*
D02*
G37*
G36*
X818550Y454850D02*
X799550D01*
Y435850D01*
X818550D01*
Y454850D01*
D02*
G37*
G36*
X898490Y444080D02*
X889720D01*
Y435310D01*
X889772D01*
X892325Y435994D01*
X894615Y437316D01*
X896484Y439185D01*
X897806Y441475D01*
X898490Y444028D01*
Y444080D01*
D02*
G37*
G36*
X887180D02*
X878410D01*
Y444028D01*
X879094Y441475D01*
X880416Y439185D01*
X882285Y437316D01*
X884575Y435994D01*
X887128Y435310D01*
X887180D01*
Y444080D01*
D02*
G37*
G36*
X282343Y439500D02*
X278657D01*
X275096Y438546D01*
X271904Y436703D01*
X269297Y434096D01*
X267454Y430904D01*
X266500Y427343D01*
Y423657D01*
X267454Y420096D01*
X269297Y416904D01*
X271904Y414297D01*
X275096Y412454D01*
X278657Y411500D01*
X282343D01*
X285904Y412454D01*
X289096Y414297D01*
X291703Y416904D01*
X293546Y420096D01*
X294500Y423657D01*
Y427343D01*
X293546Y430904D01*
X291703Y434096D01*
X289096Y436703D01*
X285904Y438546D01*
X282343Y439500D01*
D02*
G37*
G36*
X231343D02*
X227657D01*
X224096Y438546D01*
X220904Y436703D01*
X218297Y434096D01*
X216454Y430904D01*
X215500Y427343D01*
Y423657D01*
X216454Y420096D01*
X218297Y416904D01*
X220904Y414297D01*
X224096Y412454D01*
X227657Y411500D01*
X231343D01*
X234904Y412454D01*
X238096Y414297D01*
X240703Y416904D01*
X242546Y420096D01*
X243500Y423657D01*
Y427343D01*
X242546Y430904D01*
X240703Y434096D01*
X238096Y436703D01*
X234904Y438546D01*
X231343Y439500D01*
D02*
G37*
G36*
X1100330Y420803D02*
X1086170D01*
Y411328D01*
X1053495D01*
X1053450Y411496D01*
X1052002Y414004D01*
X1049954Y416052D01*
X1047446Y417500D01*
X1044648Y418250D01*
X1041752D01*
X1038954Y417500D01*
X1036446Y416052D01*
X1034398Y414004D01*
X1032950Y411496D01*
X1032200Y408698D01*
Y405802D01*
X1032950Y403004D01*
X1034398Y400496D01*
X1036446Y398448D01*
X1038954Y397000D01*
X1041752Y396250D01*
X1044648D01*
X1047446Y397000D01*
X1049954Y398448D01*
X1052002Y400496D01*
X1053450Y403004D01*
X1053495Y403172D01*
X1086170D01*
Y394197D01*
X1100330D01*
Y420803D01*
D02*
G37*
G36*
X889701Y429450D02*
X887199D01*
X884783Y428803D01*
X882617Y427552D01*
X880848Y425783D01*
X879597Y423617D01*
X878950Y421201D01*
Y418699D01*
X879597Y416283D01*
X880848Y414117D01*
X882617Y412348D01*
X884783Y411097D01*
X887199Y410450D01*
X889701D01*
X892117Y411097D01*
X894283Y412348D01*
X896052Y414117D01*
X897303Y416283D01*
X897950Y418699D01*
Y421201D01*
X897303Y423617D01*
X896052Y425783D01*
X894283Y427552D01*
X892117Y428803D01*
X889701Y429450D01*
D02*
G37*
G36*
X810301D02*
X807799D01*
X805383Y428803D01*
X803217Y427552D01*
X801448Y425783D01*
X800198Y423617D01*
X799550Y421201D01*
Y418699D01*
X800198Y416283D01*
X801448Y414117D01*
X803217Y412348D01*
X805383Y411097D01*
X807799Y410450D01*
X810301D01*
X812717Y411097D01*
X814883Y412348D01*
X816652Y414117D01*
X817903Y416283D01*
X818550Y418699D01*
Y421201D01*
X817903Y423617D01*
X816652Y425783D01*
X814883Y427552D01*
X812717Y428803D01*
X810301Y429450D01*
D02*
G37*
G36*
X518050Y404750D02*
X496050D01*
Y397828D01*
X474750D01*
X474750Y397828D01*
X473189Y397518D01*
X471866Y396634D01*
X471866Y396634D01*
X458366Y383134D01*
X457482Y381811D01*
X457172Y380250D01*
X457172Y380250D01*
Y348439D01*
X453811Y345078D01*
X396500D01*
Y354000D01*
X370500D01*
Y328000D01*
X396500D01*
Y336922D01*
X455500D01*
X455500Y336922D01*
X457061Y337232D01*
X458384Y338116D01*
X464134Y343866D01*
X464134Y343866D01*
X465018Y345189D01*
X465328Y346750D01*
X465328Y346750D01*
Y378561D01*
X476439Y389672D01*
X496050D01*
Y382750D01*
X502972D01*
Y372578D01*
X485093D01*
X483532Y372268D01*
X482209Y371384D01*
X482209Y371384D01*
X479866Y369041D01*
X478982Y367718D01*
X478672Y366157D01*
X478672Y366157D01*
Y361830D01*
X469447D01*
Y347670D01*
X496053D01*
Y361830D01*
X486828D01*
Y364422D01*
X502972D01*
Y322935D01*
X502972Y322935D01*
X503282Y321374D01*
X504166Y320051D01*
X506509Y317708D01*
X506509Y317708D01*
X507832Y316824D01*
X509393Y316513D01*
X519802D01*
X519905Y316359D01*
X520815Y315751D01*
X521888Y315538D01*
X540088D01*
X541161Y315751D01*
X542070Y316359D01*
X542678Y317269D01*
X542892Y318342D01*
Y322841D01*
X542678Y323914D01*
X542070Y324824D01*
X541161Y325432D01*
X540088Y325645D01*
X521888D01*
X520815Y325432D01*
X519905Y324824D01*
X519802Y324670D01*
X511128D01*
Y368500D01*
Y382750D01*
X518050D01*
Y404750D01*
D02*
G37*
G36*
X1224332Y418250D02*
X1221568D01*
X1218897Y417534D01*
X1216503Y416152D01*
X1214548Y414197D01*
X1213166Y411803D01*
X1212450Y409132D01*
Y406368D01*
X1213166Y403697D01*
X1214548Y401303D01*
X1216503Y399348D01*
X1218897Y397966D01*
X1221568Y397250D01*
X1224332D01*
X1227003Y397966D01*
X1229397Y399348D01*
X1231352Y401303D01*
X1232734Y403697D01*
X1233450Y406368D01*
Y409132D01*
X1232734Y411803D01*
X1231352Y414197D01*
X1229397Y416152D01*
X1227003Y417534D01*
X1224332Y418250D01*
D02*
G37*
G36*
X1130330Y420803D02*
X1116170D01*
Y394197D01*
X1130330D01*
Y403422D01*
X1187050D01*
Y397250D01*
X1208050D01*
Y418250D01*
X1187050D01*
Y411578D01*
X1130330D01*
Y420803D01*
D02*
G37*
G36*
X1028800Y418250D02*
X1006800D01*
Y396250D01*
X1028800D01*
Y418250D01*
D02*
G37*
G36*
X889701Y404050D02*
X887199D01*
X884783Y403403D01*
X882617Y402152D01*
X880848Y400383D01*
X879597Y398217D01*
X878950Y395801D01*
Y393299D01*
X879597Y390883D01*
X880848Y388717D01*
X882617Y386948D01*
X884783Y385698D01*
X887199Y385050D01*
X889701D01*
X892117Y385698D01*
X894283Y386948D01*
X896052Y388717D01*
X897303Y390883D01*
X897950Y393299D01*
Y395801D01*
X897303Y398217D01*
X896052Y400383D01*
X894283Y402152D01*
X892117Y403403D01*
X889701Y404050D01*
D02*
G37*
G36*
X810301D02*
X807799D01*
X805383Y403403D01*
X803217Y402152D01*
X801448Y400383D01*
X800198Y398217D01*
X799550Y395801D01*
Y393299D01*
X800198Y390883D01*
X801448Y388717D01*
X803217Y386948D01*
X805383Y385698D01*
X807799Y385050D01*
X810301D01*
X812717Y385698D01*
X814883Y386948D01*
X816652Y388717D01*
X817903Y390883D01*
X818550Y393299D01*
Y395801D01*
X817903Y398217D01*
X816652Y400383D01*
X814883Y402152D01*
X812717Y403403D01*
X810301Y404050D01*
D02*
G37*
G36*
X533898Y404750D02*
X531002D01*
X528204Y404000D01*
X525696Y402552D01*
X523648Y400504D01*
X522200Y397996D01*
X521450Y395198D01*
Y392302D01*
X522200Y389504D01*
X523648Y386996D01*
X525696Y384948D01*
X528204Y383500D01*
X531002Y382750D01*
X533898D01*
X536696Y383500D01*
X539204Y384948D01*
X541252Y386996D01*
X542700Y389504D01*
X543450Y392302D01*
Y395198D01*
X542700Y397996D01*
X541252Y400504D01*
X539204Y402552D01*
X536696Y404000D01*
X533898Y404750D01*
D02*
G37*
G36*
X740261Y406498D02*
X736839D01*
X733533Y405612D01*
X730569Y403901D01*
X728149Y401481D01*
X726438Y398517D01*
X725552Y395211D01*
Y391789D01*
X726438Y388483D01*
X728149Y385519D01*
X730569Y383099D01*
X733533Y381388D01*
X736839Y380502D01*
X740261D01*
X743567Y381388D01*
X746531Y383099D01*
X748951Y385519D01*
X750662Y388483D01*
X751548Y391789D01*
Y395211D01*
X750662Y398517D01*
X748951Y401481D01*
X746531Y403901D01*
X743567Y405612D01*
X740261Y406498D01*
D02*
G37*
G36*
X638661D02*
X635239D01*
X631933Y405612D01*
X628969Y403901D01*
X626549Y401481D01*
X624838Y398517D01*
X623952Y395211D01*
Y391789D01*
X624838Y388483D01*
X626549Y385519D01*
X628969Y383099D01*
X631933Y381388D01*
X635239Y380502D01*
X638661D01*
X641967Y381388D01*
X644931Y383099D01*
X647351Y385519D01*
X649062Y388483D01*
X649948Y391789D01*
Y395211D01*
X649062Y398517D01*
X647351Y401481D01*
X644931Y403901D01*
X641967Y405612D01*
X638661Y406498D01*
D02*
G37*
G36*
X282343Y388500D02*
X278657D01*
X275096Y387546D01*
X271904Y385703D01*
X269297Y383096D01*
X267454Y379904D01*
X266500Y376343D01*
Y372657D01*
X267454Y369096D01*
X269297Y365904D01*
X271904Y363297D01*
X275096Y361454D01*
X278657Y360500D01*
X282343D01*
X285904Y361454D01*
X289096Y363297D01*
X291703Y365904D01*
X293546Y369096D01*
X294500Y372657D01*
Y376343D01*
X293546Y379904D01*
X291703Y383096D01*
X289096Y385703D01*
X285904Y387546D01*
X282343Y388500D01*
D02*
G37*
G36*
X231343D02*
X227657D01*
X224096Y387546D01*
X220904Y385703D01*
X218297Y383096D01*
X216454Y379904D01*
X215500Y376343D01*
Y372657D01*
X216454Y369096D01*
X218297Y365904D01*
X220904Y363297D01*
X224096Y361454D01*
X227657Y360500D01*
X231343D01*
X234904Y361454D01*
X238096Y363297D01*
X240703Y365904D01*
X242546Y369096D01*
X243500Y372657D01*
Y376343D01*
X242546Y379904D01*
X240703Y383096D01*
X238096Y385703D01*
X234904Y387546D01*
X231343Y388500D01*
D02*
G37*
G36*
X889701Y378650D02*
X887199D01*
X884783Y378003D01*
X882617Y376752D01*
X880848Y374983D01*
X879597Y372817D01*
X878950Y370401D01*
Y367899D01*
X879597Y365483D01*
X880848Y363317D01*
X882617Y361548D01*
X884783Y360298D01*
X887199Y359650D01*
X889701D01*
X892117Y360298D01*
X894283Y361548D01*
X896052Y363317D01*
X897303Y365483D01*
X897950Y367899D01*
Y370401D01*
X897303Y372817D01*
X896052Y374983D01*
X894283Y376752D01*
X892117Y378003D01*
X889701Y378650D01*
D02*
G37*
G36*
X810301D02*
X807799D01*
X805383Y378003D01*
X803217Y376752D01*
X801448Y374983D01*
X800198Y372817D01*
X799550Y370401D01*
Y367899D01*
X800198Y365483D01*
X801448Y363317D01*
X803217Y361548D01*
X805383Y360298D01*
X807799Y359650D01*
X810301D01*
X812717Y360298D01*
X814883Y361548D01*
X816652Y363317D01*
X817903Y365483D01*
X818550Y367899D01*
Y370401D01*
X817903Y372817D01*
X816652Y374983D01*
X814883Y376752D01*
X812717Y378003D01*
X810301Y378650D01*
D02*
G37*
G36*
X770211Y434198D02*
X766789D01*
X763483Y433312D01*
X760519Y431601D01*
X758099Y429181D01*
X756388Y426217D01*
X755502Y422911D01*
Y419489D01*
X756388Y416183D01*
X758099Y413219D01*
X760519Y410799D01*
X763483Y409088D01*
X764672Y408769D01*
Y382097D01*
X763983Y381912D01*
X761019Y380201D01*
X758599Y377781D01*
X756888Y374817D01*
X756002Y371511D01*
Y368089D01*
X756888Y364783D01*
X758599Y361819D01*
X761019Y359399D01*
X763983Y357688D01*
X767289Y356802D01*
X770711D01*
X774017Y357688D01*
X776981Y359399D01*
X779401Y361819D01*
X781112Y364783D01*
X781998Y368089D01*
Y371511D01*
X781112Y374817D01*
X779401Y377781D01*
X776981Y380201D01*
X774017Y381912D01*
X772828Y382231D01*
Y408903D01*
X773517Y409088D01*
X776481Y410799D01*
X778901Y413219D01*
X780612Y416183D01*
X781498Y419489D01*
Y422911D01*
X780612Y426217D01*
X778901Y429181D01*
X776481Y431601D01*
X773517Y433312D01*
X770211Y434198D01*
D02*
G37*
G36*
X551790Y362290D02*
X545520D01*
Y354770D01*
X551790D01*
Y362290D01*
D02*
G37*
G36*
X542980D02*
X536710D01*
Y354770D01*
X542980D01*
Y362290D01*
D02*
G37*
G36*
X599407Y415328D02*
X599407Y415328D01*
X438593D01*
X437032Y415018D01*
X435709Y414134D01*
X435709Y414134D01*
X433366Y411791D01*
X432482Y410468D01*
X432172Y408907D01*
X432172Y408907D01*
Y389078D01*
X396500D01*
Y398000D01*
X370500D01*
Y372000D01*
X396500D01*
Y380922D01*
X432172D01*
Y361080D01*
X422947D01*
Y346920D01*
X449553D01*
Y361080D01*
X440328D01*
Y385000D01*
Y407172D01*
X597718D01*
X598922Y405967D01*
Y364250D01*
Y337370D01*
X591573D01*
X591470Y337524D01*
X590561Y338132D01*
X589488Y338345D01*
X571288D01*
X570215Y338132D01*
X569305Y337524D01*
X568697Y336614D01*
X568484Y335541D01*
Y331041D01*
X568697Y329968D01*
X569305Y329059D01*
X570215Y328451D01*
X571288Y328238D01*
X589488D01*
X590561Y328451D01*
X591470Y329059D01*
X591573Y329213D01*
X601541D01*
X601541Y329213D01*
X603102Y329524D01*
X604425Y330408D01*
X605884Y331866D01*
X605884Y331866D01*
X606768Y333190D01*
X606972Y334213D01*
X624500D01*
Y333017D01*
X638500D01*
Y349517D01*
X624500D01*
Y342370D01*
X607078D01*
Y360172D01*
X619920D01*
Y352697D01*
X634080D01*
Y379303D01*
X619920D01*
Y368328D01*
X607078D01*
Y407657D01*
X607078Y407657D01*
X606768Y409218D01*
X605884Y410541D01*
X602291Y414134D01*
X600968Y415018D01*
X600709Y415069D01*
X599407Y415328D01*
D02*
G37*
G36*
X571250Y361750D02*
X557250D01*
Y345250D01*
X571250D01*
Y349172D01*
X575272D01*
X575399Y348952D01*
X576702Y347649D01*
X578298Y346727D01*
X580078Y346250D01*
X581922D01*
X583702Y346727D01*
X585298Y347649D01*
X586601Y348952D01*
X587523Y350548D01*
X588000Y352328D01*
Y354172D01*
X587523Y355952D01*
X586601Y357548D01*
X585298Y358851D01*
X583702Y359773D01*
X581922Y360250D01*
X580078D01*
X578298Y359773D01*
X576702Y358851D01*
X575399Y357548D01*
X575272Y357328D01*
X571250D01*
Y361750D01*
D02*
G37*
G36*
X551790Y352230D02*
X545520D01*
Y344710D01*
X551790D01*
Y352230D01*
D02*
G37*
G36*
X542980D02*
X536710D01*
Y344710D01*
X542980D01*
Y352230D01*
D02*
G37*
G36*
X540088Y338896D02*
X532258D01*
Y334562D01*
X543442D01*
Y335541D01*
X543187Y336825D01*
X542460Y337914D01*
X541371Y338641D01*
X540088Y338896D01*
D02*
G37*
G36*
X529718D02*
X521888D01*
X520604Y338641D01*
X519516Y337914D01*
X518789Y336825D01*
X518533Y335541D01*
Y334562D01*
X529718D01*
Y338896D01*
D02*
G37*
G36*
X825633Y345790D02*
X825120D01*
Y333520D01*
X837390D01*
Y334033D01*
X836467Y337476D01*
X834685Y340564D01*
X832164Y343085D01*
X829076Y344867D01*
X825633Y345790D01*
D02*
G37*
G36*
X822580D02*
X822067D01*
X818624Y344867D01*
X815536Y343085D01*
X813015Y340564D01*
X811233Y337476D01*
X810310Y334033D01*
Y333520D01*
X822580D01*
Y345790D01*
D02*
G37*
G36*
X730211Y357400D02*
X726788D01*
X723482Y356514D01*
X720518Y354803D01*
X718097Y352382D01*
X716386Y349418D01*
X715500Y346111D01*
Y342688D01*
X716386Y339382D01*
X718097Y336418D01*
X720518Y333997D01*
X723482Y332286D01*
X726788Y331400D01*
X730211D01*
X733518Y332286D01*
X736482Y333997D01*
X738903Y336418D01*
X740614Y339382D01*
X741500Y342688D01*
Y346111D01*
X740614Y349418D01*
X738903Y352382D01*
X736482Y354803D01*
X733518Y356514D01*
X730211Y357400D01*
D02*
G37*
G36*
X543442Y332021D02*
X532258D01*
Y327687D01*
X540088D01*
X541371Y327942D01*
X542460Y328670D01*
X543187Y329758D01*
X543442Y331041D01*
Y332021D01*
D02*
G37*
G36*
X529718D02*
X518533D01*
Y331041D01*
X518789Y329758D01*
X519516Y328670D01*
X520604Y327942D01*
X521888Y327687D01*
X529718D01*
Y332021D01*
D02*
G37*
G36*
X876361Y345250D02*
X872939D01*
X869632Y344364D01*
X866668Y342653D01*
X864247Y340232D01*
X862536Y337268D01*
X861650Y333961D01*
Y330538D01*
X862536Y327232D01*
X864247Y324268D01*
X866668Y321847D01*
X869632Y320136D01*
X872939Y319250D01*
X876361D01*
X879668Y320136D01*
X882632Y321847D01*
X885053Y324268D01*
X886764Y327232D01*
X887650Y330538D01*
Y333961D01*
X886764Y337268D01*
X885053Y340232D01*
X882632Y342653D01*
X879668Y344364D01*
X876361Y345250D01*
D02*
G37*
G36*
X837390Y330980D02*
X825120D01*
Y318710D01*
X825633D01*
X829076Y319633D01*
X832164Y321415D01*
X834685Y323936D01*
X836467Y327024D01*
X837390Y330467D01*
Y330980D01*
D02*
G37*
G36*
X822580D02*
X810310D01*
Y330467D01*
X811233Y327024D01*
X813015Y323936D01*
X815536Y321415D01*
X818624Y319633D01*
X822067Y318710D01*
X822580D01*
Y330980D01*
D02*
G37*
G36*
X496053Y331830D02*
X469447D01*
Y317670D01*
X479422D01*
Y311970D01*
X439328D01*
Y316920D01*
X449553D01*
Y331080D01*
X422947D01*
Y316920D01*
X431172D01*
Y307892D01*
X431172Y307892D01*
X431172Y307891D01*
Y299830D01*
X423197D01*
Y285670D01*
X449803D01*
Y299830D01*
X439328D01*
Y303813D01*
X479422D01*
Y299580D01*
X468947D01*
Y285420D01*
X495553D01*
Y299580D01*
X487578D01*
Y303813D01*
X519802D01*
X519905Y303659D01*
X520815Y303051D01*
X521888Y302838D01*
X540088D01*
X541161Y303051D01*
X542070Y303659D01*
X542678Y304569D01*
X542892Y305641D01*
Y310142D01*
X542678Y311215D01*
X542070Y312124D01*
X541161Y312732D01*
X540088Y312945D01*
X521888D01*
X520815Y312732D01*
X519905Y312124D01*
X519802Y311970D01*
X487578D01*
Y317670D01*
X496053D01*
Y331830D01*
D02*
G37*
G36*
X540088Y300245D02*
X521888D01*
X520815Y300032D01*
X519905Y299424D01*
X519822Y299299D01*
X518338D01*
X516777Y298989D01*
X515454Y298105D01*
X515454Y298104D01*
X513111Y295762D01*
X512227Y294438D01*
X511916Y292878D01*
X511916Y292878D01*
Y280506D01*
X511916Y280505D01*
X512227Y278945D01*
X513111Y277621D01*
X521170Y269562D01*
X521170Y269562D01*
X521838Y269116D01*
X521977Y268596D01*
X522899Y267000D01*
X524202Y265697D01*
X525798Y264775D01*
X527578Y264298D01*
X529422D01*
X531202Y264775D01*
X532798Y265697D01*
X534101Y267000D01*
X534228Y267220D01*
X539750D01*
Y265750D01*
X553750D01*
Y282250D01*
X539750D01*
Y275376D01*
X534228D01*
X534101Y275596D01*
X532798Y276900D01*
X531202Y277821D01*
X529422Y278298D01*
X527578D01*
X525798Y277821D01*
X524941Y277326D01*
X520073Y282195D01*
Y289436D01*
X521343Y290246D01*
X521888Y290138D01*
X540088D01*
X541161Y290351D01*
X542070Y290959D01*
X542678Y291868D01*
X542892Y292941D01*
Y297442D01*
X542678Y298514D01*
X542070Y299424D01*
X541161Y300032D01*
X540088Y300245D01*
D02*
G37*
G36*
X730211Y306600D02*
X726788D01*
X723482Y305714D01*
X720518Y304003D01*
X718097Y301582D01*
X716386Y298618D01*
X715500Y295312D01*
Y291889D01*
X716386Y288582D01*
X718097Y285618D01*
X720518Y283197D01*
X723482Y281486D01*
X726788Y280600D01*
X730211D01*
X733518Y281486D01*
X736482Y283197D01*
X738903Y285618D01*
X740614Y288582D01*
X741500Y291889D01*
Y295312D01*
X740614Y298618D01*
X738903Y301582D01*
X736482Y304003D01*
X733518Y305714D01*
X730211Y306600D01*
D02*
G37*
G36*
X589488Y312945D02*
X571288D01*
X570215Y312732D01*
X569305Y312124D01*
X568697Y311215D01*
X568484Y310142D01*
Y305641D01*
X568697Y304569D01*
X569305Y303659D01*
X570215Y303051D01*
X571288Y302838D01*
X589488D01*
X590561Y303051D01*
X591470Y303659D01*
X591813Y304172D01*
X607672D01*
Y287000D01*
Y262593D01*
X607672Y262593D01*
X607982Y261032D01*
X608866Y259709D01*
X611209Y257366D01*
X611209Y257366D01*
X612532Y256482D01*
X614093Y256172D01*
X621670D01*
Y244697D01*
X635830D01*
Y271303D01*
X621670D01*
Y264328D01*
X615828D01*
Y282922D01*
X621670D01*
Y273697D01*
X635830D01*
Y300303D01*
X621670D01*
Y291078D01*
X615828D01*
Y305907D01*
X615518Y307468D01*
X614634Y308791D01*
X614634Y308791D01*
X612291Y311134D01*
X610968Y312018D01*
X609407Y312328D01*
X609407Y312328D01*
X591165D01*
X590561Y312732D01*
X589488Y312945D01*
D02*
G37*
G36*
Y300245D02*
X571288D01*
X570215Y300032D01*
X569305Y299424D01*
X568697Y298514D01*
X568484Y297442D01*
Y292941D01*
X568697Y291868D01*
X569305Y290959D01*
X570215Y290351D01*
X571288Y290138D01*
X589488D01*
X590561Y290351D01*
X591152Y290746D01*
X592224Y290345D01*
X592422Y290183D01*
Y269328D01*
X589174D01*
Y269536D01*
X588723Y271803D01*
X587439Y273725D01*
X582975Y278189D01*
X581053Y279473D01*
X578787Y279924D01*
X573750D01*
Y282250D01*
X559750D01*
Y265750D01*
X573750D01*
Y268076D01*
X576333D01*
X577326Y267083D01*
Y254167D01*
X576333Y253174D01*
X488174D01*
Y255420D01*
X495553D01*
Y269580D01*
X468947D01*
Y255420D01*
X476326D01*
Y253174D01*
X404250D01*
Y254250D01*
X401924D01*
Y264000D01*
X401473Y266267D01*
X400189Y268189D01*
X386439Y281939D01*
X384517Y283223D01*
X382250Y283674D01*
X300250D01*
X297983Y283223D01*
X296061Y281939D01*
X285574Y271451D01*
X282593Y272250D01*
X278907D01*
X275346Y271296D01*
X272154Y269453D01*
X269547Y266846D01*
X267704Y263654D01*
X266750Y260093D01*
Y256407D01*
X267704Y252846D01*
X269547Y249654D01*
X272154Y247047D01*
X275346Y245204D01*
X278907Y244250D01*
X282593D01*
X286154Y245204D01*
X289346Y247047D01*
X291953Y249654D01*
X293796Y252846D01*
X294750Y256407D01*
Y260093D01*
X293951Y263074D01*
X302704Y271826D01*
X320326D01*
Y267055D01*
X318901Y266772D01*
X317599Y265901D01*
X316728Y264599D01*
X316423Y263062D01*
Y243638D01*
X316728Y242101D01*
X317599Y240799D01*
X318901Y239928D01*
X320438Y239623D01*
X332062D01*
X333599Y239928D01*
X334901Y240799D01*
X335771Y242101D01*
X336077Y243638D01*
Y263062D01*
X335771Y264599D01*
X334901Y265901D01*
X333599Y266772D01*
X332174Y267055D01*
Y271826D01*
X357826D01*
Y255000D01*
X355250D01*
Y241000D01*
X371750D01*
Y255000D01*
X369674D01*
Y271826D01*
X379796D01*
X390076Y261546D01*
Y254250D01*
X387750D01*
Y240250D01*
X404250D01*
Y240945D01*
X404360Y240967D01*
X404898Y241326D01*
X487000D01*
Y217000D01*
X513000D01*
Y241326D01*
X567000D01*
Y217000D01*
X593000D01*
Y243000D01*
X584710D01*
X584184Y244270D01*
X587439Y247525D01*
X588723Y249447D01*
X589174Y251714D01*
Y261172D01*
X594157D01*
X594157Y261172D01*
X595718Y261482D01*
X597041Y262366D01*
X599384Y264709D01*
X599384Y264709D01*
X600268Y266032D01*
X600578Y267593D01*
Y292848D01*
X600268Y294409D01*
X599384Y295732D01*
X599384Y295732D01*
X597041Y298075D01*
X595718Y298959D01*
X594157Y299270D01*
X594157Y299270D01*
X591573D01*
X591470Y299424D01*
X590561Y300032D01*
X589488Y300245D01*
D02*
G37*
G36*
X665830Y300303D02*
X651670D01*
Y273697D01*
X665830D01*
Y280483D01*
X667100Y281009D01*
X674707Y273402D01*
X674311Y271922D01*
Y270078D01*
X674788Y268298D01*
X675709Y266702D01*
X676813Y265598D01*
X676630Y264776D01*
X676355Y264328D01*
X665830D01*
Y271303D01*
X651670D01*
Y244697D01*
X665830D01*
Y256172D01*
X729674D01*
X736222Y249624D01*
Y114866D01*
X736034Y114825D01*
X734803Y115859D01*
Y129080D01*
X708197D01*
Y114920D01*
X717422D01*
Y103988D01*
X717028Y103882D01*
X714292Y102302D01*
X712057Y100068D01*
X710478Y97332D01*
X709660Y94280D01*
Y91120D01*
X710478Y88068D01*
X712057Y85332D01*
X714292Y83098D01*
X717028Y81518D01*
X719196Y80937D01*
Y79622D01*
X716820Y78985D01*
X713960Y77334D01*
X711625Y75000D01*
X709975Y72140D01*
X709120Y68951D01*
Y68570D01*
X721660D01*
X734200D01*
Y68951D01*
X733345Y72140D01*
X731694Y75000D01*
X729360Y77334D01*
X726500Y78985D01*
X724124Y79622D01*
Y80937D01*
X726292Y81518D01*
X729028Y83098D01*
X731262Y85332D01*
X731300Y85397D01*
X880225D01*
Y76475D01*
X906225D01*
Y102475D01*
X880225D01*
Y93553D01*
X733660D01*
Y94280D01*
X732842Y97332D01*
X731262Y100068D01*
X729028Y102302D01*
X726292Y103882D01*
X725578Y104073D01*
Y105694D01*
X737825D01*
X737825Y105694D01*
X739385Y106004D01*
X740708Y106888D01*
X743184Y109364D01*
X743184Y109364D01*
X744068Y110687D01*
X744378Y112248D01*
X744378Y112248D01*
Y251313D01*
X744068Y252874D01*
X743184Y254197D01*
X743184Y254197D01*
X734247Y263134D01*
X732924Y264018D01*
X731363Y264328D01*
X731363Y264328D01*
X686266D01*
X685992Y264776D01*
X685808Y265598D01*
X686912Y266702D01*
X687834Y268298D01*
X688311Y270078D01*
Y271922D01*
X687834Y273702D01*
X686912Y275298D01*
X685609Y276601D01*
X684013Y277523D01*
X682232Y278000D01*
X681645D01*
X670761Y288884D01*
X669438Y289768D01*
X667877Y290078D01*
X667877Y290078D01*
X665830D01*
Y300303D01*
D02*
G37*
G36*
X390250Y295578D02*
X390250Y295578D01*
X284750D01*
X283189Y295268D01*
X281866Y294384D01*
X281866Y294384D01*
X254366Y266884D01*
X253482Y265561D01*
X253172Y264000D01*
X253172Y264000D01*
Y198750D01*
X253172Y198750D01*
X253482Y197189D01*
X254366Y195866D01*
X279616Y170616D01*
X279616Y170616D01*
X280939Y169732D01*
X282500Y169422D01*
X349061D01*
X397208Y121274D01*
X396500Y118632D01*
Y115868D01*
X397216Y113197D01*
X398598Y110803D01*
X400553Y108848D01*
X402947Y107466D01*
X405618Y106750D01*
X408382D01*
X411053Y107466D01*
X413447Y108848D01*
X415402Y110803D01*
X416784Y113197D01*
X417500Y115868D01*
Y118632D01*
X416784Y121303D01*
X415402Y123697D01*
X413447Y125652D01*
X411053Y127034D01*
X408382Y127750D01*
X405618D01*
X402976Y127042D01*
X353634Y176384D01*
X352311Y177268D01*
X350750Y177578D01*
X350750Y177578D01*
X284189D01*
X261328Y200439D01*
Y262311D01*
X286439Y287422D01*
X388561D01*
X416116Y259866D01*
X416116Y259866D01*
X417439Y258982D01*
X419000Y258672D01*
X423197D01*
Y255670D01*
X449803D01*
Y269830D01*
X423197D01*
Y266828D01*
X420689D01*
X393134Y294384D01*
X391811Y295268D01*
X391552Y295319D01*
X390250Y295578D01*
D02*
G37*
G36*
X770711Y281198D02*
X767289D01*
X763983Y280312D01*
X761019Y278601D01*
X758599Y276181D01*
X756888Y273217D01*
X756002Y269911D01*
Y266489D01*
X756888Y263183D01*
X758599Y260219D01*
X761019Y257799D01*
X763983Y256088D01*
X767289Y255202D01*
X770711D01*
X774017Y256088D01*
X776981Y257799D01*
X779401Y260219D01*
X781112Y263183D01*
X781998Y266489D01*
Y269911D01*
X781112Y273217D01*
X779401Y276181D01*
X776981Y278601D01*
X774017Y280312D01*
X770711Y281198D01*
D02*
G37*
G36*
X231593Y272250D02*
X227907D01*
X224346Y271296D01*
X221154Y269453D01*
X218547Y266846D01*
X216704Y263654D01*
X215750Y260093D01*
Y256407D01*
X216704Y252846D01*
X218547Y249654D01*
X221154Y247047D01*
X224346Y245204D01*
X227907Y244250D01*
X231593D01*
X235154Y245204D01*
X238346Y247047D01*
X240953Y249654D01*
X242796Y252846D01*
X243750Y256407D01*
Y260093D01*
X242796Y263654D01*
X240953Y266846D01*
X238346Y269453D01*
X235154Y271296D01*
X231593Y272250D01*
D02*
G37*
G36*
X371750Y235000D02*
X355250D01*
Y221000D01*
X359422D01*
Y218174D01*
X336077D01*
Y220362D01*
X335771Y221899D01*
X334901Y223201D01*
X333599Y224072D01*
X332062Y224377D01*
X320438D01*
X318901Y224072D01*
X317599Y223201D01*
X316728Y221899D01*
X316423Y220362D01*
Y200938D01*
X316728Y199401D01*
X317599Y198099D01*
X318901Y197229D01*
X320438Y196923D01*
X332062D01*
X333599Y197229D01*
X334901Y198099D01*
X335771Y199401D01*
X336077Y200938D01*
Y206326D01*
X359760D01*
X360798Y205727D01*
X362578Y205250D01*
X364422D01*
X366202Y205727D01*
X367798Y206649D01*
X369101Y207952D01*
X369228Y208172D01*
X391000D01*
X391000Y208172D01*
X392561Y208482D01*
X393884Y209366D01*
X398884Y214366D01*
X398884Y214366D01*
X399768Y215689D01*
X400078Y217250D01*
X400078Y217250D01*
Y220250D01*
X404250D01*
Y234250D01*
X387750D01*
Y220250D01*
X391922D01*
Y218939D01*
X389311Y216328D01*
X369228D01*
X369101Y216548D01*
X367798Y217851D01*
X367578Y217978D01*
Y221000D01*
X371750D01*
Y235000D01*
D02*
G37*
G36*
X1123000Y243000D02*
X1097000D01*
Y217000D01*
X1123000D01*
Y243000D01*
D02*
G37*
G36*
X1058000D02*
X1032000D01*
Y217000D01*
X1058000D01*
Y243000D01*
D02*
G37*
G36*
X668000D02*
X642000D01*
Y217000D01*
X668000D01*
Y243000D01*
D02*
G37*
G36*
X282593Y221250D02*
X278907D01*
X275346Y220296D01*
X272154Y218453D01*
X269547Y215846D01*
X267704Y212654D01*
X266750Y209093D01*
Y205407D01*
X267704Y201846D01*
X269547Y198654D01*
X272154Y196047D01*
X275346Y194204D01*
X278907Y193250D01*
X282593D01*
X286154Y194204D01*
X289346Y196047D01*
X291953Y198654D01*
X293796Y201846D01*
X294750Y205407D01*
Y209093D01*
X293796Y212654D01*
X291953Y215846D01*
X289346Y218453D01*
X286154Y220296D01*
X282593Y221250D01*
D02*
G37*
G36*
X231593D02*
X227907D01*
X224346Y220296D01*
X221154Y218453D01*
X218547Y215846D01*
X216704Y212654D01*
X215750Y209093D01*
Y205407D01*
X216704Y201846D01*
X218547Y198654D01*
X221154Y196047D01*
X224346Y194204D01*
X227907Y193250D01*
X231593D01*
X235154Y194204D01*
X238346Y196047D01*
X240953Y198654D01*
X242796Y201846D01*
X243750Y205407D01*
Y209093D01*
X242796Y212654D01*
X240953Y215846D01*
X238346Y218453D01*
X235154Y220296D01*
X231593Y221250D01*
D02*
G37*
G36*
X547000Y193250D02*
X533000D01*
Y189078D01*
X528071D01*
X526798Y190351D01*
X525202Y191273D01*
X523422Y191750D01*
X521578D01*
X519798Y191273D01*
X518202Y190351D01*
X516899Y189048D01*
X515977Y187452D01*
X515500Y185672D01*
Y183828D01*
X515566Y183583D01*
X507616Y175634D01*
X506732Y174311D01*
X506422Y172750D01*
X506422Y172750D01*
Y163888D01*
X506422Y163888D01*
X506732Y162327D01*
X507616Y161004D01*
X509959Y158661D01*
X509959Y158661D01*
X511282Y157777D01*
X512843Y157467D01*
X515742D01*
Y156796D01*
X533712D01*
Y166384D01*
X515742D01*
Y166384D01*
X514578Y166641D01*
Y171061D01*
X521333Y177816D01*
X521578Y177750D01*
X523422D01*
X525202Y178227D01*
X526798Y179149D01*
X528101Y180452D01*
X528373Y180922D01*
X533000D01*
Y176750D01*
X547000D01*
Y193250D01*
D02*
G37*
G36*
X567540Y193790D02*
X561270D01*
Y186270D01*
X567540D01*
Y193790D01*
D02*
G37*
G36*
X558730D02*
X552460D01*
Y186270D01*
X558730D01*
Y193790D01*
D02*
G37*
G36*
X567540Y183730D02*
X561270D01*
Y176210D01*
X567540D01*
Y183730D01*
D02*
G37*
G36*
X558730D02*
X552460D01*
Y176210D01*
X558730D01*
Y183730D01*
D02*
G37*
G36*
X647657Y166078D02*
X647657Y166078D01*
X619843D01*
X619843Y166078D01*
X618282Y165768D01*
X616959Y164884D01*
X605044Y152968D01*
X586798D01*
Y153684D01*
X568828D01*
Y144096D01*
X586798D01*
Y144812D01*
X606733D01*
X606733Y144812D01*
X608294Y145122D01*
X609617Y146006D01*
X621533Y157922D01*
X635776D01*
X636697Y157080D01*
Y142920D01*
X663303D01*
Y157080D01*
X654078D01*
Y159657D01*
X653768Y161218D01*
X652884Y162541D01*
X652884Y162541D01*
X650541Y164884D01*
X649218Y165768D01*
X648959Y165819D01*
X647657Y166078D01*
D02*
G37*
G36*
X587338Y166924D02*
X579083D01*
Y162860D01*
X587338D01*
Y166924D01*
D02*
G37*
G36*
X576543D02*
X568288D01*
Y162860D01*
X576543D01*
Y166924D01*
D02*
G37*
G36*
X587338Y160320D02*
X579083D01*
Y156256D01*
X587338D01*
Y160320D01*
D02*
G37*
G36*
X576543D02*
X568288D01*
Y156256D01*
X576543D01*
Y160320D01*
D02*
G37*
G36*
X721922Y174500D02*
X720078D01*
X718298Y174023D01*
X716702Y173101D01*
X715399Y171798D01*
X714477Y170202D01*
X714000Y168422D01*
Y166579D01*
X714477Y164798D01*
X715399Y163202D01*
X716702Y161899D01*
X716922Y161772D01*
Y159080D01*
X708197D01*
Y144920D01*
X734803D01*
Y159080D01*
X725078D01*
Y161772D01*
X725298Y161899D01*
X726601Y163202D01*
X727523Y164798D01*
X728000Y166579D01*
Y168422D01*
X727523Y170202D01*
X726601Y171798D01*
X725298Y173101D01*
X723702Y174023D01*
X721922Y174500D01*
D02*
G37*
G36*
X685922Y174500D02*
X684078D01*
X682298Y174023D01*
X680702Y173101D01*
X679399Y171798D01*
X678477Y170202D01*
X678000Y168422D01*
Y166578D01*
X678477Y164798D01*
X679399Y163202D01*
X680702Y161899D01*
X680922Y161772D01*
Y157080D01*
X671697D01*
Y142920D01*
X698303D01*
Y157080D01*
X689078D01*
Y161772D01*
X689298Y161899D01*
X690601Y163202D01*
X691523Y164798D01*
X692000Y166578D01*
Y168422D01*
X691523Y170202D01*
X690601Y171798D01*
X689298Y173101D01*
X687702Y174023D01*
X685922Y174500D01*
D02*
G37*
G36*
X586798Y140984D02*
X568828D01*
Y131396D01*
X586798D01*
Y140984D01*
D02*
G37*
G36*
X533712Y153684D02*
X515742D01*
Y144096D01*
X533712D01*
Y144812D01*
X539421D01*
X550922Y133311D01*
Y80757D01*
X549913Y79749D01*
X549337Y78358D01*
X547963D01*
X547387Y79749D01*
X545699Y81437D01*
X543493Y82350D01*
X541106D01*
X538901Y81437D01*
X537370Y79905D01*
X536632Y80034D01*
X536100Y80295D01*
Y81016D01*
X535657Y82669D01*
X534801Y84151D01*
X533591Y85361D01*
X532109Y86217D01*
X530456Y86660D01*
X528744D01*
X527091Y86217D01*
X525609Y85361D01*
X524399Y84151D01*
X523543Y82669D01*
X523100Y81016D01*
Y79304D01*
X523543Y77651D01*
X524399Y76169D01*
X525219Y75348D01*
X524693Y74078D01*
X511578D01*
Y130811D01*
X512879Y132112D01*
X515742D01*
Y131396D01*
X533712D01*
Y140984D01*
X515742D01*
Y140268D01*
X511190D01*
X509629Y139958D01*
X508306Y139074D01*
X508306Y139074D01*
X504616Y135384D01*
X503732Y134061D01*
X503422Y132500D01*
X503422Y132500D01*
Y72343D01*
X503422Y72343D01*
X503732Y70782D01*
X504616Y69459D01*
X506959Y67116D01*
X506959Y67116D01*
X508282Y66232D01*
X509843Y65922D01*
X524693D01*
X525219Y64652D01*
X524399Y63831D01*
X523543Y62349D01*
X523100Y60696D01*
Y58984D01*
X523543Y57331D01*
X524399Y55849D01*
X525609Y54639D01*
X527091Y53783D01*
X528744Y53340D01*
X530456D01*
X532109Y53783D01*
X533591Y54639D01*
X534801Y55849D01*
X535657Y57331D01*
X536100Y58984D01*
Y59705D01*
X536632Y59966D01*
X537370Y60095D01*
X538901Y58563D01*
X541106Y57650D01*
X543493D01*
X545699Y58563D01*
X547387Y60251D01*
X547963Y61642D01*
X549337D01*
X549913Y60251D01*
X551047Y59118D01*
Y53906D01*
X550952Y53851D01*
X549649Y52548D01*
X548727Y50952D01*
X548250Y49172D01*
Y47328D01*
X548727Y45548D01*
X549649Y43952D01*
X550002Y43598D01*
X549476Y42328D01*
X391439D01*
X371422Y62346D01*
Y79033D01*
X372691Y79373D01*
X373598Y77803D01*
X375553Y75848D01*
X377947Y74466D01*
X380618Y73750D01*
X383382D01*
X386053Y74466D01*
X388447Y75848D01*
X390402Y77803D01*
X391784Y80197D01*
X392500Y82868D01*
Y85632D01*
X391784Y88303D01*
X390402Y90697D01*
X388447Y92652D01*
X386053Y94034D01*
X383382Y94750D01*
X380618D01*
X377947Y94034D01*
X375553Y92652D01*
X373598Y90697D01*
X372691Y89127D01*
X371422Y89467D01*
Y110684D01*
X373717D01*
X375553Y108848D01*
X377947Y107466D01*
X380618Y106750D01*
X383382D01*
X386053Y107466D01*
X388447Y108848D01*
X390402Y110803D01*
X391784Y113197D01*
X392500Y115868D01*
Y118632D01*
X391784Y121303D01*
X390402Y123697D01*
X388447Y125652D01*
X386053Y127034D01*
X383382Y127750D01*
X380618D01*
X377947Y127034D01*
X375553Y125652D01*
X373598Y123697D01*
X372216Y121303D01*
X371556Y118841D01*
X353927D01*
X338884Y133884D01*
X337561Y134768D01*
X336000Y135078D01*
X336000Y135078D01*
X327750D01*
Y144000D01*
X301750D01*
Y118000D01*
X327750D01*
Y126922D01*
X334311D01*
X349354Y111879D01*
X350677Y110995D01*
X352237Y110684D01*
X352238Y110684D01*
X363265D01*
Y60657D01*
X363265Y60657D01*
X363575Y59096D01*
X364459Y57773D01*
X386866Y35366D01*
X386866Y35366D01*
X388189Y34482D01*
X389750Y34172D01*
X389750Y34172D01*
X578000D01*
X578000Y34172D01*
X579561Y34482D01*
X580884Y35366D01*
X641439Y95921D01*
X645922D01*
Y92000D01*
X641750D01*
Y78000D01*
X658250D01*
Y92000D01*
X654079D01*
Y95922D01*
X685000D01*
X686561Y96232D01*
X687884Y97116D01*
X688768Y98439D01*
X689078Y100000D01*
Y112920D01*
X698303D01*
Y127080D01*
X671697D01*
Y112920D01*
X680922D01*
Y104078D01*
X654078D01*
Y112920D01*
X663303D01*
Y127080D01*
X636697D01*
Y112920D01*
X645922D01*
Y104078D01*
X639750D01*
X639750Y104078D01*
X638189Y103768D01*
X636866Y102884D01*
X636866Y102884D01*
X596548Y62566D01*
X595561Y63375D01*
X596268Y64432D01*
X596578Y65993D01*
X596578Y65993D01*
Y121147D01*
X596268Y122708D01*
X595384Y124031D01*
X595384Y124031D01*
X593041Y126374D01*
X591718Y127258D01*
X590157Y127568D01*
X590157Y127568D01*
X586798D01*
Y128284D01*
X568828D01*
Y118696D01*
X586798D01*
Y119412D01*
X588422D01*
Y67682D01*
X587504Y66765D01*
X586457Y67491D01*
X586900Y69144D01*
Y70856D01*
X586457Y72509D01*
X585601Y73991D01*
X584391Y75201D01*
X582909Y76057D01*
X581256Y76500D01*
X579544D01*
X577891Y76057D01*
X576409Y75201D01*
X575199Y73991D01*
X575114Y73845D01*
X573931Y74335D01*
X574130Y75080D01*
X567700D01*
Y76350D01*
X566430D01*
Y82780D01*
X565176Y82444D01*
X563684Y81583D01*
X562467Y80366D01*
X561732Y79094D01*
X560963Y78993D01*
X560353Y79106D01*
X560087Y79749D01*
X559078Y80757D01*
Y135000D01*
X558768Y136561D01*
X557884Y137884D01*
X543994Y151774D01*
X542671Y152658D01*
X541110Y152968D01*
X541110Y152968D01*
X533712D01*
Y153684D01*
D02*
G37*
G36*
Y128284D02*
X515742D01*
Y118696D01*
X533712D01*
Y128284D01*
D02*
G37*
G36*
X433382Y127750D02*
X430618D01*
X427947Y127034D01*
X425553Y125652D01*
X423598Y123697D01*
X422216Y121303D01*
X421500Y118632D01*
Y115868D01*
X422216Y113197D01*
X423598Y110803D01*
X425553Y108848D01*
X427947Y107466D01*
X430618Y106750D01*
X433382D01*
X436053Y107466D01*
X438447Y108848D01*
X440402Y110803D01*
X441784Y113197D01*
X442500Y115868D01*
Y118632D01*
X441784Y121303D01*
X440402Y123697D01*
X438447Y125652D01*
X436053Y127034D01*
X433382Y127750D01*
D02*
G37*
G36*
X568970Y82780D02*
Y77620D01*
X574130D01*
X573794Y78874D01*
X572933Y80366D01*
X571716Y81583D01*
X570224Y82444D01*
X568970Y82780D01*
D02*
G37*
G36*
X433382Y94750D02*
X430618D01*
X427947Y94034D01*
X425553Y92652D01*
X423598Y90697D01*
X422216Y88303D01*
X421500Y85632D01*
Y82868D01*
X422216Y80197D01*
X423598Y77803D01*
X425553Y75848D01*
X427947Y74466D01*
X430618Y73750D01*
X433382D01*
X436053Y74466D01*
X438447Y75848D01*
X440402Y77803D01*
X441784Y80197D01*
X442500Y82868D01*
Y85632D01*
X441784Y88303D01*
X440402Y90697D01*
X438447Y92652D01*
X436053Y94034D01*
X433382Y94750D01*
D02*
G37*
G36*
X408382D02*
X405618D01*
X402947Y94034D01*
X400553Y92652D01*
X398598Y90697D01*
X397216Y88303D01*
X396500Y85632D01*
Y82868D01*
X397216Y80197D01*
X398598Y77803D01*
X400553Y75848D01*
X402947Y74466D01*
X405618Y73750D01*
X408382D01*
X411053Y74466D01*
X413447Y75848D01*
X415402Y77803D01*
X416784Y80197D01*
X417500Y82868D01*
Y85632D01*
X416784Y88303D01*
X415402Y90697D01*
X413447Y92652D01*
X411053Y94034D01*
X408382Y94750D01*
D02*
G37*
G36*
X734200Y66030D02*
X722930D01*
Y54760D01*
X723311D01*
X726500Y55615D01*
X729360Y57266D01*
X731694Y59600D01*
X733345Y62460D01*
X734200Y65649D01*
Y66030D01*
D02*
G37*
G36*
X720390D02*
X709120D01*
Y65649D01*
X709975Y62460D01*
X711625Y59600D01*
X713960Y57266D01*
X716820Y55615D01*
X720009Y54760D01*
X720390D01*
Y66030D01*
D02*
G37*
G36*
X658250Y72000D02*
X641750D01*
Y58000D01*
X646422D01*
Y53728D01*
X646202Y53601D01*
X644899Y52298D01*
X643977Y50702D01*
X643500Y48922D01*
Y47078D01*
X643977Y45298D01*
X644899Y43702D01*
X646202Y42399D01*
X647798Y41477D01*
X649578Y41000D01*
X651422D01*
X653202Y41477D01*
X654798Y42399D01*
X656101Y43702D01*
X657023Y45298D01*
X657500Y47078D01*
Y48922D01*
X657023Y50702D01*
X656101Y52298D01*
X654798Y53601D01*
X654578Y53728D01*
Y58000D01*
X658250D01*
Y72000D01*
D02*
G37*
%LPD*%
D18*
X280500Y595500D02*
X281729Y596729D01*
Y662879D02*
X287500Y668650D01*
X720750Y645250D02*
X720750Y645250D01*
X721500Y152000D02*
X721500Y152000D01*
X238750Y702250D02*
X238750Y702250D01*
D33*
X529600Y59840D02*
D03*
Y80160D02*
D03*
X580400Y70000D02*
D03*
D35*
X667877Y286000D02*
X681311Y272566D01*
X659750Y286000D02*
X667877D01*
X681311Y271000D02*
Y272566D01*
X611750Y287000D02*
X628750D01*
X611750Y262593D02*
Y287000D01*
Y305907D01*
X666553Y366000D02*
X671750Y360803D01*
X657000Y366000D02*
X666553D01*
X651500Y331750D02*
Y341267D01*
X635750Y316000D02*
X651500Y331750D01*
X629000Y316000D02*
X635750D01*
X624408Y320592D02*
X629000Y316000D01*
X654267Y341267D02*
X669407D01*
X652883Y339883D02*
X654267Y341267D01*
X671750Y343610D02*
Y360803D01*
X669407Y341267D02*
X671750Y343610D01*
X659000Y316000D02*
X683000D01*
X701500Y334500D01*
Y685807D01*
X603000Y338292D02*
X628525D01*
X631500Y341267D01*
X603000Y364250D02*
X625250D01*
X627000Y366000D01*
X580388Y320592D02*
X624408D01*
X658750Y258000D02*
Y260250D01*
X721500Y109772D02*
X737825D01*
X740300Y112248D01*
Y251313D01*
X731363Y260250D02*
X740300Y251313D01*
X658750Y260250D02*
X731363D01*
X614093D02*
X626500D01*
X628750Y258000D01*
X611750Y262593D02*
X614093Y260250D01*
X703843Y688150D02*
X721340D01*
X701500Y685807D02*
X703843Y688150D01*
X609407Y308250D02*
X611750Y305907D01*
X580746Y308250D02*
X609407D01*
X603000Y338292D02*
Y364250D01*
Y334750D02*
Y338292D01*
X474750Y393750D02*
X507050D01*
X461250Y380250D02*
X474750Y393750D01*
X461250Y346750D02*
Y380250D01*
X455500Y341000D02*
X461250Y346750D01*
X383500Y341000D02*
X455500D01*
X383500Y385000D02*
X436250D01*
Y408907D02*
X438593Y411250D01*
X599407D01*
X603000Y407657D01*
X436250Y385000D02*
Y408907D01*
X507050Y368500D02*
Y393750D01*
X436250Y354000D02*
Y385000D01*
X435250Y307892D02*
Y323000D01*
X436250Y324000D01*
X435250Y294000D02*
Y307892D01*
X419000Y262750D02*
X436500D01*
X390250Y291500D02*
X419000Y262750D01*
X435250Y294000D02*
X436500Y292750D01*
X284750Y291500D02*
X390250D01*
X257250Y264000D02*
X284750Y291500D01*
X257250Y198750D02*
Y264000D01*
Y198750D02*
X282500Y173500D01*
X350750D01*
X407000Y117250D01*
X768750Y370050D02*
Y420950D01*
X768500Y421200D02*
X768750Y420950D01*
X580388Y333292D02*
X601541D01*
X336000Y131000D02*
X352237Y114763D01*
X314750Y131000D02*
X336000D01*
X352237Y114763D02*
X367343D01*
Y60657D02*
Y114763D01*
X1123250Y407500D02*
X1197300D01*
X1043200Y407250D02*
X1093250D01*
X603000Y364250D02*
Y407657D01*
X601541Y333292D02*
X603000Y334750D01*
X722065Y708275D02*
X893500D01*
X524054Y272446D02*
X527352D01*
X515995Y280505D02*
Y292878D01*
X527352Y272446D02*
X528500Y271298D01*
X515995Y280505D02*
X524054Y272446D01*
X528500Y271298D02*
X544048D01*
X546750Y274000D01*
X515995Y292878D02*
X518338Y295221D01*
X530959D01*
X482750Y354750D02*
Y366157D01*
X485093Y368500D01*
X507050D01*
Y322935D02*
Y368500D01*
X721340Y707550D02*
X722065Y708275D01*
X893225Y89475D02*
X893500Y89750D01*
X721935Y89475D02*
X893225D01*
X721660Y89200D02*
X721935Y89475D01*
X367343Y60657D02*
X389750Y38250D01*
X367343Y114763D02*
X374169D01*
X379513D01*
X382000Y117250D01*
X389750Y38250D02*
X552500D01*
X578000D01*
X721500Y89360D02*
Y109772D01*
Y109772D02*
Y122000D01*
X568143Y63650D02*
X572543Y59250D01*
X585757D02*
X592500Y65993D01*
X572543Y59250D02*
X585757D01*
X567700Y63650D02*
X568143D01*
X592500Y65993D02*
Y121147D01*
X639750Y100000D02*
X650000D01*
X578000Y38250D02*
X639750Y100000D01*
X606733Y148890D02*
X619843Y162000D01*
X577813Y148890D02*
X606733D01*
X721340Y675840D02*
Y687750D01*
X720750Y675250D02*
X721340Y675840D01*
Y688150D02*
Y707550D01*
X363500Y212250D02*
Y228000D01*
X363500Y228000D02*
X363500Y228000D01*
X650000Y100000D02*
X685000D01*
X650000Y85000D02*
Y100000D01*
X650000Y100000D02*
Y120000D01*
X685000Y100000D02*
Y120000D01*
X509393Y320592D02*
X530988D01*
X507050Y322935D02*
X509393Y320592D01*
X564500Y353250D02*
X581000D01*
X564250Y353500D02*
X564500Y353250D01*
X564250Y353500D02*
Y354750D01*
X650000Y65000D02*
X650500Y64500D01*
Y48000D02*
Y64500D01*
X647657Y162000D02*
X650000Y159657D01*
X619843Y162000D02*
X647657D01*
X650000Y150000D02*
Y159657D01*
X238500Y718250D02*
X252250Y732000D01*
X285157D01*
X195238Y718250D02*
X238500D01*
X193750Y716762D02*
X195238Y718250D01*
X193750Y702250D02*
Y716762D01*
X287500Y711350D02*
Y729657D01*
X285157Y732000D02*
X287500Y729657D01*
X555125Y48375D02*
X555250Y48250D01*
X555000Y63650D02*
X555125Y63525D01*
Y48375D02*
Y63525D01*
X238500Y718250D02*
X238750Y718000D01*
Y702250D02*
Y718000D01*
X658750Y287000D02*
X659750Y286000D01*
X721000Y152500D02*
X721500Y152000D01*
X721000Y152500D02*
Y167500D01*
X720750Y627750D02*
X720750Y627750D01*
Y645250D01*
X396000Y217250D02*
Y227250D01*
X391000Y212250D02*
X396000Y217250D01*
X363500Y212250D02*
X391000D01*
X326250Y210650D02*
X327850Y212250D01*
X512843Y161545D02*
X524682D01*
X510500Y163888D02*
X512843Y161545D01*
X510500Y172750D02*
X522500Y184750D01*
X510500Y163888D02*
Y172750D01*
X522500Y184750D02*
X522750Y185000D01*
X435250Y307892D02*
X435250Y307892D01*
X483500D01*
Y293750D02*
Y307892D01*
X482250Y292500D02*
X483500Y293750D01*
X596500Y267593D02*
Y292848D01*
X583250Y265250D02*
X594157D01*
X596500Y267593D01*
X483500Y307892D02*
Y324000D01*
X482750Y324750D02*
X483500Y324000D01*
Y307892D02*
X530988D01*
X594157Y295191D02*
X596500Y292848D01*
X580388Y295191D02*
X594157D01*
X530959Y295221D02*
X530988Y295191D01*
X580388Y307892D02*
X580746Y308250D01*
X524682Y161545D02*
X524727Y161590D01*
X522750Y185000D02*
X540000D01*
X540000Y185000D01*
X280500Y595500D02*
Y600843D01*
X524727Y148890D02*
X541110D01*
X555000Y76350D02*
Y135000D01*
X541110Y148890D02*
X555000Y135000D01*
X509843Y70000D02*
X535950D01*
X507500Y72343D02*
X509843Y70000D01*
X507500Y132500D02*
X511190Y136190D01*
X507500Y72343D02*
Y132500D01*
X577813Y123490D02*
X590157D01*
X592500Y121147D01*
X535950Y70000D02*
X542300Y63650D01*
X511190Y136190D02*
X524727D01*
X685000Y150000D02*
Y167500D01*
X721500Y152000D02*
X721500Y152000D01*
D36*
X893225Y89475D02*
D03*
X314750Y131000D02*
D03*
X383500Y341000D02*
D03*
Y385000D02*
D03*
X1110000Y230000D02*
D03*
D37*
X816000Y610750D02*
D03*
Y643750D02*
D03*
X791000D02*
D03*
X766000D02*
D03*
Y610750D02*
D03*
X791000D02*
D03*
X432000Y84250D02*
D03*
Y117250D02*
D03*
X407000D02*
D03*
X382000D02*
D03*
Y84250D02*
D03*
X407000D02*
D03*
X1222950Y407750D02*
D03*
D38*
X721340Y707550D02*
D03*
Y732950D02*
D03*
X721660Y67300D02*
D03*
Y92700D02*
D03*
D39*
X888450Y445350D02*
D03*
Y419950D02*
D03*
Y394550D02*
D03*
Y369150D02*
D03*
X809050D02*
D03*
Y394550D02*
D03*
Y419950D02*
D03*
D40*
Y445350D02*
D03*
D41*
X229750Y258250D02*
D03*
X280750D02*
D03*
X229750Y207250D02*
D03*
X280750D02*
D03*
X229500Y595500D02*
D03*
X280500D02*
D03*
X229500Y544500D02*
D03*
X280500D02*
D03*
X229500Y425500D02*
D03*
X280500D02*
D03*
X229500Y374500D02*
D03*
X280500D02*
D03*
D42*
X1220000Y720000D02*
D03*
X80000D02*
D03*
Y80000D02*
D03*
X1220000D02*
D03*
D43*
X1197550Y407750D02*
D03*
D44*
X893500Y708275D02*
D03*
X654745Y516249D02*
D03*
X581750Y516250D02*
D03*
X505745Y516249D02*
D03*
X655000Y230000D02*
D03*
X580000D02*
D03*
X500000D02*
D03*
X1115000Y516250D02*
D03*
X1045000D02*
D03*
Y230000D02*
D03*
D45*
X728500Y344400D02*
D03*
Y293600D02*
D03*
X823850Y332250D02*
D03*
X874650D02*
D03*
D46*
X532450Y393750D02*
D03*
X1043200Y407250D02*
D03*
D47*
X507050Y393750D02*
D03*
X1017800Y407250D02*
D03*
D48*
X769000Y268200D02*
D03*
Y369800D02*
D03*
X636950Y393500D02*
D03*
X738550D02*
D03*
X768500Y522800D02*
D03*
Y421200D02*
D03*
X873700Y626500D02*
D03*
X975300D02*
D03*
D49*
X681311Y271000D02*
D03*
X528500Y271298D02*
D03*
X581000Y353250D02*
D03*
X650500Y48000D02*
D03*
X555250Y48250D02*
D03*
X238500Y718250D02*
D03*
X721000Y167500D02*
D03*
X720750Y627750D02*
D03*
X685000Y167500D02*
D03*
X363500Y212250D02*
D03*
X522500Y184750D02*
D03*
D50*
X657000Y366000D02*
D03*
X627000D02*
D03*
X659000Y316000D02*
D03*
X629000D02*
D03*
X658750Y258000D02*
D03*
X628750D02*
D03*
X1093250Y407500D02*
D03*
X1123250D02*
D03*
X658750Y287000D02*
D03*
X628750D02*
D03*
D51*
X482750Y324750D02*
D03*
Y354750D02*
D03*
X482250Y262500D02*
D03*
Y292500D02*
D03*
X720750Y645250D02*
D03*
Y675250D02*
D03*
X436250Y354000D02*
D03*
Y324000D02*
D03*
X436500Y262750D02*
D03*
Y292750D02*
D03*
X721500Y152000D02*
D03*
Y122000D02*
D03*
X650000Y120000D02*
D03*
Y150000D02*
D03*
X685000D02*
D03*
Y120000D02*
D03*
D52*
X524727Y161590D02*
D03*
Y148890D02*
D03*
Y136190D02*
D03*
Y123490D02*
D03*
X577813D02*
D03*
Y136190D02*
D03*
Y148890D02*
D03*
Y161590D02*
D03*
D53*
X193750Y702250D02*
D03*
Y682250D02*
D03*
X650000Y85000D02*
D03*
Y65000D02*
D03*
X396000Y227250D02*
D03*
Y247250D02*
D03*
X238750Y702250D02*
D03*
Y682250D02*
D03*
X363500Y248000D02*
D03*
Y228000D02*
D03*
D54*
X546750Y274000D02*
D03*
X566750D02*
D03*
X564250Y353500D02*
D03*
X544250D02*
D03*
X560000Y185000D02*
D03*
X540000D02*
D03*
X631500Y341267D02*
D03*
X651500D02*
D03*
D55*
X287500Y668650D02*
D03*
Y711350D02*
D03*
X326250Y210650D02*
D03*
Y253350D02*
D03*
D56*
X530988Y333292D02*
D03*
Y320592D02*
D03*
Y307892D02*
D03*
Y295191D02*
D03*
X580388D02*
D03*
Y307892D02*
D03*
Y320592D02*
D03*
Y333292D02*
D03*
D57*
X542300Y76350D02*
D03*
X567700Y63650D02*
D03*
Y76350D02*
D03*
X555000Y63650D02*
D03*
X542300D02*
D03*
X555000Y76350D02*
D03*
D58*
X363500Y248000D02*
X363750Y248250D01*
Y277750D01*
X327850Y212250D02*
X363500D01*
X363750Y277750D02*
X382250D01*
X396000Y247250D02*
Y264000D01*
X382250Y277750D02*
X396000Y264000D01*
X396000Y247250D02*
X396000Y247250D01*
X396440Y246810D02*
X401724D01*
X396000Y247250D02*
X396440Y246810D01*
X402904Y247250D02*
X578787D01*
X402093Y246440D02*
X402904Y247250D01*
X401724Y246810D02*
X402093Y246440D01*
X578787Y247250D02*
X583250Y251714D01*
Y265250D01*
X482250Y248500D02*
Y262500D01*
X583250Y265250D02*
Y269536D01*
X578787Y274000D02*
X583250Y269536D01*
X566750Y274000D02*
X578787D01*
X326250Y253350D02*
Y277750D01*
X280750Y258250D02*
X300250Y277750D01*
X326250D01*
X363750D01*
M02*
