G04*
G04 #@! TF.GenerationSoftware,Altium Limited,Altium Designer,24.1.2 (44)*
G04*
G04 Layer_Color=16777215*
%FSLAX44Y44*%
%MOMM*%
G71*
G04*
G04 #@! TF.SameCoordinates,C4B2C0E0-4E9B-487C-9046-04FF2B3DFFC7*
G04*
G04*
G04 #@! TF.FilePolarity,Positive*
G04*
G01*
G75*
%ADD13C,0.1000*%
%ADD70C,0.0254*%
D13*
X250250Y232750D02*
X260250D01*
X255250Y227750D02*
Y237750D01*
X250000Y570000D02*
X260000D01*
X255000Y565000D02*
Y575000D01*
X250000Y400000D02*
X260000D01*
X255000Y395000D02*
Y405000D01*
D70*
X894635Y89475D02*
G03*
X894635Y89475I-1410J0D01*
G01*
X316160Y131000D02*
G03*
X316160Y131000I-1410J0D01*
G01*
X384910Y341000D02*
G03*
X384910Y341000I-1410J0D01*
G01*
Y385000D02*
G03*
X384910Y385000I-1410J0D01*
G01*
X894910Y708275D02*
G03*
X894910Y708275I-1410J0D01*
G01*
X729910Y319000D02*
G03*
X729910Y319000I-1410J0D01*
G01*
X521160Y393750D02*
G03*
X521160Y393750I-1410J0D01*
G01*
X770410Y319000D02*
G03*
X770410Y319000I-1410J0D01*
G01*
X556410Y70000D02*
G03*
X556410Y70000I-1410J0D01*
G01*
X1031910Y407250D02*
G03*
X1031910Y407250I-1410J0D01*
G01*
X656155Y516249D02*
G03*
X656155Y516249I-1410J0D01*
G01*
X583160Y516250D02*
G03*
X583160Y516250I-1410J0D01*
G01*
X507155Y516249D02*
G03*
X507155Y516249I-1410J0D01*
G01*
X656410Y230000D02*
G03*
X656410Y230000I-1410J0D01*
G01*
X581410D02*
G03*
X581410Y230000I-1410J0D01*
G01*
X501410D02*
G03*
X501410Y230000I-1410J0D01*
G01*
X1116410Y516250D02*
G03*
X1116410Y516250I-1410J0D01*
G01*
X1046410D02*
G03*
X1046410Y516250I-1410J0D01*
G01*
Y230000D02*
G03*
X1046410Y230000I-1410J0D01*
G01*
X1111410D02*
G03*
X1111410Y230000I-1410J0D01*
G01*
X689160Y393500D02*
G03*
X689160Y393500I-1410J0D01*
G01*
X769910Y472000D02*
G03*
X769910Y472000I-1410J0D01*
G01*
X925910Y626500D02*
G03*
X925910Y626500I-1410J0D01*
G01*
X850660Y332250D02*
G03*
X850660Y332250I-1410J0D01*
G01*
X891225Y89475D02*
X895225D01*
X893225Y87475D02*
Y91475D01*
Y87475D02*
Y91475D01*
X891225Y89475D02*
X895225D01*
X312750Y131000D02*
X316750D01*
X314750Y129000D02*
Y133000D01*
Y129000D02*
Y133000D01*
X312750Y131000D02*
X316750D01*
X381500Y341000D02*
X385500D01*
X383500Y339000D02*
Y343000D01*
Y339000D02*
Y343000D01*
X381500Y341000D02*
X385500D01*
X381500Y385000D02*
X385500D01*
X383500Y383000D02*
Y387000D01*
Y383000D02*
Y387000D01*
X381500Y385000D02*
X385500D01*
X893500Y706275D02*
Y710275D01*
X891500Y708275D02*
X895500D01*
X891500D02*
X895500D01*
X893500Y706275D02*
Y710275D01*
X726500Y319000D02*
X730500D01*
X728500Y317000D02*
Y321000D01*
Y317000D02*
Y321000D01*
X726500Y319000D02*
X730500D01*
X519750Y391750D02*
Y395750D01*
X517750Y393750D02*
X521750D01*
X769000Y317000D02*
Y321000D01*
X767000Y319000D02*
X771000D01*
X767000D02*
X771000D01*
X769000Y317000D02*
Y321000D01*
X555000Y68000D02*
Y72000D01*
X553000Y70000D02*
X557000D01*
X553000D02*
X557000D01*
X555000Y68000D02*
Y72000D01*
X1028500Y407250D02*
X1032500D01*
X1030500Y405250D02*
Y409250D01*
X654745Y514249D02*
Y518249D01*
X652745Y516249D02*
X656745D01*
X652745D02*
X656745D01*
X654745Y514249D02*
Y518249D01*
X581750Y514250D02*
Y518250D01*
X579750Y516250D02*
X583750D01*
X579750D02*
X583750D01*
X581750Y514250D02*
Y518250D01*
X505745Y514249D02*
Y518249D01*
X503745Y516249D02*
X507745D01*
X503745D02*
X507745D01*
X505745Y514249D02*
Y518249D01*
X655000Y228000D02*
Y232000D01*
X653000Y230000D02*
X657000D01*
X653000D02*
X657000D01*
X655000Y228000D02*
Y232000D01*
X580000Y228000D02*
Y232000D01*
X578000Y230000D02*
X582000D01*
X578000D02*
X582000D01*
X580000Y228000D02*
Y232000D01*
X500000Y228000D02*
Y232000D01*
X498000Y230000D02*
X502000D01*
X498000D02*
X502000D01*
X500000Y228000D02*
Y232000D01*
X1115000Y514250D02*
Y518250D01*
X1113000Y516250D02*
X1117000D01*
X1113000D02*
X1117000D01*
X1115000Y514250D02*
Y518250D01*
X1045000Y514250D02*
Y518250D01*
X1043000Y516250D02*
X1047000D01*
X1043000D02*
X1047000D01*
X1045000Y514250D02*
Y518250D01*
Y228000D02*
Y232000D01*
X1043000Y230000D02*
X1047000D01*
X1043000D02*
X1047000D01*
X1045000Y228000D02*
Y232000D01*
X1108000Y230000D02*
X1112000D01*
X1110000Y228000D02*
Y232000D01*
Y228000D02*
Y232000D01*
X1108000Y230000D02*
X1112000D01*
X685750Y393500D02*
X689750D01*
X687750Y391500D02*
Y395500D01*
Y391500D02*
Y395500D01*
X685750Y393500D02*
X689750D01*
X768500Y470000D02*
Y474000D01*
X766500Y472000D02*
X770500D01*
X766500D02*
X770500D01*
X768500Y470000D02*
Y474000D01*
X922500Y626500D02*
X926500D01*
X924500Y624500D02*
Y628500D01*
Y624500D02*
Y628500D01*
X922500Y626500D02*
X926500D01*
X849250Y330250D02*
Y334250D01*
X847250Y332250D02*
X851250D01*
X847250D02*
X851250D01*
X849250Y330250D02*
Y334250D01*
M02*
