G04*
G04 #@! TF.GenerationSoftware,Altium Limited,Altium Designer,24.1.2 (44)*
G04*
G04 Layer_Color=44716*
%FSLAX44Y44*%
%MOMM*%
G71*
G04*
G04 #@! TF.SameCoordinates,C4B2C0E0-4E9B-487C-9046-04FF2B3DFFC7*
G04*
G04*
G04 #@! TF.FilePolarity,Positive*
G04*
G01*
G75*
%ADD10C,0.2000*%
%ADD11C,0.1270*%
%ADD13C,0.1000*%
%ADD70C,0.0254*%
%ADD71C,0.0000*%
D10*
X288500Y652000D02*
G03*
X288500Y652000I-1000J0D01*
G01*
X327250Y194000D02*
G03*
X327250Y194000I-1000J0D01*
G01*
X597088Y337291D02*
G03*
X597088Y337291I-1000J0D01*
G01*
D11*
X300525Y664025D02*
Y715975D01*
X274475D02*
X300525D01*
X274475Y664025D02*
Y715975D01*
Y664025D02*
X300525D01*
X339275Y206025D02*
Y257975D01*
X313225D02*
X339275D01*
X313225Y206025D02*
Y257975D01*
Y206025D02*
X339275D01*
X536188Y289716D02*
Y338767D01*
X575188Y289716D02*
Y338767D01*
X536188Y289716D02*
X575188D01*
X536188Y338767D02*
X575188D01*
D13*
X520000Y62000D02*
G03*
X530000Y52000I10000J0D01*
G01*
X566000D02*
G03*
X571300Y53520I0J10000D01*
G01*
X586113Y61837D02*
G03*
X586111Y78160I-5671J8161D01*
G01*
X530000Y88000D02*
G03*
X520000Y78000I0J-10000D01*
G01*
X571300Y86480D02*
G03*
X566000Y88000I-5300J-8480D01*
G01*
X879225Y75475D02*
Y103475D01*
X907225Y75475D02*
Y103475D01*
X879225D02*
X907225D01*
X879225Y75475D02*
X907225D01*
X625250Y357000D02*
X659250D01*
X625250Y374500D02*
X659250D01*
X625250Y357000D02*
Y374500D01*
X659250Y357000D02*
Y374500D01*
X473750Y322500D02*
Y356500D01*
X491250Y322500D02*
Y356500D01*
X473750D02*
X491250D01*
X473750Y322500D02*
X491250D01*
X473250Y260250D02*
Y294250D01*
X490750Y260250D02*
Y294250D01*
X473250D02*
X490750D01*
X473250Y260250D02*
X490750D01*
X711750Y643000D02*
Y677000D01*
X729250Y643000D02*
Y677000D01*
X711750D02*
X729250D01*
X711750Y643000D02*
X729250D01*
X627250Y307000D02*
X661250D01*
X627250Y324500D02*
X661250D01*
X627250Y307000D02*
Y324500D01*
X661250Y307000D02*
Y324500D01*
X445250Y322250D02*
Y356250D01*
X427750Y322250D02*
Y356250D01*
Y322250D02*
X445250D01*
X427750Y356250D02*
X445250D01*
X627000Y249000D02*
X661000D01*
X627000Y266500D02*
X661000D01*
X627000Y249000D02*
Y266500D01*
X661000Y249000D02*
Y266500D01*
X1091000Y416500D02*
X1125000D01*
X1091000Y399000D02*
X1125000D01*
Y416500D01*
X1091000Y399000D02*
Y416500D01*
X627000Y278000D02*
X661000D01*
X627000Y295500D02*
X661000D01*
X627000Y278000D02*
Y295500D01*
X661000Y278000D02*
Y295500D01*
X427500Y260500D02*
Y294500D01*
X445000Y260500D02*
Y294500D01*
X427500D02*
X445000D01*
X427500Y260500D02*
X445000D01*
X730500Y120250D02*
Y154250D01*
X713000Y120250D02*
Y154250D01*
Y120250D02*
X730500D01*
X713000Y154250D02*
X730500D01*
X641000Y117750D02*
Y151750D01*
X658500Y117750D02*
Y151750D01*
X641000D02*
X658500D01*
X641000Y117750D02*
X658500D01*
X694000Y118250D02*
Y152250D01*
X676500Y118250D02*
Y152250D01*
Y118250D02*
X694000D01*
X676500Y152250D02*
X694000D01*
X187550Y702250D02*
X199950D01*
X187550Y682250D02*
X199950D01*
X187550D02*
Y702250D01*
X199950Y682250D02*
Y702250D01*
X546750Y267800D02*
Y280200D01*
X566750Y267800D02*
Y280200D01*
X546750Y267800D02*
X566750D01*
X546750Y280200D02*
X566750D01*
X564250Y347300D02*
Y359700D01*
X544250Y347300D02*
Y359700D01*
X564250D01*
X544250Y347300D02*
X564250D01*
X560000Y178800D02*
Y191200D01*
X540000Y178800D02*
Y191200D01*
X560000D01*
X540000Y178800D02*
X560000D01*
X643800Y85000D02*
X656200D01*
X643800Y65000D02*
X656200D01*
X643800D02*
Y85000D01*
X656200Y65000D02*
Y85000D01*
X389800Y227250D02*
X402200D01*
X389800Y247250D02*
X402200D01*
Y227250D02*
Y247250D01*
X389800Y227250D02*
Y247250D01*
X631500Y335066D02*
Y347466D01*
X651500Y335066D02*
Y347466D01*
X631500Y335066D02*
X651500D01*
X631500Y347466D02*
X651500D01*
X232550Y682250D02*
Y702250D01*
X244950Y682250D02*
Y702250D01*
X232550D02*
X244950D01*
X232550Y682250D02*
X244950D01*
X357300Y228000D02*
Y248000D01*
X369700Y228000D02*
Y248000D01*
X357300D02*
X369700D01*
X357300Y228000D02*
X369700D01*
X300750Y117000D02*
X328750D01*
X300750Y145000D02*
X328750D01*
Y117000D02*
Y145000D01*
X300750Y117000D02*
Y145000D01*
X369500Y327000D02*
X397500D01*
X369500Y355000D02*
X397500D01*
Y327000D02*
Y355000D01*
X369500Y327000D02*
Y355000D01*
Y371000D02*
X397500D01*
X369500Y399000D02*
X397500D01*
Y371000D02*
Y399000D01*
X369500Y371000D02*
Y399000D01*
X907500Y694275D02*
Y722275D01*
X879500Y694275D02*
Y722275D01*
X907500D01*
X879500Y694275D02*
X907500D01*
X520000Y62000D02*
Y78000D01*
X530000Y52000D02*
X566000Y52000D01*
X571300Y53520D02*
X586111Y61840D01*
X571300Y86480D02*
X586111Y78160D01*
X530000Y88000D02*
X566000D01*
X931500Y126497D02*
X924836D01*
X928168D01*
Y116500D01*
X921503D02*
Y126497D01*
X916505D01*
X914839Y124831D01*
Y121498D01*
X916505Y119832D01*
X921503D01*
X911506Y116500D02*
X908174D01*
X909840D01*
Y126497D01*
X911506Y124831D01*
X898177Y116500D02*
Y126497D01*
X903176Y121498D01*
X896511D01*
X447750Y334750D02*
Y344747D01*
X442752D01*
X441086Y343081D01*
Y339748D01*
X442752Y338082D01*
X447750D01*
X444418D02*
X441086Y334750D01*
X437753D02*
X434421D01*
X436087D01*
Y344747D01*
X437753Y343081D01*
X429423D02*
X427756Y344747D01*
X424424D01*
X422758Y343081D01*
Y336416D01*
X424424Y334750D01*
X427756D01*
X429423Y336416D01*
Y343081D01*
X447250Y235000D02*
Y244997D01*
X442252D01*
X440586Y243331D01*
Y239998D01*
X442252Y238332D01*
X447250D01*
X443918D02*
X440586Y235000D01*
X437253D02*
X433921D01*
X435587D01*
Y244997D01*
X437253Y243331D01*
X423924Y235000D02*
Y244997D01*
X428923Y239998D01*
X422258D01*
X288000Y137234D02*
X281336D01*
X284668D01*
Y127237D01*
X278003D02*
Y137234D01*
X273005D01*
X271339Y135568D01*
Y132236D01*
X273005Y130570D01*
X278003D01*
X268006Y127237D02*
X264674D01*
X266340D01*
Y137234D01*
X268006Y135568D01*
X253011Y137234D02*
X259676D01*
Y132236D01*
X256343Y133902D01*
X254677D01*
X253011Y132236D01*
Y128904D01*
X254677Y127237D01*
X258010D01*
X259676Y128904D01*
X355250Y350747D02*
X348586D01*
X351918D01*
Y340750D01*
X345253D02*
Y350747D01*
X340255D01*
X338589Y349081D01*
Y345748D01*
X340255Y344082D01*
X345253D01*
X335256Y340750D02*
X331924D01*
X333590D01*
Y350747D01*
X335256Y349081D01*
X326926D02*
X325260Y350747D01*
X321927D01*
X320261Y349081D01*
Y347415D01*
X321927Y345748D01*
X323593D01*
X321927D01*
X320261Y344082D01*
Y342416D01*
X321927Y340750D01*
X325260D01*
X326926Y342416D01*
X359750Y391747D02*
X353086D01*
X356418D01*
Y381750D01*
X349753D02*
Y391747D01*
X344755D01*
X343089Y390081D01*
Y386748D01*
X344755Y385082D01*
X349753D01*
X339756Y381750D02*
X336424D01*
X338090D01*
Y391747D01*
X339756Y390081D01*
X324761Y381750D02*
X331426D01*
X324761Y388414D01*
Y390081D01*
X326427Y391747D01*
X329760D01*
X331426Y390081D01*
X946750Y713247D02*
X940086D01*
X943418D01*
Y703250D01*
X936753D02*
Y713247D01*
X931755D01*
X930089Y711581D01*
Y708248D01*
X931755Y706582D01*
X936753D01*
X926756Y703250D02*
X923424D01*
X925090D01*
Y713247D01*
X926756Y711581D01*
X918426Y703250D02*
X915094D01*
X916760D01*
Y713247D01*
X918426Y711581D01*
X679335Y344397D02*
X681002Y346063D01*
X684334D01*
X686000Y344397D01*
Y337733D01*
X684334Y336067D01*
X681002D01*
X679335Y337733D01*
X676003Y344397D02*
X674337Y346063D01*
X671005D01*
X669339Y344397D01*
Y342731D01*
X671005Y341065D01*
X669339Y339399D01*
Y337733D01*
X671005Y336067D01*
X674337D01*
X676003Y337733D01*
Y339399D01*
X674337Y341065D01*
X676003Y342731D01*
Y344397D01*
X674337Y341065D02*
X671005D01*
X691750Y363250D02*
Y373247D01*
X686752D01*
X685086Y371581D01*
Y368248D01*
X686752Y366582D01*
X691750D01*
X688418D02*
X685086Y363250D01*
X675089Y373247D02*
X681753D01*
Y368248D01*
X678421Y369915D01*
X676755D01*
X675089Y368248D01*
Y364916D01*
X676755Y363250D01*
X680087D01*
X681753Y364916D01*
X490750Y334500D02*
Y344497D01*
X485752D01*
X484086Y342831D01*
Y339498D01*
X485752Y337832D01*
X490750D01*
X487418D02*
X484086Y334500D01*
X474089Y344497D02*
X477421Y342831D01*
X480753Y339498D01*
Y336166D01*
X479087Y334500D01*
X475755D01*
X474089Y336166D01*
Y337832D01*
X475755Y339498D01*
X480753D01*
X488250Y273000D02*
Y282997D01*
X483252D01*
X481586Y281331D01*
Y277998D01*
X483252Y276332D01*
X488250D01*
X484918D02*
X481586Y273000D01*
X478253Y282997D02*
X471589D01*
Y281331D01*
X478253Y274666D01*
Y273000D01*
X695750Y658000D02*
Y667997D01*
X690752D01*
X689085Y666331D01*
Y662998D01*
X690752Y661332D01*
X695750D01*
X692418D02*
X689085Y658000D01*
X685753Y666331D02*
X684087Y667997D01*
X680755D01*
X679089Y666331D01*
Y664665D01*
X680755Y662998D01*
X679089Y661332D01*
Y659666D01*
X680755Y658000D01*
X684087D01*
X685753Y659666D01*
Y661332D01*
X684087Y662998D01*
X685753Y664665D01*
Y666331D01*
X684087Y662998D02*
X680755D01*
X700500Y317000D02*
Y326997D01*
X695502D01*
X693836Y325331D01*
Y321998D01*
X695502Y320332D01*
X700500D01*
X697168D02*
X693836Y317000D01*
X690503Y318666D02*
X688837Y317000D01*
X685505D01*
X683839Y318666D01*
Y325331D01*
X685505Y326997D01*
X688837D01*
X690503Y325331D01*
Y323665D01*
X688837Y321998D01*
X683839D01*
X655000Y254250D02*
Y264247D01*
X650002D01*
X648335Y262581D01*
Y259248D01*
X650002Y257582D01*
X655000D01*
X651668D02*
X648335Y254250D01*
X645003D02*
X641671D01*
X643337D01*
Y264247D01*
X645003Y262581D01*
X636673Y254250D02*
X633340D01*
X635006D01*
Y264247D01*
X636673Y262581D01*
X1124500Y429750D02*
Y439747D01*
X1119502D01*
X1117835Y438081D01*
Y434748D01*
X1119502Y433082D01*
X1124500D01*
X1121168D02*
X1117835Y429750D01*
X1114503D02*
X1111171D01*
X1112837D01*
Y439747D01*
X1114503Y438081D01*
X1099508Y429750D02*
X1106173D01*
X1099508Y436414D01*
Y438081D01*
X1101174Y439747D01*
X1104507D01*
X1106173Y438081D01*
X710750Y287750D02*
Y297747D01*
X705752D01*
X704085Y296081D01*
Y292748D01*
X705752Y291082D01*
X710750D01*
X707418D02*
X704085Y287750D01*
X700753D02*
X697421D01*
X699087D01*
Y297747D01*
X700753Y296081D01*
X692423D02*
X690757Y297747D01*
X687424D01*
X685758Y296081D01*
Y294415D01*
X687424Y292748D01*
X689090D01*
X687424D01*
X685758Y291082D01*
Y289416D01*
X687424Y287750D01*
X690757D01*
X692423Y289416D01*
X733500Y133500D02*
Y143497D01*
X728502D01*
X726835Y141831D01*
Y138498D01*
X728502Y136832D01*
X733500D01*
X730168D02*
X726835Y133500D01*
X723503D02*
X720171D01*
X721837D01*
Y143497D01*
X723503Y141831D01*
X708508Y143497D02*
X715173D01*
Y138498D01*
X711840Y140164D01*
X710174D01*
X708508Y138498D01*
Y135166D01*
X710174Y133500D01*
X713506D01*
X715173Y135166D01*
X663000Y162750D02*
Y172747D01*
X658002D01*
X656336Y171081D01*
Y167748D01*
X658002Y166082D01*
X663000D01*
X659668D02*
X656336Y162750D01*
X653003D02*
X649671D01*
X651337D01*
Y172747D01*
X653003Y171081D01*
X638008Y172747D02*
X641340Y171081D01*
X644673Y167748D01*
Y164416D01*
X643006Y162750D01*
X639674D01*
X638008Y164416D01*
Y166082D01*
X639674Y167748D01*
X644673D01*
X694250Y92000D02*
Y101997D01*
X689252D01*
X687586Y100331D01*
Y96998D01*
X689252Y95332D01*
X694250D01*
X690918D02*
X687586Y92000D01*
X684253D02*
X680921D01*
X682587D01*
Y101997D01*
X684253Y100331D01*
X675923Y93666D02*
X674256Y92000D01*
X670924D01*
X669258Y93666D01*
Y100331D01*
X670924Y101997D01*
X674256D01*
X675923Y100331D01*
Y98665D01*
X674256Y96998D01*
X669258D01*
X505000Y147997D02*
Y138000D01*
Y141332D01*
X498335Y147997D01*
X503334Y142998D01*
X498335Y138000D01*
X495003Y146331D02*
X493337Y147997D01*
X490005D01*
X488339Y146331D01*
Y144664D01*
X490005Y142998D01*
X491671D01*
X490005D01*
X488339Y141332D01*
Y139666D01*
X490005Y138000D01*
X493337D01*
X495003Y139666D01*
X198085Y667831D02*
X199752Y669497D01*
X203084D01*
X204750Y667831D01*
Y661166D01*
X203084Y659500D01*
X199752D01*
X198085Y661166D01*
X194753Y659500D02*
X191421D01*
X193087D01*
Y669497D01*
X194753Y667831D01*
X186423Y659500D02*
X183090D01*
X184757D01*
Y669497D01*
X186423Y667831D01*
X562085Y259831D02*
X563752Y261497D01*
X567084D01*
X568750Y259831D01*
Y253166D01*
X567084Y251500D01*
X563752D01*
X562085Y253166D01*
X558753Y251500D02*
X555421D01*
X557087D01*
Y261497D01*
X558753Y259831D01*
X550423D02*
X548756Y261497D01*
X545424D01*
X543758Y259831D01*
Y253166D01*
X545424Y251500D01*
X548756D01*
X550423Y253166D01*
Y259831D01*
X559336Y377581D02*
X561002Y379247D01*
X564334D01*
X566000Y377581D01*
Y370916D01*
X564334Y369250D01*
X561002D01*
X559336Y370916D01*
X551005Y369250D02*
Y379247D01*
X556003Y374248D01*
X549339D01*
X553835Y206581D02*
X555502Y208247D01*
X558834D01*
X560500Y206581D01*
Y199916D01*
X558834Y198250D01*
X555502D01*
X553835Y199916D01*
X543839Y208247D02*
X547171Y206581D01*
X550503Y203248D01*
Y199916D01*
X548837Y198250D01*
X545505D01*
X543839Y199916D01*
Y201582D01*
X545505Y203248D01*
X550503D01*
X630336Y77581D02*
X632002Y79247D01*
X635334D01*
X637000Y77581D01*
Y70916D01*
X635334Y69250D01*
X632002D01*
X630336Y70916D01*
X627003Y79247D02*
X620339D01*
Y77581D01*
X627003Y70916D01*
Y69250D01*
X399585Y214581D02*
X401252Y216247D01*
X404584D01*
X406250Y214581D01*
Y207916D01*
X404584Y206250D01*
X401252D01*
X399585Y207916D01*
X389589Y216247D02*
X396253D01*
Y211248D01*
X392921Y212915D01*
X391255D01*
X389589Y211248D01*
Y207916D01*
X391255Y206250D01*
X394587D01*
X396253Y207916D01*
X243335Y665581D02*
X245002Y667247D01*
X248334D01*
X250000Y665581D01*
Y658916D01*
X248334Y657250D01*
X245002D01*
X243335Y658916D01*
X240003D02*
X238337Y657250D01*
X235005D01*
X233339Y658916D01*
Y665581D01*
X235005Y667247D01*
X238337D01*
X240003Y665581D01*
Y663914D01*
X238337Y662248D01*
X233339D01*
X365085Y276331D02*
X366752Y277997D01*
X370084D01*
X371750Y276331D01*
Y269666D01*
X370084Y268000D01*
X366752D01*
X365085Y269666D01*
X361753Y276331D02*
X360087Y277997D01*
X356755D01*
X355089Y276331D01*
Y274664D01*
X356755Y272998D01*
X358421D01*
X356755D01*
X355089Y271332D01*
Y269666D01*
X356755Y268000D01*
X360087D01*
X361753Y269666D01*
X325750Y691997D02*
Y682000D01*
X320752D01*
X319086Y683666D01*
Y690331D01*
X320752Y691997D01*
X325750D01*
X315753Y682000D02*
X312421D01*
X314087D01*
Y691997D01*
X315753Y690331D01*
X335250Y282997D02*
Y273000D01*
X330252D01*
X328586Y274666D01*
Y281331D01*
X330252Y282997D01*
X335250D01*
X318589Y273000D02*
X325253D01*
X318589Y279664D01*
Y281331D01*
X320255Y282997D01*
X323587D01*
X325253Y281331D01*
X513500Y312997D02*
Y303000D01*
Y306332D01*
X506836Y312997D01*
X511834Y307998D01*
X506836Y303000D01*
X496839D02*
X503503D01*
X496839Y309664D01*
Y311331D01*
X498505Y312997D01*
X501837D01*
X503503Y311331D01*
X507500Y74997D02*
X500835Y65000D01*
Y74997D02*
X507500Y65000D01*
X490839Y74997D02*
X494171Y73331D01*
X497503Y69998D01*
Y66666D01*
X495837Y65000D01*
X492505D01*
X490839Y66666D01*
Y68332D01*
X492505Y69998D01*
X497503D01*
D70*
X570828Y118029D02*
Y167051D01*
X531712D02*
X570828D01*
X531712Y118029D02*
Y167051D01*
Y118029D02*
X570828D01*
X521298Y164130D02*
X531712D01*
X521298Y159050D02*
Y164130D01*
Y159050D02*
X531712D01*
Y164130D01*
X521298Y151430D02*
X531712D01*
X521298Y146350D02*
Y151430D01*
Y146350D02*
X531712D01*
Y151430D01*
X521298Y138730D02*
X531712D01*
X521298Y133650D02*
Y138730D01*
Y133650D02*
X531712D01*
Y138730D01*
X521298Y126030D02*
X531712D01*
X521298Y120950D02*
Y126030D01*
Y120950D02*
X531712D01*
Y126030D01*
X570828Y120950D02*
X581242D01*
Y126030D01*
X570828D02*
X581242D01*
X570828Y120950D02*
Y126030D01*
Y133650D02*
X581242D01*
Y138730D01*
X570828D02*
X581242D01*
X570828Y133650D02*
Y138730D01*
Y146350D02*
X581242D01*
Y151430D01*
X570828D02*
X581242D01*
X570828Y146350D02*
Y151430D01*
Y159050D02*
X581242D01*
Y164130D01*
X570828D02*
X581242D01*
X570828Y159050D02*
Y164130D01*
D71*
X548222Y167051D02*
G03*
X554318Y167051I3048J0D01*
G01*
M02*
