G04*
G04 #@! TF.GenerationSoftware,Altium Limited,Altium Designer,24.1.2 (44)*
G04*
G04 Layer_Color=8757620*
%FSLAX44Y44*%
%MOMM*%
G71*
G04*
G04 #@! TF.SameCoordinates,C4B2C0E0-4E9B-487C-9046-04FF2B3DFFC7*
G04*
G04*
G04 #@! TF.FilePolarity,Negative*
G04*
G01*
G75*
%ADD20R,2.4032X2.4032*%
%ADD21C,1.9032*%
%ADD22C,2.2032*%
%ADD23C,1.7032*%
%ADD24R,1.7032X1.7032*%
%ADD25C,2.6032*%
%ADD26C,8.2032*%
%ADD27R,1.9032X1.9032*%
%ADD28R,2.4032X2.4032*%
%ADD29C,2.4032*%
%ADD30C,2.0032*%
%ADD31R,2.0032X2.0032*%
%ADD32C,2.4028*%
%ADD33C,0.8500*%
%ADD34C,1.2032*%
%ADD52R,1.3970X0.5588*%
%ADD59R,1.2192X2.4638*%
%ADD60R,2.4638X1.2192*%
%ADD61R,1.4532X1.2032*%
%ADD62R,1.2032X1.4532*%
G04:AMPARAMS|DCode=63|XSize=2.5332mm|YSize=1.7532mm|CornerRadius=0.2954mm|HoleSize=0mm|Usage=FLASHONLY|Rotation=90.000|XOffset=0mm|YOffset=0mm|HoleType=Round|Shape=RoundedRectangle|*
%AMROUNDEDRECTD63*
21,1,2.5332,1.1625,0,0,90.0*
21,1,1.9425,1.7532,0,0,90.0*
1,1,0.5907,0.5813,0.9712*
1,1,0.5907,0.5813,-0.9712*
1,1,0.5907,-0.5813,-0.9712*
1,1,0.5907,-0.5813,0.9712*
%
%ADD63ROUNDEDRECTD63*%
G04:AMPARAMS|DCode=64|XSize=2.1732mm|YSize=0.8032mm|CornerRadius=0.1766mm|HoleSize=0mm|Usage=FLASHONLY|Rotation=180.000|XOffset=0mm|YOffset=0mm|HoleType=Round|Shape=RoundedRectangle|*
%AMROUNDEDRECTD64*
21,1,2.1732,0.4500,0,0,180.0*
21,1,1.8200,0.8032,0,0,180.0*
1,1,0.3532,-0.9100,0.2250*
1,1,0.3532,0.9100,0.2250*
1,1,0.3532,0.9100,-0.2250*
1,1,0.3532,-0.9100,-0.2250*
%
%ADD64ROUNDEDRECTD64*%
%ADD65C,1.0032*%
D20*
X893225Y89475D02*
D03*
X314750Y131000D02*
D03*
X383500Y341000D02*
D03*
Y385000D02*
D03*
X1110000Y230000D02*
D03*
D21*
X816000Y610750D02*
D03*
Y643750D02*
D03*
X791000D02*
D03*
X766000D02*
D03*
Y610750D02*
D03*
X791000D02*
D03*
X432000Y84250D02*
D03*
Y117250D02*
D03*
X407000D02*
D03*
X382000D02*
D03*
Y84250D02*
D03*
X407000D02*
D03*
X1222950Y407750D02*
D03*
D22*
X721340Y707550D02*
D03*
Y732950D02*
D03*
X721660Y67300D02*
D03*
Y92700D02*
D03*
D23*
X888450Y445350D02*
D03*
Y419950D02*
D03*
Y394550D02*
D03*
Y369150D02*
D03*
X809050D02*
D03*
Y394550D02*
D03*
Y419950D02*
D03*
D24*
Y445350D02*
D03*
D25*
X229750Y258250D02*
D03*
X280750D02*
D03*
X229750Y207250D02*
D03*
X280750D02*
D03*
X229500Y595500D02*
D03*
X280500D02*
D03*
X229500Y544500D02*
D03*
X280500D02*
D03*
X229500Y425500D02*
D03*
X280500D02*
D03*
X229500Y374500D02*
D03*
X280500D02*
D03*
D26*
X1220000Y720000D02*
D03*
X80000D02*
D03*
Y80000D02*
D03*
X1220000D02*
D03*
D27*
X1197550Y407750D02*
D03*
D28*
X893500Y708275D02*
D03*
X654745Y516249D02*
D03*
X581750Y516250D02*
D03*
X505745Y516249D02*
D03*
X655000Y230000D02*
D03*
X580000D02*
D03*
X500000D02*
D03*
X1115000Y516250D02*
D03*
X1045000D02*
D03*
Y230000D02*
D03*
D29*
X728500Y344400D02*
D03*
Y293600D02*
D03*
X823850Y332250D02*
D03*
X874650D02*
D03*
D30*
X532450Y393750D02*
D03*
X1043200Y407250D02*
D03*
D31*
X507050Y393750D02*
D03*
X1017800Y407250D02*
D03*
D32*
X769000Y268200D02*
D03*
Y369800D02*
D03*
X636950Y393500D02*
D03*
X738550D02*
D03*
X768500Y522800D02*
D03*
Y421200D02*
D03*
X873700Y626500D02*
D03*
X975300D02*
D03*
D33*
X529600Y59840D02*
D03*
Y80160D02*
D03*
X580400Y70000D02*
D03*
D34*
X681311Y271000D02*
D03*
X528500Y271298D02*
D03*
X581000Y353250D02*
D03*
X650500Y48000D02*
D03*
X555250Y48250D02*
D03*
X238500Y718250D02*
D03*
X721000Y167500D02*
D03*
X720750Y627750D02*
D03*
X685000Y167500D02*
D03*
X363500Y212250D02*
D03*
X522500Y184750D02*
D03*
D52*
X524727Y161590D02*
D03*
Y148890D02*
D03*
Y136190D02*
D03*
Y123490D02*
D03*
X577813D02*
D03*
Y136190D02*
D03*
Y148890D02*
D03*
Y161590D02*
D03*
D59*
X657000Y366000D02*
D03*
X627000D02*
D03*
X659000Y316000D02*
D03*
X629000D02*
D03*
X658750Y258000D02*
D03*
X628750D02*
D03*
X1093250Y407500D02*
D03*
X1123250D02*
D03*
X658750Y287000D02*
D03*
X628750D02*
D03*
D60*
X482750Y324750D02*
D03*
Y354750D02*
D03*
X482250Y262500D02*
D03*
Y292500D02*
D03*
X720750Y645250D02*
D03*
Y675250D02*
D03*
X436250Y354000D02*
D03*
Y324000D02*
D03*
X436500Y262750D02*
D03*
Y292750D02*
D03*
X721500Y152000D02*
D03*
Y122000D02*
D03*
X650000Y120000D02*
D03*
Y150000D02*
D03*
X685000D02*
D03*
Y120000D02*
D03*
D61*
X193750Y702250D02*
D03*
Y682250D02*
D03*
X650000Y85000D02*
D03*
Y65000D02*
D03*
X396000Y227250D02*
D03*
Y247250D02*
D03*
X238750Y702250D02*
D03*
Y682250D02*
D03*
X363500Y248000D02*
D03*
Y228000D02*
D03*
D62*
X546750Y274000D02*
D03*
X566750D02*
D03*
X564250Y353500D02*
D03*
X544250D02*
D03*
X560000Y185000D02*
D03*
X540000D02*
D03*
X631500Y341267D02*
D03*
X651500D02*
D03*
D63*
X287500Y668650D02*
D03*
Y711350D02*
D03*
X326250Y210650D02*
D03*
Y253350D02*
D03*
D64*
X530988Y333292D02*
D03*
Y320592D02*
D03*
Y307892D02*
D03*
Y295191D02*
D03*
X580388D02*
D03*
Y307892D02*
D03*
Y320592D02*
D03*
Y333292D02*
D03*
D65*
X542300Y76350D02*
D03*
X567700Y63650D02*
D03*
Y76350D02*
D03*
X555000Y63650D02*
D03*
X542300D02*
D03*
X555000Y76350D02*
D03*
M02*
