M48
;Layer_Color=8421504
;FILE_FORMAT=4:4
METRIC,LZ
;TYPE=PLATED
T01F00S00C0.5000
T02F00S00C0.7800
T03F00S00C0.9000
T04F00S00C1.0000
T05F00S00C1.0000
T06F00S00C1.0008
T07F00S00C1.6000
%
T01
X0055525Y0004825
X006505Y00048
X00685Y001675
X00721Y001675
X00681311Y00271
X00581Y0035325
X005285Y00271298
X005225Y0018475
X003635Y0021225
X002385Y0071825
X0072075Y0062775
T02
X0080905Y0036915
Y0039455
Y0041995
Y0044535
X0088845
Y0041995
Y0039455
Y0036915
T03
X00382Y0008425
X00407
X00432
Y0011725
X00407
X00382
X0119755Y0040775
X0122295
X00816Y0061075
X00791
X00766
Y0064375
X00791
X00816
T04
X0031475Y00131
X00893225Y00089475
X01045Y0023
X0111
X01115Y0051625
X01045
X0087465Y0033225
X0082385
X007285Y003444
Y002936
X00655Y0023
X0058
X0058175Y0051625
X00654745Y00516249
X00505745
X003835Y00385
Y00341
X005Y0023
X008935Y00708275
T05
X0072166Y000673
Y000927
X010178Y0040725
X010432
X0053245Y0039375
X0050705
X0072134Y0070755
Y0073295
T06
X0063695Y003935
X0073855
X00769Y003698
X007685Y004212
Y005228
X00769Y002682
X008737Y006265
X009753
T07
X0022975Y0020725
Y0025825
X0028075
Y0020725
X002805Y003745
Y004255
X002295
Y003745
Y005445
Y005955
X002805
Y005445
M30
