G04*
G04 #@! TF.GenerationSoftware,Altium Limited,Altium Designer,24.1.2 (44)*
G04*
G04 Layer_Color=8757620*
%FSLAX44Y44*%
%MOMM*%
G71*
G04*
G04 #@! TF.SameCoordinates,B0756098-272B-4952-AD8A-B75AB5E4C8A6*
G04*
G04*
G04 #@! TF.FilePolarity,Negative*
G04*
G01*
G75*
%ADD19C,2.0032*%
%ADD20R,2.0032X2.0032*%
%ADD21C,1.9032*%
%ADD22R,1.7032X1.7032*%
%ADD23C,1.7032*%
%ADD24C,2.6032*%
%ADD25C,8.2032*%
%ADD26R,1.9032X1.9032*%
%ADD27C,2.4028*%
%ADD28C,0.8500*%
%ADD29R,2.4032X2.4032*%
%ADD30R,2.4032X2.4032*%
%ADD31C,2.4032*%
%ADD32C,1.2032*%
%ADD50R,1.3970X0.5588*%
%ADD57R,1.2192X2.4638*%
%ADD58R,2.4638X1.2192*%
%ADD59R,1.4532X1.2032*%
%ADD60R,1.2032X1.4532*%
G04:AMPARAMS|DCode=61|XSize=2.5332mm|YSize=1.7532mm|CornerRadius=0.2954mm|HoleSize=0mm|Usage=FLASHONLY|Rotation=90.000|XOffset=0mm|YOffset=0mm|HoleType=Round|Shape=RoundedRectangle|*
%AMROUNDEDRECTD61*
21,1,2.5332,1.1625,0,0,90.0*
21,1,1.9425,1.7532,0,0,90.0*
1,1,0.5907,0.5813,0.9712*
1,1,0.5907,0.5813,-0.9712*
1,1,0.5907,-0.5813,-0.9712*
1,1,0.5907,-0.5813,0.9712*
%
%ADD61ROUNDEDRECTD61*%
G04:AMPARAMS|DCode=62|XSize=2.1732mm|YSize=0.8032mm|CornerRadius=0.1766mm|HoleSize=0mm|Usage=FLASHONLY|Rotation=180.000|XOffset=0mm|YOffset=0mm|HoleType=Round|Shape=RoundedRectangle|*
%AMROUNDEDRECTD62*
21,1,2.1732,0.4500,0,0,180.0*
21,1,1.8200,0.8032,0,0,180.0*
1,1,0.3532,-0.9100,0.2250*
1,1,0.3532,0.9100,0.2250*
1,1,0.3532,0.9100,-0.2250*
1,1,0.3532,-0.9100,-0.2250*
%
%ADD62ROUNDEDRECTD62*%
%ADD63C,1.0032*%
D19*
X532450Y393750D02*
D03*
X1042700Y390000D02*
D03*
D20*
X507050Y393750D02*
D03*
X1017300Y390000D02*
D03*
D21*
X789250Y574250D02*
D03*
X764250D02*
D03*
Y607250D02*
D03*
X789250D02*
D03*
X814250D02*
D03*
Y574250D02*
D03*
X407000Y84250D02*
D03*
X382000D02*
D03*
Y117250D02*
D03*
X407000D02*
D03*
X432000D02*
D03*
Y84250D02*
D03*
X1222700Y390000D02*
D03*
D22*
X805550Y410850D02*
D03*
D23*
Y385450D02*
D03*
Y360050D02*
D03*
Y334650D02*
D03*
X884950D02*
D03*
Y360050D02*
D03*
Y385450D02*
D03*
Y410850D02*
D03*
D24*
X280750Y207250D02*
D03*
X229750D02*
D03*
X280750Y258250D02*
D03*
X229750D02*
D03*
X229500Y595500D02*
D03*
X280500D02*
D03*
X229500Y544500D02*
D03*
X280500D02*
D03*
X229500Y425500D02*
D03*
X280500D02*
D03*
X229500Y374500D02*
D03*
X280500D02*
D03*
D25*
X1220000Y720000D02*
D03*
X80000D02*
D03*
Y80000D02*
D03*
X1220000D02*
D03*
D26*
X1197300Y390000D02*
D03*
D27*
X757000Y219200D02*
D03*
Y320800D02*
D03*
X580950Y394750D02*
D03*
X682550D02*
D03*
X756750Y489550D02*
D03*
Y387950D02*
D03*
X864200Y532500D02*
D03*
X965800D02*
D03*
D28*
X529600Y59840D02*
D03*
Y80160D02*
D03*
X580400Y70000D02*
D03*
D29*
X654745Y516249D02*
D03*
X581750Y516250D02*
D03*
X505745Y516249D02*
D03*
X655000Y230000D02*
D03*
X580000D02*
D03*
X500000D02*
D03*
X1115000Y516250D02*
D03*
X1045000D02*
D03*
Y230000D02*
D03*
D30*
X1110000D02*
D03*
D31*
X820600Y292500D02*
D03*
X871400D02*
D03*
D32*
X581000Y353250D02*
D03*
X650500Y48000D02*
D03*
X756750Y297750D02*
D03*
X555250Y48250D02*
D03*
X238500Y718250D02*
D03*
X757250Y246250D02*
D03*
X675750Y291750D02*
D03*
X702500Y315000D02*
D03*
X721500Y167500D02*
D03*
X685000Y167500D02*
D03*
X363500Y212250D02*
D03*
X522500Y184750D02*
D03*
X528000Y274000D02*
D03*
D50*
X524727Y161590D02*
D03*
Y148890D02*
D03*
Y136190D02*
D03*
Y123490D02*
D03*
X577813D02*
D03*
Y136190D02*
D03*
Y148890D02*
D03*
Y161590D02*
D03*
D57*
X628500Y357750D02*
D03*
X658500D02*
D03*
X658500Y327750D02*
D03*
X628500D02*
D03*
X658500Y260250D02*
D03*
X628500D02*
D03*
X1092500Y390000D02*
D03*
X1122500D02*
D03*
X658500Y292750D02*
D03*
X628500D02*
D03*
D58*
X482750Y324750D02*
D03*
Y354750D02*
D03*
X482250Y262500D02*
D03*
Y292500D02*
D03*
X721500Y150000D02*
D03*
Y120000D02*
D03*
X436250Y354000D02*
D03*
Y324000D02*
D03*
X436500Y262750D02*
D03*
Y292750D02*
D03*
X703000Y299500D02*
D03*
Y269500D02*
D03*
X650000Y120000D02*
D03*
Y150000D02*
D03*
X685000D02*
D03*
Y120000D02*
D03*
D59*
X193750Y702250D02*
D03*
Y682250D02*
D03*
X650000Y85000D02*
D03*
Y65000D02*
D03*
X396000Y227250D02*
D03*
Y247250D02*
D03*
X238750Y702250D02*
D03*
Y682250D02*
D03*
X363500Y227250D02*
D03*
Y247250D02*
D03*
D60*
X546750Y274000D02*
D03*
X566750D02*
D03*
X564250Y353500D02*
D03*
X544250D02*
D03*
X560000Y185000D02*
D03*
X540000D02*
D03*
D61*
X287500Y711350D02*
D03*
Y668650D02*
D03*
X326250Y253350D02*
D03*
Y210650D02*
D03*
D62*
X530988Y333292D02*
D03*
Y320592D02*
D03*
Y307892D02*
D03*
Y295191D02*
D03*
X580388D02*
D03*
Y307892D02*
D03*
Y320592D02*
D03*
Y333292D02*
D03*
D63*
X542300Y76350D02*
D03*
X567700Y63650D02*
D03*
Y76350D02*
D03*
X555000Y63650D02*
D03*
X542300D02*
D03*
X555000Y76350D02*
D03*
M02*
