G04*
G04 #@! TF.GenerationSoftware,Altium Limited,Altium Designer,24.1.2 (44)*
G04*
G04 Layer_Color=10151133*
%FSLAX44Y44*%
%MOMM*%
G71*
G04*
G04 #@! TF.SameCoordinates,B0756098-272B-4952-AD8A-B75AB5E4C8A6*
G04*
G04*
G04 #@! TF.FilePolarity,Positive*
G04*
G01*
G75*
%ADD10C,0.2000*%
%ADD11C,0.1270*%
%ADD14C,0.1000*%
%ADD16C,0.2540*%
%ADD64C,0.1524*%
%ADD65C,0.0762*%
D10*
X288500Y652000D02*
G03*
X288500Y652000I-1000J0D01*
G01*
X327250Y194000D02*
G03*
X327250Y194000I-1000J0D01*
G01*
X597088Y337291D02*
G03*
X597088Y337291I-1000J0D01*
G01*
X530000Y88000D02*
G03*
X520000Y78000I0J-10000D01*
G01*
X566000Y52000D02*
G03*
X571300Y53520I0J10000D01*
G01*
Y86480D02*
G03*
X566000Y88000I-5300J-8480D01*
G01*
X586113Y61837D02*
G03*
X586111Y78160I-5671J8161D01*
G01*
X520000Y62000D02*
G03*
X530000Y52000I10000J0D01*
G01*
X571300Y53520D02*
X586111Y61840D01*
X530000Y88000D02*
X566000D01*
X571300Y86480D02*
X586111Y78160D01*
X530000Y52000D02*
X566000Y52000D01*
X520000Y62000D02*
Y78000D01*
D11*
X274475Y664025D02*
Y715975D01*
X300525Y664025D02*
Y715975D01*
X274475Y664025D02*
X276550D01*
X298450D02*
X300525D01*
X274475Y715975D02*
X276550D01*
X298450D02*
X300525D01*
X313225Y206025D02*
Y257975D01*
X339275Y206025D02*
Y257975D01*
X313225Y206025D02*
X315300D01*
X337200D02*
X339275D01*
X313225Y257975D02*
X315300D01*
X337200D02*
X339275D01*
X536188Y288992D02*
X575188D01*
X536188Y339492D02*
X575188D01*
D14*
X221750Y675250D02*
Y685250D01*
X216750Y680250D02*
X226750D01*
X380500Y244250D02*
Y254250D01*
X375500Y249250D02*
X385500D01*
D16*
X338946Y285368D02*
Y270133D01*
X331328D01*
X328789Y272672D01*
Y282828D01*
X331328Y285368D01*
X338946D01*
X313554Y270133D02*
X323711D01*
X313554Y280289D01*
Y282828D01*
X316093Y285368D01*
X321172D01*
X323711Y282828D01*
X327657Y695117D02*
Y679883D01*
X320039D01*
X317500Y682422D01*
Y692578D01*
X320039Y695117D01*
X327657D01*
X312422Y679883D02*
X307343D01*
X309882D01*
Y695117D01*
X312422Y692578D01*
X510196Y77618D02*
X500039Y62382D01*
Y77618D02*
X510196Y62382D01*
X484804Y77618D02*
X489883Y75078D01*
X494961Y70000D01*
Y64922D01*
X492422Y62382D01*
X487343D01*
X484804Y64922D01*
Y67461D01*
X487343Y70000D01*
X494961D01*
X702294Y89882D02*
Y105118D01*
X694676D01*
X692137Y102578D01*
Y97500D01*
X694676Y94961D01*
X702294D01*
X697215D02*
X692137Y89882D01*
X687059D02*
X681980D01*
X684520D01*
Y105118D01*
X687059Y102578D01*
X674363Y92422D02*
X671824Y89882D01*
X666745D01*
X664206Y92422D01*
Y102578D01*
X666745Y105118D01*
X671824D01*
X674363Y102578D01*
Y100039D01*
X671824Y97500D01*
X664206D01*
X399289Y209828D02*
X401828Y212367D01*
X406907D01*
X409446Y209828D01*
Y199672D01*
X406907Y197132D01*
X401828D01*
X399289Y199672D01*
X384054Y212367D02*
X394211D01*
Y204750D01*
X389132Y207289D01*
X386593D01*
X384054Y204750D01*
Y199672D01*
X386593Y197132D01*
X391672D01*
X394211Y199672D01*
X365539Y275578D02*
X368078Y278118D01*
X373157D01*
X375696Y275578D01*
Y265422D01*
X373157Y262882D01*
X368078D01*
X365539Y265422D01*
X360461Y275578D02*
X357922Y278118D01*
X352843D01*
X350304Y275578D01*
Y273039D01*
X352843Y270500D01*
X355382D01*
X352843D01*
X350304Y267961D01*
Y265422D01*
X352843Y262882D01*
X357922D01*
X360461Y265422D01*
X666544Y162383D02*
Y177617D01*
X658926D01*
X656387Y175078D01*
Y170000D01*
X658926Y167461D01*
X666544D01*
X661466D02*
X656387Y162383D01*
X651309D02*
X646230D01*
X648770D01*
Y177617D01*
X651309Y175078D01*
X628456Y177617D02*
X633535Y175078D01*
X638613Y170000D01*
Y164922D01*
X636074Y162383D01*
X630995D01*
X628456Y164922D01*
Y167461D01*
X630995Y170000D01*
X638613D01*
X759794Y270133D02*
Y285368D01*
X752176D01*
X749637Y282828D01*
Y277750D01*
X752176Y275211D01*
X759794D01*
X754715D02*
X749637Y270133D01*
X744559D02*
X739480D01*
X742020D01*
Y285368D01*
X744559Y282828D01*
X721706Y285368D02*
X731863D01*
Y277750D01*
X726785Y280289D01*
X724245D01*
X721706Y277750D01*
Y272672D01*
X724245Y270133D01*
X729324D01*
X731863Y272672D01*
X451044Y233633D02*
Y248867D01*
X443426D01*
X440887Y246328D01*
Y241250D01*
X443426Y238711D01*
X451044D01*
X445965D02*
X440887Y233633D01*
X435809D02*
X430730D01*
X433270D01*
Y248867D01*
X435809Y246328D01*
X415495Y233633D02*
Y248867D01*
X423113Y241250D01*
X412956D01*
X616618Y312544D02*
X601382D01*
Y304926D01*
X603922Y302387D01*
X609000D01*
X611539Y304926D01*
Y312544D01*
Y307465D02*
X616618Y302387D01*
Y297309D02*
Y292230D01*
Y294770D01*
X601382D01*
X603922Y297309D01*
Y284613D02*
X601382Y282074D01*
Y276995D01*
X603922Y274456D01*
X606461D01*
X609000Y276995D01*
Y279534D01*
Y276995D01*
X611539Y274456D01*
X614078D01*
X616618Y276995D01*
Y282074D01*
X614078Y284613D01*
X1126044Y409383D02*
Y424618D01*
X1118426D01*
X1115887Y422078D01*
Y417000D01*
X1118426Y414461D01*
X1126044D01*
X1120965D02*
X1115887Y409383D01*
X1110809D02*
X1105730D01*
X1108270D01*
Y424618D01*
X1110809Y422078D01*
X1087956Y409383D02*
X1098113D01*
X1087956Y419539D01*
Y422078D01*
X1090495Y424618D01*
X1095574D01*
X1098113Y422078D01*
X635255Y227882D02*
Y243118D01*
X627637D01*
X625098Y240578D01*
Y235500D01*
X627637Y232961D01*
X635255D01*
X630176D02*
X625098Y227882D01*
X620020D02*
X614941D01*
X617480D01*
Y243118D01*
X620020Y240578D01*
X607324Y227882D02*
X602245D01*
X604785D01*
Y243118D01*
X607324Y240578D01*
X452794Y365382D02*
Y380617D01*
X445176D01*
X442637Y378078D01*
Y373000D01*
X445176Y370461D01*
X452794D01*
X447715D02*
X442637Y365382D01*
X437559D02*
X432480D01*
X435020D01*
Y380617D01*
X437559Y378078D01*
X424863D02*
X422324Y380617D01*
X417245D01*
X414706Y378078D01*
Y367922D01*
X417245Y365382D01*
X422324D01*
X424863Y367922D01*
Y378078D01*
X695696Y324632D02*
Y339868D01*
X688078D01*
X685539Y337328D01*
Y332250D01*
X688078Y329711D01*
X695696D01*
X690618D02*
X685539Y324632D01*
X680461Y327172D02*
X677922Y324632D01*
X672843D01*
X670304Y327172D01*
Y337328D01*
X672843Y339868D01*
X677922D01*
X680461Y337328D01*
Y334789D01*
X677922Y332250D01*
X670304D01*
X765446Y124633D02*
Y139867D01*
X757828D01*
X755289Y137328D01*
Y132250D01*
X757828Y129711D01*
X765446D01*
X760368D02*
X755289Y124633D01*
X750211Y137328D02*
X747672Y139867D01*
X742593D01*
X740054Y137328D01*
Y134789D01*
X742593Y132250D01*
X740054Y129711D01*
Y127172D01*
X742593Y124633D01*
X747672D01*
X750211Y127172D01*
Y129711D01*
X747672Y132250D01*
X750211Y134789D01*
Y137328D01*
X747672Y132250D02*
X742593D01*
X524696Y247383D02*
Y262617D01*
X517078D01*
X514539Y260078D01*
Y255000D01*
X517078Y252461D01*
X524696D01*
X519618D02*
X514539Y247383D01*
X509461Y262617D02*
X499304D01*
Y260078D01*
X509461Y249922D01*
Y247383D01*
X492446Y367383D02*
Y382617D01*
X484828D01*
X482289Y380078D01*
Y375000D01*
X484828Y372461D01*
X492446D01*
X487368D02*
X482289Y367383D01*
X467054Y382617D02*
X472132Y380078D01*
X477211Y375000D01*
Y369922D01*
X474672Y367383D01*
X469593D01*
X467054Y369922D01*
Y372461D01*
X469593Y375000D01*
X477211D01*
X654696Y375633D02*
Y390868D01*
X647078D01*
X644539Y388328D01*
Y383250D01*
X647078Y380711D01*
X654696D01*
X649617D02*
X644539Y375633D01*
X629304Y390868D02*
X639461D01*
Y383250D01*
X634383Y385789D01*
X631843D01*
X629304Y383250D01*
Y378172D01*
X631843Y375633D01*
X636922D01*
X639461Y378172D01*
X504946Y151117D02*
Y135883D01*
Y140961D01*
X494789Y151117D01*
X502407Y143500D01*
X494789Y135883D01*
X489711Y148578D02*
X487172Y151117D01*
X482093D01*
X479554Y148578D01*
Y146039D01*
X482093Y143500D01*
X484632D01*
X482093D01*
X479554Y140961D01*
Y138422D01*
X482093Y135883D01*
X487172D01*
X489711Y138422D01*
X514946Y316117D02*
Y300882D01*
Y305961D01*
X504789Y316117D01*
X512407Y308500D01*
X504789Y300882D01*
X489554D02*
X499711D01*
X489554Y311039D01*
Y313578D01*
X492093Y316117D01*
X497172D01*
X499711Y313578D01*
X627289Y79328D02*
X629828Y81868D01*
X634907D01*
X637446Y79328D01*
Y69172D01*
X634907Y66632D01*
X629828D01*
X627289Y69172D01*
X622211Y81868D02*
X612054D01*
Y79328D01*
X622211Y69172D01*
Y66632D01*
X552789Y209828D02*
X555328Y212367D01*
X560407D01*
X562946Y209828D01*
Y199672D01*
X560407Y197132D01*
X555328D01*
X552789Y199672D01*
X537554Y212367D02*
X542632Y209828D01*
X547711Y204750D01*
Y199672D01*
X545172Y197132D01*
X540093D01*
X537554Y199672D01*
Y202211D01*
X540093Y204750D01*
X547711D01*
X557289Y379578D02*
X559828Y382118D01*
X564907D01*
X567446Y379578D01*
Y369422D01*
X564907Y366883D01*
X559828D01*
X557289Y369422D01*
X544593Y366883D02*
Y382118D01*
X552211Y374500D01*
X542054D01*
X559539Y260078D02*
X562078Y262617D01*
X567157D01*
X569696Y260078D01*
Y249922D01*
X567157Y247383D01*
X562078D01*
X559539Y249922D01*
X544304Y247383D02*
X554461D01*
X544304Y257539D01*
Y260078D01*
X546843Y262617D01*
X551922D01*
X554461Y260078D01*
X198348Y668578D02*
X200887Y671117D01*
X205965D01*
X208505Y668578D01*
Y658422D01*
X205965Y655882D01*
X200887D01*
X198348Y658422D01*
X193270Y655882D02*
X188191D01*
X190730D01*
Y671117D01*
X193270Y668578D01*
X180574Y655882D02*
X175495D01*
X178034D01*
Y671117D01*
X180574Y668578D01*
X243039Y667328D02*
X245578Y669867D01*
X250657D01*
X253196Y667328D01*
Y657172D01*
X250657Y654632D01*
X245578D01*
X243039Y657172D01*
X237961D02*
X235422Y654632D01*
X230343D01*
X227804Y657172D01*
Y667328D01*
X230343Y669867D01*
X235422D01*
X237961Y667328D01*
Y664789D01*
X235422Y662250D01*
X227804D01*
D64*
X530442Y168321D02*
X572098D01*
X530442Y116759D02*
X572098D01*
D65*
X585540Y179080D02*
X577076Y170616D01*
X585540D02*
X577076Y179080D01*
X585540Y174848D02*
X577076D01*
X581308Y170616D02*
Y179080D01*
M02*
