G04*
G04 #@! TF.GenerationSoftware,Altium Limited,Altium Designer,24.1.2 (44)*
G04*
G04 Layer_Color=16711935*
%FSLAX44Y44*%
%MOMM*%
G71*
G04*
G04 #@! TF.SameCoordinates,B0756098-272B-4952-AD8A-B75AB5E4C8A6*
G04*
G04*
G04 #@! TF.FilePolarity,Positive*
G04*
G01*
G75*
%ADD10C,0.2000*%
%ADD11C,0.1270*%
%ADD13C,0.0500*%
%ADD14C,0.1000*%
%ADD16C,0.2540*%
D10*
X745752Y100360D02*
G03*
X745752Y100360I-1432J0D01*
G01*
X700112Y699890D02*
G03*
X700112Y699890I-1432J0D01*
G01*
X790500Y415000D02*
G03*
X790500Y415000I-1000J0D01*
G01*
D11*
X733118Y63600D02*
G03*
X710161Y63600I-11479J16393D01*
G01*
X709882Y736650D02*
G03*
X732840Y736650I11479J-16393D01*
G01*
X710060Y63700D02*
X733260D01*
X709740Y736550D02*
X732940D01*
X813500Y420700D02*
X877000D01*
X813500Y324800D02*
X877000D01*
X813500D02*
Y420700D01*
X877000Y324800D02*
Y420700D01*
D13*
X834250Y572250D02*
Y608750D01*
X744250Y572250D02*
Y608750D01*
Y572250D02*
X834250D01*
X744250Y608750D02*
X834250D01*
X452000Y82250D02*
Y118750D01*
X362000Y82250D02*
Y118750D01*
Y82250D02*
X452000D01*
X362000Y118750D02*
X452000D01*
D14*
X1230250Y390000D02*
G03*
X1230250Y390000I-20000J0D01*
G01*
X522290Y377240D02*
Y381050D01*
X517210Y377240D02*
X522290D01*
X517210D02*
Y381050D01*
X545150D02*
Y406450D01*
X494350Y381050D02*
X545150D01*
X494350D02*
Y406450D01*
X545150D01*
X744300Y297940D02*
X769700D01*
X744300Y301699D02*
X769700D01*
X744300Y238301D02*
X769700D01*
X754460Y320800D02*
X759540D01*
X754460Y219200D02*
X759540D01*
X769700Y238301D02*
Y301699D01*
X744300Y238301D02*
Y301699D01*
X759540Y301750D02*
Y320800D01*
Y219200D02*
Y238250D01*
X754460Y301750D02*
Y320800D01*
Y219200D02*
Y238250D01*
X1004600Y402700D02*
X1055400D01*
X1004600Y377300D02*
Y402700D01*
Y377300D02*
X1055400D01*
Y402700D01*
X1027460Y373490D02*
Y377300D01*
Y373490D02*
X1032540D01*
Y377300D01*
X640745Y502249D02*
Y530249D01*
X668745Y502249D02*
Y530249D01*
X640745D02*
X668745D01*
X640745Y502249D02*
X668745D01*
X567750Y502250D02*
Y530250D01*
X595750Y502250D02*
Y530250D01*
X567750D02*
X595750D01*
X567750Y502250D02*
X595750D01*
X491745Y502249D02*
Y530249D01*
X519745Y502249D02*
Y530249D01*
X491745D02*
X519745D01*
X491745Y502249D02*
X519745D01*
X641000Y216000D02*
Y244000D01*
X669000Y216000D02*
Y244000D01*
X641000D02*
X669000D01*
X641000Y216000D02*
X669000D01*
X566000D02*
Y244000D01*
X594000Y216000D02*
Y244000D01*
X566000D02*
X594000D01*
X566000Y216000D02*
X594000D01*
X486000D02*
Y244000D01*
X514000Y216000D02*
Y244000D01*
X486000D02*
X514000D01*
X486000Y216000D02*
X514000D01*
X1101000Y502250D02*
Y530250D01*
X1129000Y502250D02*
Y530250D01*
X1101000D02*
X1129000D01*
X1101000Y502250D02*
X1129000D01*
X1031000D02*
Y530250D01*
X1059000Y502250D02*
Y530250D01*
X1031000D02*
X1059000D01*
X1031000Y502250D02*
X1059000D01*
X1031000Y216000D02*
Y244000D01*
X1059000Y216000D02*
Y244000D01*
X1031000D02*
X1059000D01*
X1031000Y216000D02*
X1059000D01*
X1096000D02*
X1124000D01*
X1096000Y244000D02*
X1124000D01*
X1096000Y216000D02*
Y244000D01*
X1124000Y216000D02*
Y244000D01*
X663500Y392210D02*
X682550D01*
X580950D02*
X600000D01*
X663500Y397290D02*
X682550D01*
X580950D02*
X600000D01*
X600051Y382050D02*
X663449D01*
X600051Y407450D02*
X663449D01*
X682550Y392210D02*
Y397290D01*
X580950Y392210D02*
Y397290D01*
X663449Y382050D02*
Y407450D01*
X600051Y382050D02*
Y407450D01*
X603810Y382050D02*
Y407450D01*
X754210Y387950D02*
Y407000D01*
Y470500D02*
Y489550D01*
X759290Y387950D02*
Y407000D01*
Y470500D02*
Y489550D01*
X744050Y407051D02*
Y470449D01*
X769450Y407051D02*
Y470449D01*
X754210Y387950D02*
X759290D01*
X754210Y489550D02*
X759290D01*
X744050Y407051D02*
X769450D01*
X744050Y470449D02*
X769450D01*
X744050Y466690D02*
X769450D01*
X946750Y529960D02*
X965800D01*
X864200D02*
X883250D01*
X946750Y535040D02*
X965800D01*
X864200D02*
X883250D01*
X883301Y519800D02*
X946699D01*
X883301Y545200D02*
X946699D01*
X965800Y529960D02*
Y535040D01*
X864200Y529960D02*
Y535040D01*
X946699Y519800D02*
Y545200D01*
X883301Y519800D02*
Y545200D01*
X887060Y519800D02*
Y545200D01*
X806000Y272500D02*
Y312500D01*
X846000Y272500D02*
X886000D01*
Y312500D01*
X806000D02*
X886000D01*
X806000Y272500D02*
X846000D01*
X499750Y423747D02*
X506414Y413750D01*
Y423747D02*
X499750Y413750D01*
X509747D02*
X513079D01*
X511413D01*
Y423747D01*
X509747Y422081D01*
X787664Y635831D02*
X785998Y637497D01*
X782666D01*
X781000Y635831D01*
Y634165D01*
X782666Y632498D01*
X785998D01*
X787664Y630832D01*
Y629166D01*
X785998Y627500D01*
X782666D01*
X781000Y629166D01*
X790997Y627500D02*
X794329D01*
X792663D01*
Y637497D01*
X790997Y635831D01*
X403665Y148831D02*
X401998Y150497D01*
X398666D01*
X397000Y148831D01*
Y147164D01*
X398666Y145498D01*
X401998D01*
X403665Y143832D01*
Y142166D01*
X401998Y140500D01*
X398666D01*
X397000Y142166D01*
X413661Y140500D02*
X406997D01*
X413661Y147164D01*
Y148831D01*
X411995Y150497D01*
X408663D01*
X406997Y148831D01*
X679665Y77916D02*
Y84581D01*
X677998Y86247D01*
X674666D01*
X673000Y84581D01*
Y77916D01*
X674666Y76250D01*
X677998D01*
X676332Y79582D02*
X679665Y76250D01*
X677998D02*
X679665Y77916D01*
X682997Y76250D02*
X686329D01*
X684663D01*
Y86247D01*
X682997Y84581D01*
X669415Y713416D02*
Y720081D01*
X667748Y721747D01*
X664416D01*
X662750Y720081D01*
Y713416D01*
X664416Y711750D01*
X667748D01*
X666082Y715082D02*
X669415Y711750D01*
X667748D02*
X669415Y713416D01*
X679411Y711750D02*
X672747D01*
X679411Y718415D01*
Y720081D01*
X677745Y721747D01*
X674413D01*
X672747Y720081D01*
X835500Y441997D02*
Y432000D01*
Y435332D01*
X842165Y441997D01*
X837166Y436998D01*
X842165Y432000D01*
X845497D02*
X848829D01*
X847163D01*
Y441997D01*
X845497Y440331D01*
X246000Y287747D02*
X252665Y277750D01*
Y287747D02*
X246000Y277750D01*
X262661Y287747D02*
X255997D01*
Y282748D01*
X259329Y284415D01*
X260995D01*
X262661Y282748D01*
Y279416D01*
X260995Y277750D01*
X257663D01*
X255997Y279416D01*
X246250Y625497D02*
X252915Y615500D01*
Y625497D02*
X246250Y615500D01*
X261245D02*
Y625497D01*
X256247Y620498D01*
X262911D01*
X246000Y456247D02*
X252665Y446250D01*
Y456247D02*
X246000Y446250D01*
X255997Y454581D02*
X257663Y456247D01*
X260995D01*
X262661Y454581D01*
Y452915D01*
X260995Y451248D01*
X259329D01*
X260995D01*
X262661Y449582D01*
Y447916D01*
X260995Y446250D01*
X257663D01*
X255997Y447916D01*
X1200250Y432000D02*
Y441997D01*
X1205248D01*
X1206915Y440331D01*
Y436998D01*
X1205248Y435332D01*
X1200250D01*
X1210247Y432000D02*
X1213579D01*
X1211913D01*
Y441997D01*
X1210247Y440331D01*
X722500Y270000D02*
Y279997D01*
X727498D01*
X729165Y278331D01*
Y274998D01*
X727498Y273332D01*
X722500D01*
X725832D02*
X729165Y270000D01*
X732497Y278331D02*
X734163Y279997D01*
X737495D01*
X739161Y278331D01*
Y276665D01*
X737495Y274998D01*
X735829D01*
X737495D01*
X739161Y273332D01*
Y271666D01*
X737495Y270000D01*
X734163D01*
X732497Y271666D01*
X1022250Y367747D02*
X1028914Y357750D01*
Y367747D02*
X1022250Y357750D01*
X1038911D02*
X1032247D01*
X1038911Y364414D01*
Y366081D01*
X1037245Y367747D01*
X1033913D01*
X1032247Y366081D01*
X644750Y551247D02*
X651414D01*
X648082D01*
Y541250D01*
X654747D02*
Y551247D01*
X659745D01*
X661411Y549581D01*
Y546248D01*
X659745Y544582D01*
X654747D01*
X664744Y549581D02*
X666410Y551247D01*
X669742D01*
X671408Y549581D01*
Y547915D01*
X669742Y546248D01*
X668076D01*
X669742D01*
X671408Y544582D01*
Y542916D01*
X669742Y541250D01*
X666410D01*
X664744Y542916D01*
X571750Y551247D02*
X578414D01*
X575082D01*
Y541250D01*
X581747D02*
Y551247D01*
X586745D01*
X588411Y549581D01*
Y546248D01*
X586745Y544582D01*
X581747D01*
X598408Y541250D02*
X591744D01*
X598408Y547915D01*
Y549581D01*
X596742Y551247D01*
X593410D01*
X591744Y549581D01*
X493750Y550247D02*
X500415D01*
X497082D01*
Y540250D01*
X503747D02*
Y550247D01*
X508745D01*
X510411Y548581D01*
Y545248D01*
X508745Y543582D01*
X503747D01*
X513744Y540250D02*
X517076D01*
X515410D01*
Y550247D01*
X513744Y548581D01*
X645000Y269997D02*
X651665D01*
X648332D01*
Y260000D01*
X654997D02*
Y269997D01*
X659995D01*
X661661Y268331D01*
Y264998D01*
X659995Y263332D01*
X654997D01*
X664994Y268331D02*
X666660Y269997D01*
X669992D01*
X671658Y268331D01*
Y266665D01*
X669992Y264998D01*
X671658Y263332D01*
Y261666D01*
X669992Y260000D01*
X666660D01*
X664994Y261666D01*
Y263332D01*
X666660Y264998D01*
X664994Y266665D01*
Y268331D01*
X666660Y264998D02*
X669992D01*
X570000Y264997D02*
X576665D01*
X573332D01*
Y255000D01*
X579997D02*
Y264997D01*
X584995D01*
X586661Y263331D01*
Y259998D01*
X584995Y258332D01*
X579997D01*
X589994Y264997D02*
X596658D01*
Y263331D01*
X589994Y256666D01*
Y255000D01*
X490000Y266997D02*
X496665D01*
X493332D01*
Y257000D01*
X499997D02*
Y266997D01*
X504995D01*
X506661Y265331D01*
Y261998D01*
X504995Y260332D01*
X499997D01*
X516658Y266997D02*
X513326Y265331D01*
X509994Y261998D01*
Y258666D01*
X511660Y257000D01*
X514992D01*
X516658Y258666D01*
Y260332D01*
X514992Y261998D01*
X509994D01*
X1105000Y551247D02*
X1111665D01*
X1108332D01*
Y541250D01*
X1114997D02*
Y551247D01*
X1119995D01*
X1121661Y549581D01*
Y546248D01*
X1119995Y544582D01*
X1114997D01*
X1131658Y551247D02*
X1124994D01*
Y546248D01*
X1128326Y547915D01*
X1129992D01*
X1131658Y546248D01*
Y542916D01*
X1129992Y541250D01*
X1126660D01*
X1124994Y542916D01*
X1035000Y551247D02*
X1041665D01*
X1038332D01*
Y541250D01*
X1044997D02*
Y551247D01*
X1049995D01*
X1051661Y549581D01*
Y546248D01*
X1049995Y544582D01*
X1044997D01*
X1059992Y541250D02*
Y551247D01*
X1054994Y546248D01*
X1061658D01*
X1035000Y264997D02*
X1041665D01*
X1038332D01*
Y255000D01*
X1044997D02*
Y264997D01*
X1049995D01*
X1051661Y263331D01*
Y259998D01*
X1049995Y258332D01*
X1044997D01*
X1054994Y256666D02*
X1056660Y255000D01*
X1059992D01*
X1061658Y256666D01*
Y263331D01*
X1059992Y264997D01*
X1056660D01*
X1054994Y263331D01*
Y261665D01*
X1056660Y259998D01*
X1061658D01*
X1100000Y264997D02*
X1106665D01*
X1103332D01*
Y255000D01*
X1109997D02*
Y264997D01*
X1114995D01*
X1116661Y263331D01*
Y259998D01*
X1114995Y258332D01*
X1109997D01*
X1119994Y255000D02*
X1123326D01*
X1121660D01*
Y264997D01*
X1119994Y263331D01*
X1128324D02*
X1129990Y264997D01*
X1133323D01*
X1134989Y263331D01*
Y256666D01*
X1133323Y255000D01*
X1129990D01*
X1128324Y256666D01*
Y263331D01*
X621750Y417250D02*
Y427247D01*
X626748D01*
X628414Y425581D01*
Y422248D01*
X626748Y420582D01*
X621750D01*
X625082D02*
X628414Y417250D01*
X631747D02*
X635079D01*
X633413D01*
Y427247D01*
X631747Y425581D01*
X713750Y434250D02*
Y444247D01*
X718748D01*
X720415Y442581D01*
Y439248D01*
X718748Y437582D01*
X713750D01*
X717082D02*
X720415Y434250D01*
X730411D02*
X723747D01*
X730411Y440914D01*
Y442581D01*
X728745Y444247D01*
X725413D01*
X723747Y442581D01*
X900000Y557500D02*
Y567497D01*
X904998D01*
X906665Y565831D01*
Y562498D01*
X904998Y560832D01*
X900000D01*
X903332D02*
X906665Y557500D01*
X914995D02*
Y567497D01*
X909997Y562498D01*
X916661D01*
X844165Y263331D02*
X842498Y264997D01*
X839166D01*
X837500Y263331D01*
Y256666D01*
X839166Y255000D01*
X842498D01*
X844165Y256666D01*
X847497Y255000D02*
X850829D01*
X849163D01*
Y264997D01*
X847497Y263331D01*
D16*
X288750Y162750D02*
Y297750D01*
X40750D02*
X288750D01*
X40750Y162750D02*
Y297750D01*
Y162750D02*
X288750D01*
X40500Y500000D02*
X288500D01*
X40500D02*
Y635000D01*
X288500D01*
Y500000D02*
Y635000D01*
X40500Y330000D02*
X288500D01*
X40500D02*
Y465000D01*
X288500D01*
Y330000D02*
Y465000D01*
M02*
