M48
;Layer_Color=8421504
;FILE_FORMAT=4:4
METRIC,LZ
;TYPE=PLATED
T01F00S00C0.5000
T02F00S00C0.7800
T03F00S00C0.9000
T04F00S00C1.0000
T05F00S00C1.0000
T06F00S00C1.0008
T07F00S00C1.1000
T08F00S00C1.6000
%
T01
X0055525Y0004825
X006505Y00048
X00685Y001675
X00721Y001675
X0067575Y0029175
X00581Y0035325
X005285Y00271298
X005225Y0018475
X003635Y0021225
X002385Y0071825
X0072075Y0062775
T02
X0080555Y0033465
Y0036005
Y0038545
Y0041085
X0088495
Y0038545
Y0036005
Y0033465
T03
X00382Y0008425
X00407
X00432
Y0011725
X00407
X00382
X011973Y0039
X012227
X0081425Y0057425
X0078925
X0076425
Y0060725
X0078925
X0081425
T04
X01045Y0023
X0111
X01115Y0051625
X01045
X00654745Y00516249
X0058175Y0051625
X0058Y0023
X00655
X008206Y002925
X008714
X005Y0023
X00505745Y00516249
T05
X0072166Y000638
Y000892
X010173Y0039
X010427
X0053245Y0039375
X0050705
X0072134Y0070755
Y0073295
T06
X009658Y005325
X008642
X0075675Y0048955
Y0038795
X00757Y003208
Y002192
X0068255Y0039475
X0058095
T07
X0031825Y0012075
X008935Y0008975
X004665Y0039525
X003865Y0039575
X008935Y00709
T08
X0022975Y0020725
X0028075
Y0025825
X0022975
X002295Y003745
Y004255
X002805
Y003745
Y005445
Y005955
X002295
Y005445
M30
