G04*
G04 #@! TF.GenerationSoftware,Altium Limited,Altium Designer,24.1.2 (44)*
G04*
G04 Layer_Color=44716*
%FSLAX44Y44*%
%MOMM*%
G71*
G04*
G04 #@! TF.SameCoordinates,10F89063-6A89-4F28-B77B-1E7584C9D983*
G04*
G04*
G04 #@! TF.FilePolarity,Positive*
G04*
G01*
G75*
%ADD10C,0.1270*%
%ADD11C,0.2000*%
%ADD12C,0.1000*%
%ADD70C,0.0254*%
%ADD71C,0.0000*%
D10*
X274475Y664025D02*
X300525D01*
X274475D02*
Y715975D01*
X300525D01*
Y664025D02*
Y715975D01*
X313225Y206025D02*
X339275D01*
X313225D02*
Y257975D01*
X339275D01*
Y206025D02*
Y257975D01*
X536188Y289716D02*
Y338767D01*
X575188Y289716D02*
Y338767D01*
X536188Y289716D02*
X575188D01*
X536188Y338767D02*
X575188D01*
D11*
X288500Y652000D02*
G03*
X288500Y652000I-1000J0D01*
G01*
X327250Y194000D02*
G03*
X327250Y194000I-1000J0D01*
G01*
X597088Y337291D02*
G03*
X597088Y337291I-1000J0D01*
G01*
D12*
X520000Y62000D02*
G03*
X530000Y52000I10000J0D01*
G01*
X566000D02*
G03*
X571300Y53520I0J10000D01*
G01*
X586113Y61837D02*
G03*
X586111Y78160I-5671J8161D01*
G01*
X530000Y88000D02*
G03*
X520000Y78000I0J-10000D01*
G01*
X571300Y86480D02*
G03*
X566000Y88000I-5300J-8480D01*
G01*
X626250Y366750D02*
X660250D01*
X626250Y349250D02*
X660250D01*
Y366750D01*
X626250Y349250D02*
Y366750D01*
X473750Y322500D02*
Y356500D01*
X491250Y322500D02*
Y356500D01*
X473750D02*
X491250D01*
X473750Y322500D02*
X491250D01*
X473250Y260250D02*
Y294250D01*
X490750Y260250D02*
Y294250D01*
X473250D02*
X490750D01*
X473250Y260250D02*
X490750D01*
X711750Y643000D02*
Y677000D01*
X729250Y643000D02*
Y677000D01*
X711750D02*
X729250D01*
X711750Y643000D02*
X729250D01*
X626750Y318750D02*
X660750D01*
X626750Y336250D02*
X660750D01*
X626750Y318750D02*
Y336250D01*
X660750Y318750D02*
Y336250D01*
X445250Y322250D02*
Y356250D01*
X427750Y322250D02*
Y356250D01*
Y322250D02*
X445250D01*
X427750Y356250D02*
X445250D01*
X626750Y251250D02*
X660750D01*
X626750Y268750D02*
X660750D01*
X626750Y251250D02*
Y268750D01*
X660750Y251250D02*
Y268750D01*
X1090250Y399000D02*
X1124250D01*
X1090250Y381500D02*
X1124250D01*
Y399000D01*
X1090250Y381500D02*
Y399000D01*
X626750Y283750D02*
X660750D01*
X626750Y301250D02*
X660750D01*
X626750Y283750D02*
Y301250D01*
X660750Y283750D02*
Y301250D01*
X427500Y260500D02*
Y294500D01*
X445000Y260500D02*
Y294500D01*
X427500D02*
X445000D01*
X427500Y260500D02*
X445000D01*
X730500Y120250D02*
Y154250D01*
X713000Y120250D02*
Y154250D01*
Y120250D02*
X730500D01*
X713000Y154250D02*
X730500D01*
X641000Y117750D02*
Y151750D01*
X658500Y117750D02*
Y151750D01*
X641000D02*
X658500D01*
X641000Y117750D02*
X658500D01*
X694000Y118250D02*
Y152250D01*
X676500Y118250D02*
Y152250D01*
Y118250D02*
X694000D01*
X676500Y152250D02*
X694000D01*
X187550Y702250D02*
X199950D01*
X187550Y682250D02*
X199950D01*
X187550D02*
Y702250D01*
X199950Y682250D02*
Y702250D01*
X546750Y267800D02*
Y280200D01*
X566750Y267800D02*
Y280200D01*
X546750Y267800D02*
X566750D01*
X546750Y280200D02*
X566750D01*
X564250Y347300D02*
Y359700D01*
X544250Y347300D02*
Y359700D01*
X564250D01*
X544250Y347300D02*
X564250D01*
X560000Y178800D02*
Y191200D01*
X540000Y178800D02*
Y191200D01*
X560000D01*
X540000Y178800D02*
X560000D01*
X643800Y85000D02*
X656200D01*
X643800Y65000D02*
X656200D01*
X643800D02*
Y85000D01*
X656200Y65000D02*
Y85000D01*
X389800Y227250D02*
X402200D01*
X389800Y247250D02*
X402200D01*
Y227250D02*
Y247250D01*
X389800Y227250D02*
Y247250D01*
X232550Y682250D02*
Y702250D01*
X244950Y682250D02*
Y702250D01*
X232550D02*
X244950D01*
X232550Y682250D02*
X244950D01*
X357300Y228000D02*
Y248000D01*
X369700Y228000D02*
Y248000D01*
X357300D02*
X369700D01*
X357300Y228000D02*
X369700D01*
X520000Y62000D02*
Y78000D01*
X530000Y52000D02*
X566000Y52000D01*
X571300Y53520D02*
X586111Y61840D01*
X571300Y86480D02*
X586111Y78160D01*
X530000Y88000D02*
X566000D01*
X955750Y98497D02*
X949085Y88500D01*
Y98497D02*
X955750Y88500D01*
X945753D02*
X942421D01*
X944087D01*
Y98497D01*
X945753Y96831D01*
X937423D02*
X935756Y98497D01*
X932424D01*
X930758Y96831D01*
Y90166D01*
X932424Y88500D01*
X935756D01*
X937423Y90166D01*
Y96831D01*
X476250Y425747D02*
X469585Y415750D01*
Y425747D02*
X476250Y415750D01*
X466253Y417416D02*
X464587Y415750D01*
X461255D01*
X459589Y417416D01*
Y424081D01*
X461255Y425747D01*
X464587D01*
X466253Y424081D01*
Y422415D01*
X464587Y420748D01*
X459589D01*
X390250Y425497D02*
X383586Y415500D01*
Y425497D02*
X390250Y415500D01*
X380253Y423831D02*
X378587Y425497D01*
X375255D01*
X373589Y423831D01*
Y422164D01*
X375255Y420498D01*
X373589Y418832D01*
Y417166D01*
X375255Y415500D01*
X378587D01*
X380253Y417166D01*
Y418832D01*
X378587Y420498D01*
X380253Y422164D01*
Y423831D01*
X378587Y420498D02*
X375255D01*
X936000Y720997D02*
X929335Y711000D01*
Y720997D02*
X936000Y711000D01*
X926003Y720997D02*
X919339D01*
Y719331D01*
X926003Y712666D01*
Y711000D01*
X287250Y126497D02*
X280585Y116500D01*
Y126497D02*
X287250Y116500D01*
X277253D02*
X273921D01*
X275587D01*
Y126497D01*
X277253Y124831D01*
X268923Y116500D02*
X265590D01*
X267256D01*
Y126497D01*
X268923Y124831D01*
X652000Y377250D02*
Y387247D01*
X647002D01*
X645335Y385581D01*
Y382248D01*
X647002Y380582D01*
X652000D01*
X648668D02*
X645335Y377250D01*
X635339Y387247D02*
X642003D01*
Y382248D01*
X638671Y383914D01*
X637005D01*
X635339Y382248D01*
Y378916D01*
X637005Y377250D01*
X640337D01*
X642003Y378916D01*
X490750Y334500D02*
Y344497D01*
X485752D01*
X484086Y342831D01*
Y339498D01*
X485752Y337832D01*
X490750D01*
X487418D02*
X484086Y334500D01*
X474089Y344497D02*
X477421Y342831D01*
X480753Y339498D01*
Y336166D01*
X479087Y334500D01*
X475755D01*
X474089Y336166D01*
Y337832D01*
X475755Y339498D01*
X480753D01*
X488250Y273000D02*
Y282997D01*
X483252D01*
X481586Y281331D01*
Y277998D01*
X483252Y276332D01*
X488250D01*
X484918D02*
X481586Y273000D01*
X478253Y282997D02*
X471589D01*
Y281331D01*
X478253Y274666D01*
Y273000D01*
X695750Y658000D02*
Y667997D01*
X690752D01*
X689085Y666331D01*
Y662998D01*
X690752Y661332D01*
X695750D01*
X692418D02*
X689085Y658000D01*
X685753Y666331D02*
X684087Y667997D01*
X680755D01*
X679089Y666331D01*
Y664665D01*
X680755Y662998D01*
X679089Y661332D01*
Y659666D01*
X680755Y658000D01*
X684087D01*
X685753Y659666D01*
Y661332D01*
X684087Y662998D01*
X685753Y664665D01*
Y666331D01*
X684087Y662998D02*
X680755D01*
X692500Y329250D02*
Y339247D01*
X687502D01*
X685835Y337581D01*
Y334248D01*
X687502Y332582D01*
X692500D01*
X689168D02*
X685835Y329250D01*
X682503Y330916D02*
X680837Y329250D01*
X677505D01*
X675839Y330916D01*
Y337581D01*
X677505Y339247D01*
X680837D01*
X682503Y337581D01*
Y335914D01*
X680837Y334248D01*
X675839D01*
X447750Y334750D02*
Y344747D01*
X442752D01*
X441086Y343081D01*
Y339748D01*
X442752Y338082D01*
X447750D01*
X444418D02*
X441086Y334750D01*
X437753D02*
X434421D01*
X436087D01*
Y344747D01*
X437753Y343081D01*
X429423D02*
X427756Y344747D01*
X424424D01*
X422758Y343081D01*
Y336416D01*
X424424Y334750D01*
X427756D01*
X429423Y336416D01*
Y343081D01*
X654750Y256500D02*
Y266497D01*
X649752D01*
X648085Y264831D01*
Y261498D01*
X649752Y259832D01*
X654750D01*
X651418D02*
X648085Y256500D01*
X644753D02*
X641421D01*
X643087D01*
Y266497D01*
X644753Y264831D01*
X636423Y256500D02*
X633090D01*
X634756D01*
Y266497D01*
X636423Y264831D01*
X1123750Y412250D02*
Y422247D01*
X1118752D01*
X1117085Y420581D01*
Y417248D01*
X1118752Y415582D01*
X1123750D01*
X1120418D02*
X1117085Y412250D01*
X1113753D02*
X1110421D01*
X1112087D01*
Y422247D01*
X1113753Y420581D01*
X1098758Y412250D02*
X1105423D01*
X1098758Y418914D01*
Y420581D01*
X1100424Y422247D01*
X1103756D01*
X1105423Y420581D01*
X616250Y306750D02*
X606253D01*
Y301752D01*
X607919Y300086D01*
X611252D01*
X612918Y301752D01*
Y306750D01*
Y303418D02*
X616250Y300086D01*
Y296753D02*
Y293421D01*
Y295087D01*
X606253D01*
X607919Y296753D01*
Y288423D02*
X606253Y286756D01*
Y283424D01*
X607919Y281758D01*
X609585D01*
X611252Y283424D01*
Y285090D01*
Y283424D01*
X612918Y281758D01*
X614584D01*
X616250Y283424D01*
Y286756D01*
X614584Y288423D01*
X447250Y235000D02*
Y244997D01*
X442252D01*
X440586Y243331D01*
Y239998D01*
X442252Y238332D01*
X447250D01*
X443918D02*
X440586Y235000D01*
X437253D02*
X433921D01*
X435587D01*
Y244997D01*
X437253Y243331D01*
X423924Y235000D02*
Y244997D01*
X428923Y239998D01*
X422258D01*
X733500Y133500D02*
Y143497D01*
X728502D01*
X726835Y141831D01*
Y138498D01*
X728502Y136832D01*
X733500D01*
X730168D02*
X726835Y133500D01*
X723503D02*
X720171D01*
X721837D01*
Y143497D01*
X723503Y141831D01*
X708508Y143497D02*
X715173D01*
Y138498D01*
X711840Y140164D01*
X710174D01*
X708508Y138498D01*
Y135166D01*
X710174Y133500D01*
X713506D01*
X715173Y135166D01*
X663000Y162750D02*
Y172747D01*
X658002D01*
X656336Y171081D01*
Y167748D01*
X658002Y166082D01*
X663000D01*
X659668D02*
X656336Y162750D01*
X653003D02*
X649671D01*
X651337D01*
Y172747D01*
X653003Y171081D01*
X638008Y172747D02*
X641340Y171081D01*
X644673Y167748D01*
Y164416D01*
X643006Y162750D01*
X639674D01*
X638008Y164416D01*
Y166082D01*
X639674Y167748D01*
X644673D01*
X694250Y92000D02*
Y101997D01*
X689252D01*
X687586Y100331D01*
Y96998D01*
X689252Y95332D01*
X694250D01*
X690918D02*
X687586Y92000D01*
X684253D02*
X680921D01*
X682587D01*
Y101997D01*
X684253Y100331D01*
X675923Y93666D02*
X674256Y92000D01*
X670924D01*
X669258Y93666D01*
Y100331D01*
X670924Y101997D01*
X674256D01*
X675923Y100331D01*
Y98665D01*
X674256Y96998D01*
X669258D01*
X505000Y147997D02*
Y138000D01*
Y141332D01*
X498335Y147997D01*
X503334Y142998D01*
X498335Y138000D01*
X495003Y146331D02*
X493337Y147997D01*
X490005D01*
X488339Y146331D01*
Y144664D01*
X490005Y142998D01*
X491671D01*
X490005D01*
X488339Y141332D01*
Y139666D01*
X490005Y138000D01*
X493337D01*
X495003Y139666D01*
X198085Y667831D02*
X199752Y669497D01*
X203084D01*
X204750Y667831D01*
Y661166D01*
X203084Y659500D01*
X199752D01*
X198085Y661166D01*
X194753Y659500D02*
X191421D01*
X193087D01*
Y669497D01*
X194753Y667831D01*
X186423Y659500D02*
X183090D01*
X184757D01*
Y669497D01*
X186423Y667831D01*
X562085Y259831D02*
X563752Y261497D01*
X567084D01*
X568750Y259831D01*
Y253166D01*
X567084Y251500D01*
X563752D01*
X562085Y253166D01*
X552089Y251500D02*
X558753D01*
X552089Y258165D01*
Y259831D01*
X553755Y261497D01*
X557087D01*
X558753Y259831D01*
X559336Y377581D02*
X561002Y379247D01*
X564334D01*
X566000Y377581D01*
Y370916D01*
X564334Y369250D01*
X561002D01*
X559336Y370916D01*
X551005Y369250D02*
Y379247D01*
X556003Y374248D01*
X549339D01*
X553835Y206581D02*
X555502Y208247D01*
X558834D01*
X560500Y206581D01*
Y199916D01*
X558834Y198250D01*
X555502D01*
X553835Y199916D01*
X543839Y208247D02*
X547171Y206581D01*
X550503Y203248D01*
Y199916D01*
X548837Y198250D01*
X545505D01*
X543839Y199916D01*
Y201582D01*
X545505Y203248D01*
X550503D01*
X630336Y77581D02*
X632002Y79247D01*
X635334D01*
X637000Y77581D01*
Y70916D01*
X635334Y69250D01*
X632002D01*
X630336Y70916D01*
X627003Y79247D02*
X620339D01*
Y77581D01*
X627003Y70916D01*
Y69250D01*
X399585Y214581D02*
X401252Y216247D01*
X404584D01*
X406250Y214581D01*
Y207916D01*
X404584Y206250D01*
X401252D01*
X399585Y207916D01*
X389589Y216247D02*
X396253D01*
Y211248D01*
X392921Y212915D01*
X391255D01*
X389589Y211248D01*
Y207916D01*
X391255Y206250D01*
X394587D01*
X396253Y207916D01*
X243335Y665581D02*
X245002Y667247D01*
X248334D01*
X250000Y665581D01*
Y658916D01*
X248334Y657250D01*
X245002D01*
X243335Y658916D01*
X240003D02*
X238337Y657250D01*
X235005D01*
X233339Y658916D01*
Y665581D01*
X235005Y667247D01*
X238337D01*
X240003Y665581D01*
Y663914D01*
X238337Y662248D01*
X233339D01*
X365085Y276331D02*
X366752Y277997D01*
X370084D01*
X371750Y276331D01*
Y269666D01*
X370084Y268000D01*
X366752D01*
X365085Y269666D01*
X361753Y276331D02*
X360087Y277997D01*
X356755D01*
X355089Y276331D01*
Y274664D01*
X356755Y272998D01*
X358421D01*
X356755D01*
X355089Y271332D01*
Y269666D01*
X356755Y268000D01*
X360087D01*
X361753Y269666D01*
X325750Y691997D02*
Y682000D01*
X320752D01*
X319086Y683666D01*
Y690331D01*
X320752Y691997D01*
X325750D01*
X315753Y682000D02*
X312421D01*
X314087D01*
Y691997D01*
X315753Y690331D01*
X335250Y282997D02*
Y273000D01*
X330252D01*
X328586Y274666D01*
Y281331D01*
X330252Y282997D01*
X335250D01*
X318589Y273000D02*
X325253D01*
X318589Y279664D01*
Y281331D01*
X320255Y282997D01*
X323587D01*
X325253Y281331D01*
X513500Y312997D02*
Y303000D01*
Y306332D01*
X506836Y312997D01*
X511834Y307998D01*
X506836Y303000D01*
X496839D02*
X503503D01*
X496839Y309664D01*
Y311331D01*
X498505Y312997D01*
X501837D01*
X503503Y311331D01*
X507500Y74997D02*
X500835Y65000D01*
Y74997D02*
X507500Y65000D01*
X490839Y74997D02*
X494171Y73331D01*
X497503Y69998D01*
Y66666D01*
X495837Y65000D01*
X492505D01*
X490839Y66666D01*
Y68332D01*
X492505Y69998D01*
X497503D01*
D70*
X570828Y118029D02*
Y167051D01*
X531712D02*
X570828D01*
X531712Y118029D02*
Y167051D01*
Y118029D02*
X570828D01*
X521298Y164130D02*
X531712D01*
X521298Y159050D02*
Y164130D01*
Y159050D02*
X531712D01*
Y164130D01*
X521298Y151430D02*
X531712D01*
X521298Y146350D02*
Y151430D01*
Y146350D02*
X531712D01*
Y151430D01*
X521298Y138730D02*
X531712D01*
X521298Y133650D02*
Y138730D01*
Y133650D02*
X531712D01*
Y138730D01*
X521298Y126030D02*
X531712D01*
X521298Y120950D02*
Y126030D01*
Y120950D02*
X531712D01*
Y126030D01*
X570828Y120950D02*
X581242D01*
Y126030D01*
X570828D02*
X581242D01*
X570828Y120950D02*
Y126030D01*
Y133650D02*
X581242D01*
Y138730D01*
X570828D02*
X581242D01*
X570828Y133650D02*
Y138730D01*
Y146350D02*
X581242D01*
Y151430D01*
X570828D02*
X581242D01*
X570828Y146350D02*
Y151430D01*
Y159050D02*
X581242D01*
Y164130D01*
X570828D02*
X581242D01*
X570828Y159050D02*
Y164130D01*
D71*
X548222Y167051D02*
G03*
X554318Y167051I3048J0D01*
G01*
M02*
