G04*
G04 #@! TF.GenerationSoftware,Altium Limited,Altium Designer,24.1.2 (44)*
G04*
G04 Layer_Color=8757620*
%FSLAX44Y44*%
%MOMM*%
G71*
G04*
G04 #@! TF.SameCoordinates,10F89063-6A89-4F28-B77B-1E7584C9D983*
G04*
G04*
G04 #@! TF.FilePolarity,Negative*
G04*
G01*
G75*
%ADD18C,1.0000*%
%ADD19C,2.1032*%
%ADD20C,2.0032*%
%ADD21R,2.0032X2.0032*%
%ADD22C,1.9032*%
%ADD23R,1.7032X1.7032*%
%ADD24C,1.7032*%
%ADD25C,2.6032*%
%ADD26C,8.2032*%
%ADD27R,1.9032X1.9032*%
%ADD28C,2.4028*%
%ADD29C,0.8500*%
%ADD30R,2.4032X2.4032*%
%ADD31R,2.4032X2.4032*%
%ADD32C,2.4032*%
%ADD33C,1.2032*%
D18*
X726340Y707550D02*
G03*
X726340Y707550I-5000J0D01*
G01*
Y732950D02*
G03*
X726340Y732950I-5000J0D01*
G01*
X726660Y63800D02*
G03*
X726660Y63800I-5000J0D01*
G01*
Y89200D02*
G03*
X726660Y89200I-5000J0D01*
G01*
D19*
X893500Y89750D02*
D03*
X466500Y395250D02*
D03*
X386500Y395750D02*
D03*
X893500Y709000D02*
D03*
X318250Y120750D02*
D03*
D20*
X532450Y393750D02*
D03*
X1042700Y390000D02*
D03*
D21*
X507050Y393750D02*
D03*
X1017300Y390000D02*
D03*
D22*
X789250Y574250D02*
D03*
X764250D02*
D03*
Y607250D02*
D03*
X789250D02*
D03*
X814250D02*
D03*
Y574250D02*
D03*
X407000Y84250D02*
D03*
X382000D02*
D03*
Y117250D02*
D03*
X407000D02*
D03*
X432000D02*
D03*
Y84250D02*
D03*
X1222700Y390000D02*
D03*
D23*
X805550Y410850D02*
D03*
D24*
Y385450D02*
D03*
Y360050D02*
D03*
Y334650D02*
D03*
X884950D02*
D03*
Y360050D02*
D03*
Y385450D02*
D03*
Y410850D02*
D03*
D25*
X280750Y207250D02*
D03*
X229750D02*
D03*
X280750Y258250D02*
D03*
X229750D02*
D03*
X229500Y595500D02*
D03*
X280500D02*
D03*
X229500Y544500D02*
D03*
X280500D02*
D03*
X229500Y425500D02*
D03*
X280500D02*
D03*
X229500Y374500D02*
D03*
X280500D02*
D03*
D26*
X1220000Y720000D02*
D03*
X80000D02*
D03*
Y80000D02*
D03*
X1220000D02*
D03*
D27*
X1197300Y390000D02*
D03*
D28*
X757000Y219200D02*
D03*
Y320800D02*
D03*
X580950Y394750D02*
D03*
X682550D02*
D03*
X756750Y489550D02*
D03*
Y387950D02*
D03*
X864200Y532500D02*
D03*
X965800D02*
D03*
D29*
X529600Y59840D02*
D03*
Y80160D02*
D03*
X580400Y70000D02*
D03*
D30*
X654745Y516249D02*
D03*
X581750Y516250D02*
D03*
X505745Y516249D02*
D03*
X655000Y230000D02*
D03*
X580000D02*
D03*
X500000D02*
D03*
X1115000Y516250D02*
D03*
X1045000D02*
D03*
Y230000D02*
D03*
D31*
X1110000D02*
D03*
D32*
X820600Y292500D02*
D03*
X871400D02*
D03*
D33*
X528500Y271298D02*
D03*
X581000Y353250D02*
D03*
X650500Y48000D02*
D03*
X555250Y48250D02*
D03*
X238500Y718250D02*
D03*
X675750Y291750D02*
D03*
X721000Y167500D02*
D03*
X720750Y627750D02*
D03*
X685000Y167500D02*
D03*
X363500Y212250D02*
D03*
X522500Y184750D02*
D03*
M02*
