G04*
G04 #@! TF.GenerationSoftware,Altium Limited,Altium Designer,24.1.2 (44)*
G04*
G04 Layer_Color=16777215*
%FSLAX44Y44*%
%MOMM*%
G71*
G04*
G04 #@! TF.SameCoordinates,9659F079-296E-40C6-98A9-55E0524B4074*
G04*
G04*
G04 #@! TF.FilePolarity,Positive*
G04*
G01*
G75*
%ADD13C,0.1000*%
%ADD68C,0.0254*%
D13*
X255250Y227750D02*
Y237750D01*
X250250Y232750D02*
X260250D01*
X250000Y570000D02*
X260000D01*
X255000Y565000D02*
Y575000D01*
X250000Y400000D02*
X260000D01*
X255000Y395000D02*
Y405000D01*
D68*
X758410Y270000D02*
G03*
X758410Y270000I-1410J0D01*
G01*
X556410Y70000D02*
G03*
X556410Y70000I-1410J0D01*
G01*
X1031410Y390000D02*
G03*
X1031410Y390000I-1410J0D01*
G01*
X656155Y516249D02*
G03*
X656155Y516249I-1410J0D01*
G01*
X583160Y516250D02*
G03*
X583160Y516250I-1410J0D01*
G01*
X507155Y516249D02*
G03*
X507155Y516249I-1410J0D01*
G01*
X656410Y230000D02*
G03*
X656410Y230000I-1410J0D01*
G01*
X581410D02*
G03*
X581410Y230000I-1410J0D01*
G01*
X501410D02*
G03*
X501410Y230000I-1410J0D01*
G01*
X1116410Y516250D02*
G03*
X1116410Y516250I-1410J0D01*
G01*
X1046410D02*
G03*
X1046410Y516250I-1410J0D01*
G01*
Y230000D02*
G03*
X1046410Y230000I-1410J0D01*
G01*
X1111410D02*
G03*
X1111410Y230000I-1410J0D01*
G01*
X521410Y390000D02*
G03*
X521410Y390000I-1410J0D01*
G01*
X631410Y390000D02*
G03*
X631410Y390000I-1410J0D01*
G01*
X758910Y410000D02*
G03*
X758910Y410000I-1410J0D01*
G01*
X916410Y532500D02*
G03*
X916410Y532500I-1410J0D01*
G01*
X847410Y292500D02*
G03*
X847410Y292500I-1410J0D01*
G01*
X757000Y268000D02*
Y272000D01*
X755000Y270000D02*
X759000D01*
X755000D02*
X759000D01*
X757000Y268000D02*
Y272000D01*
X555000Y68000D02*
Y72000D01*
X553000Y70000D02*
X557000D01*
X553000D02*
X557000D01*
X555000Y68000D02*
Y72000D01*
X1028000Y390000D02*
X1032000D01*
X1030000Y388000D02*
Y392000D01*
X654745Y514249D02*
Y518249D01*
X652745Y516249D02*
X656745D01*
X652745D02*
X656745D01*
X654745Y514249D02*
Y518249D01*
X581750Y514250D02*
Y518250D01*
X579750Y516250D02*
X583750D01*
X579750D02*
X583750D01*
X581750Y514250D02*
Y518250D01*
X505745Y514249D02*
Y518249D01*
X503745Y516249D02*
X507745D01*
X503745D02*
X507745D01*
X505745Y514249D02*
Y518249D01*
X655000Y228000D02*
Y232000D01*
X653000Y230000D02*
X657000D01*
X653000D02*
X657000D01*
X655000Y228000D02*
Y232000D01*
X580000Y228000D02*
Y232000D01*
X578000Y230000D02*
X582000D01*
X578000D02*
X582000D01*
X580000Y228000D02*
Y232000D01*
X500000Y228000D02*
Y232000D01*
X498000Y230000D02*
X502000D01*
X498000D02*
X502000D01*
X500000Y228000D02*
Y232000D01*
X1115000Y514250D02*
Y518250D01*
X1113000Y516250D02*
X1117000D01*
X1113000D02*
X1117000D01*
X1115000Y514250D02*
Y518250D01*
X1045000Y514250D02*
Y518250D01*
X1043000Y516250D02*
X1047000D01*
X1043000D02*
X1047000D01*
X1045000Y514250D02*
Y518250D01*
Y228000D02*
Y232000D01*
X1043000Y230000D02*
X1047000D01*
X1043000D02*
X1047000D01*
X1045000Y228000D02*
Y232000D01*
X1108000Y230000D02*
X1112000D01*
X1110000Y228000D02*
Y232000D01*
Y228000D02*
Y232000D01*
X1108000Y230000D02*
X1112000D01*
X518000Y390000D02*
X522000D01*
X520000Y388000D02*
Y392000D01*
X628000Y390000D02*
X632000D01*
X630000Y388000D02*
Y392000D01*
Y388000D02*
Y392000D01*
X628000Y390000D02*
X632000D01*
X757500Y408000D02*
Y412000D01*
X755500Y410000D02*
X759500D01*
X755500D02*
X759500D01*
X757500Y408000D02*
Y412000D01*
X913000Y532500D02*
X917000D01*
X915000Y530500D02*
Y534500D01*
Y530500D02*
Y534500D01*
X913000Y532500D02*
X917000D01*
X846000Y290500D02*
Y294500D01*
X844000Y292500D02*
X848000D01*
X844000D02*
X848000D01*
X846000Y290500D02*
Y294500D01*
M02*
