G04*
G04 #@! TF.GenerationSoftware,Altium Limited,Altium Designer,24.1.2 (44)*
G04*
G04 Layer_Color=8388608*
%FSLAX44Y44*%
%MOMM*%
G71*
G04*
G04 #@! TF.SameCoordinates,9659F079-296E-40C6-98A9-55E0524B4074*
G04*
G04*
G04 #@! TF.FilePolarity,Positive*
G04*
G01*
G75*
%ADD12C,0.0500*%
%ADD13C,0.1000*%
%ADD16C,0.2540*%
D12*
X744250Y617750D02*
X815250D01*
X834250D01*
Y563750D02*
Y617750D01*
X744250Y563750D02*
Y617750D01*
Y563750D02*
X834250D01*
X362000Y127750D02*
X433000D01*
X452000D01*
Y73750D02*
Y127750D01*
X362000Y73750D02*
Y127750D01*
Y73750D02*
X452000D01*
X748160Y55870D02*
Y104130D01*
X695160Y55870D02*
X748160D01*
X695160D02*
Y104130D01*
X748160D01*
X694840Y696120D02*
X747840D01*
Y744380D01*
X694840D02*
X747840D01*
X694840Y696120D02*
Y744380D01*
X797400Y423200D02*
X893100D01*
X797400Y322300D02*
X893100D01*
Y423200D01*
X797400Y322300D02*
Y423200D01*
D13*
X1242500Y720000D02*
G03*
X1242500Y720000I-22500J0D01*
G01*
X102500D02*
G03*
X102500Y720000I-22500J0D01*
G01*
Y80000D02*
G03*
X102500Y80000I-22500J0D01*
G01*
X1242500D02*
G03*
X1242500Y80000I-22500J0D01*
G01*
X1239500Y390000D02*
G03*
X1239500Y390000I-29500J0D01*
G01*
X744000Y206000D02*
Y334000D01*
X770000Y206000D02*
Y334000D01*
X744000D02*
X770000D01*
X744000Y206000D02*
X770000D01*
X1004691Y378186D02*
Y401996D01*
X1055594Y378186D02*
Y401996D01*
X1004691D02*
X1055594D01*
X1004691Y378186D02*
X1055594D01*
X640745Y502249D02*
Y530249D01*
X668745Y502249D02*
Y530249D01*
X640745D02*
X668745D01*
X640745Y502249D02*
X668745D01*
X567750Y502250D02*
Y530250D01*
X595750Y502250D02*
Y530250D01*
X567750D02*
X595750D01*
X567750Y502250D02*
X595750D01*
X491745Y502249D02*
Y530249D01*
X519745Y502249D02*
Y530249D01*
X491745D02*
X519745D01*
X491745Y502249D02*
X519745D01*
X641000Y216000D02*
Y244000D01*
X669000Y216000D02*
Y244000D01*
X641000D02*
X669000D01*
X641000Y216000D02*
X669000D01*
X566000D02*
Y244000D01*
X594000Y216000D02*
Y244000D01*
X566000D02*
X594000D01*
X566000Y216000D02*
X594000D01*
X486000D02*
Y244000D01*
X514000Y216000D02*
Y244000D01*
X486000D02*
X514000D01*
X486000Y216000D02*
X514000D01*
X1101000Y502250D02*
Y530250D01*
X1129000Y502250D02*
Y530250D01*
X1101000D02*
X1129000D01*
X1101000Y502250D02*
X1129000D01*
X1031000D02*
Y530250D01*
X1059000Y502250D02*
Y530250D01*
X1031000D02*
X1059000D01*
X1031000Y502250D02*
X1059000D01*
X1031000Y216000D02*
Y244000D01*
X1059000Y216000D02*
Y244000D01*
X1031000D02*
X1059000D01*
X1031000Y216000D02*
X1059000D01*
X1096000D02*
X1124000D01*
X1096000Y244000D02*
X1124000D01*
X1096000Y216000D02*
Y244000D01*
X1124000Y216000D02*
Y244000D01*
X494691Y378186D02*
Y401996D01*
X545594Y378186D02*
Y401996D01*
X494691D02*
X545594D01*
X494691Y378186D02*
X545594D01*
X694000Y377000D02*
Y403000D01*
X566000Y377000D02*
Y403000D01*
X694000D01*
X566000Y377000D02*
X694000D01*
X744500Y346000D02*
X770500D01*
X744500Y474000D02*
X770500D01*
Y346000D02*
Y474000D01*
X744500Y346000D02*
Y474000D01*
X979000Y519500D02*
Y545500D01*
X851000Y519500D02*
Y545500D01*
X979000D01*
X851000Y519500D02*
X979000D01*
X804000Y314500D02*
X888000D01*
Y270500D02*
Y314500D01*
X804000Y270500D02*
X888000D01*
X804000D02*
Y314500D01*
D16*
X295250Y162750D02*
Y297750D01*
X40250D02*
X295250D01*
X40250Y162750D02*
X295250D01*
X40250D02*
Y297750D01*
X40000Y500000D02*
Y635000D01*
Y500000D02*
X295000D01*
X40000Y635000D02*
X295000D01*
Y500000D02*
Y635000D01*
X40000Y330000D02*
Y465000D01*
Y330000D02*
X295000D01*
X40000Y465000D02*
X295000D01*
Y330000D02*
Y465000D01*
M02*
