M48
;Layer_Color=8421504
;FILE_FORMAT=4:4
METRIC,LZ
T09F00S00C2.0000
%
G90
G05
T09
G00X01303137Y-00009495
M15
G01X01305957Y-00008032
G01X01308176Y-00005758
G01X0130957Y-00002902
G01X0131Y0
G01X0131Y008
G01X01309495Y00803137
G01X01308032Y00805957
G01X01305758Y00808176
G01X01302902Y0080957
G01X013Y0081
G01X0Y0081
G01X-00003137Y00809495
G01X-00005957Y00808032
G01X-00008176Y00805758
G01X-0000957Y00802902
G01X-0001Y008
G01X-0001Y0
G01X-00009495Y-00003137
G01X-00008032Y-00005957
G01X-00005758Y-00008176
G01X-00002902Y-0000957
G01X0Y-0001
G01X013Y-0001
G01X01303137Y-00009495
M16
M17
M30
