G04*
G04 #@! TF.GenerationSoftware,Altium Limited,Altium Designer,24.1.2 (44)*
G04*
G04 Layer_Color=16737894*
%FSLAX44Y44*%
%MOMM*%
G71*
G04*
G04 #@! TF.SameCoordinates,C4B2C0E0-4E9B-487C-9046-04FF2B3DFFC7*
G04*
G04*
G04 #@! TF.FilePolarity,Positive*
G04*
G01*
G75*
%ADD12C,0.0500*%
%ADD13C,0.1000*%
%ADD66C,0.1524*%
D12*
X202640Y674470D02*
Y710030D01*
X184860Y674470D02*
X202640D01*
X184860D02*
Y710030D01*
X202640D01*
X538970Y282890D02*
X574530D01*
Y265110D02*
Y282890D01*
X538970Y265110D02*
X574530D01*
X538970D02*
Y282890D01*
X536470Y344610D02*
X572030D01*
X536470D02*
Y362390D01*
X572030D01*
Y344610D02*
Y362390D01*
X532220Y176110D02*
X567780D01*
X532220D02*
Y193890D01*
X567780D01*
Y176110D02*
Y193890D01*
X658890Y57220D02*
Y92780D01*
X641110Y57220D02*
X658890D01*
X641110D02*
Y92780D01*
X658890D01*
X387110Y219470D02*
Y255030D01*
X404890D01*
Y219470D02*
Y255030D01*
X387110Y219470D02*
X404890D01*
X623720Y350157D02*
X659280D01*
Y332377D02*
Y350157D01*
X623720Y332377D02*
X659280D01*
X623720D02*
Y350157D01*
X229860Y674470D02*
X247640D01*
Y710030D01*
X229860D02*
X247640D01*
X229860Y674470D02*
Y710030D01*
X354610Y220220D02*
X372390D01*
Y255780D01*
X354610D02*
X372390D01*
X354610Y220220D02*
Y255780D01*
X271975Y654500D02*
X303025D01*
X271975D02*
Y725500D01*
X303025D01*
Y654500D02*
Y725500D01*
X310725Y196500D02*
X341775D01*
X310725D02*
Y267500D01*
X341775D01*
Y196500D02*
Y267500D01*
X518638Y287216D02*
Y341267D01*
X592738Y287216D02*
Y341267D01*
X518638Y287216D02*
X592738D01*
X518638Y341267D02*
X592738D01*
D13*
X595000Y39500D02*
G03*
X605000Y49500I0J10000D01*
G01*
Y90500D02*
G03*
X595000Y100500I-10000J0D01*
G01*
X505000Y49500D02*
G03*
X515000Y39500I10000J0D01*
G01*
Y100500D02*
G03*
X505000Y90500I0J-10000D01*
G01*
X879225Y75475D02*
Y103475D01*
X907225Y75475D02*
Y103475D01*
X879225D02*
X907225D01*
X879225Y75475D02*
X907225D01*
X619750Y353000D02*
X664000D01*
X619750Y379000D02*
X664000D01*
X619750Y353000D02*
Y379000D01*
X664000Y353000D02*
Y379000D01*
X469750Y317750D02*
Y362000D01*
X495750Y317750D02*
Y362000D01*
X469750D02*
X495750D01*
X469750Y317750D02*
X495750D01*
X469250Y255500D02*
Y299750D01*
X495250Y255500D02*
Y299750D01*
X469250D02*
X495250D01*
X469250Y255500D02*
X495250D01*
X707750Y638250D02*
Y682500D01*
X733750Y638250D02*
Y682500D01*
X707750D02*
X733750D01*
X707750Y638250D02*
X733750D01*
X621750Y303000D02*
X666000D01*
X621750Y329000D02*
X666000D01*
X621750Y303000D02*
Y329000D01*
X666000Y303000D02*
Y329000D01*
X449250Y316750D02*
Y361000D01*
X423250Y316750D02*
Y361000D01*
Y316750D02*
X449250D01*
X423250Y361000D02*
X449250D01*
X621500Y245000D02*
X665750D01*
X621500Y271000D02*
X665750D01*
X621500Y245000D02*
Y271000D01*
X665750Y245000D02*
Y271000D01*
X1086250Y420500D02*
X1130500D01*
X1086250Y394500D02*
X1130500D01*
Y420500D01*
X1086250Y394500D02*
Y420500D01*
X621500Y274000D02*
X665750D01*
X621500Y300000D02*
X665750D01*
X621500Y274000D02*
Y300000D01*
X665750Y274000D02*
Y300000D01*
X423500Y255750D02*
Y300000D01*
X449500Y255750D02*
Y300000D01*
X423500D02*
X449500D01*
X423500Y255750D02*
X449500D01*
X734500Y114750D02*
Y159000D01*
X708500Y114750D02*
Y159000D01*
Y114750D02*
X734500D01*
X708500Y159000D02*
X734500D01*
X637000Y113000D02*
Y157250D01*
X663000Y113000D02*
Y157250D01*
X637000D02*
X663000D01*
X637000Y113000D02*
X663000D01*
X698000Y112750D02*
Y157000D01*
X672000Y112750D02*
Y157000D01*
Y112750D02*
X698000D01*
X672000Y157000D02*
X698000D01*
X300750Y117000D02*
X328750D01*
X300750Y145000D02*
X328750D01*
Y117000D02*
Y145000D01*
X300750Y117000D02*
Y145000D01*
X369500Y327000D02*
X397500D01*
X369500Y355000D02*
X397500D01*
Y327000D02*
Y355000D01*
X369500Y327000D02*
Y355000D01*
Y371000D02*
X397500D01*
X369500Y399000D02*
X397500D01*
Y371000D02*
Y399000D01*
X369500Y371000D02*
Y399000D01*
X907500Y694275D02*
Y722275D01*
X879500Y694275D02*
Y722275D01*
X907500D01*
X879500Y694275D02*
X907500D01*
X605000Y49500D02*
Y90500D01*
X505000Y49500D02*
Y90500D01*
X515000Y100500D02*
X595000D01*
X515000Y39500D02*
X595000D01*
D66*
X573368Y118156D02*
X587338D01*
X573368Y115489D02*
Y118156D01*
X529172Y115489D02*
X573368D01*
X529172D02*
Y118156D01*
X515202D02*
X529172D01*
X515202D02*
Y166924D01*
X529172D01*
Y169591D01*
X573368D01*
Y166924D02*
Y169591D01*
Y166924D02*
X587338D01*
Y118156D02*
Y166924D01*
M02*
