G04*
G04 #@! TF.GenerationSoftware,Altium Limited,Altium Designer,24.1.2 (44)*
G04*
G04 Layer_Color=8388608*
%FSLAX44Y44*%
%MOMM*%
G71*
G04*
G04 #@! TF.SameCoordinates,C4B2C0E0-4E9B-487C-9046-04FF2B3DFFC7*
G04*
G04*
G04 #@! TF.FilePolarity,Positive*
G04*
G01*
G75*
%ADD12C,0.0500*%
%ADD13C,0.1000*%
%ADD18C,0.2540*%
D12*
X746000Y600250D02*
X836000D01*
X746000D02*
Y654250D01*
X836000Y600250D02*
Y654250D01*
X817000D02*
X836000D01*
X746000D02*
X817000D01*
X362000Y73750D02*
X452000D01*
X362000D02*
Y127750D01*
X452000Y73750D02*
Y127750D01*
X433000D02*
X452000D01*
X362000D02*
X433000D01*
X694840Y696120D02*
Y744380D01*
X747840D01*
Y696120D02*
Y744380D01*
X694840Y696120D02*
X747840D01*
X695160Y104130D02*
X748160D01*
X695160Y55870D02*
Y104130D01*
Y55870D02*
X748160D01*
Y104130D01*
X800900Y356800D02*
Y457700D01*
X896600Y356800D02*
Y457700D01*
X800900Y356800D02*
X896600D01*
X800900Y457700D02*
X896600D01*
D13*
X1242500Y720000D02*
G03*
X1242500Y720000I-22500J0D01*
G01*
X102500D02*
G03*
X102500Y720000I-22500J0D01*
G01*
Y80000D02*
G03*
X102500Y80000I-22500J0D01*
G01*
X1242500D02*
G03*
X1242500Y80000I-22500J0D01*
G01*
X1239750Y407750D02*
G03*
X1239750Y407750I-29500J0D01*
G01*
X706500Y277000D02*
X750500D01*
Y361000D01*
X706500D02*
X750500D01*
X706500Y277000D02*
Y361000D01*
X494441Y381936D02*
X545344D01*
X494441Y405746D02*
X545344D01*
Y381936D02*
Y405746D01*
X494441Y381936D02*
Y405746D01*
X756000Y255000D02*
Y383000D01*
X782000Y255000D02*
Y383000D01*
X756000D02*
X782000D01*
X756000Y255000D02*
X782000D01*
X1005191Y395436D02*
Y419246D01*
X1056094Y395436D02*
Y419246D01*
X1005191D02*
X1056094D01*
X1005191Y395436D02*
X1056094D01*
X640745Y502249D02*
Y530249D01*
X668745Y502249D02*
Y530249D01*
X640745D02*
X668745D01*
X640745Y502249D02*
X668745D01*
X567750Y502250D02*
Y530250D01*
X595750Y502250D02*
Y530250D01*
X567750D02*
X595750D01*
X567750Y502250D02*
X595750D01*
X491745Y502249D02*
Y530249D01*
X519745Y502249D02*
Y530249D01*
X491745D02*
X519745D01*
X491745Y502249D02*
X519745D01*
X641000Y216000D02*
Y244000D01*
X669000Y216000D02*
Y244000D01*
X641000D02*
X669000D01*
X641000Y216000D02*
X669000D01*
X566000D02*
Y244000D01*
X594000Y216000D02*
Y244000D01*
X566000D02*
X594000D01*
X566000Y216000D02*
X594000D01*
X486000D02*
Y244000D01*
X514000Y216000D02*
Y244000D01*
X486000D02*
X514000D01*
X486000Y216000D02*
X514000D01*
X1101000Y502250D02*
Y530250D01*
X1129000Y502250D02*
Y530250D01*
X1101000D02*
X1129000D01*
X1101000Y502250D02*
X1129000D01*
X1031000D02*
Y530250D01*
X1059000Y502250D02*
Y530250D01*
X1031000D02*
X1059000D01*
X1031000Y502250D02*
X1059000D01*
X1031000Y216000D02*
Y244000D01*
X1059000Y216000D02*
Y244000D01*
X1031000D02*
X1059000D01*
X1031000Y216000D02*
X1059000D01*
X1096000D02*
X1124000D01*
X1096000Y244000D02*
X1124000D01*
X1096000Y216000D02*
Y244000D01*
X1124000Y216000D02*
Y244000D01*
X751750Y380500D02*
Y406500D01*
X623750Y380500D02*
Y406500D01*
X751750D01*
X623750Y380500D02*
X751750D01*
X755500Y408000D02*
X781500D01*
X755500Y536000D02*
X781500D01*
Y408000D02*
Y536000D01*
X755500Y408000D02*
Y536000D01*
X988500Y613500D02*
Y639500D01*
X860500Y613500D02*
Y639500D01*
X988500D01*
X860500Y613500D02*
X988500D01*
X807250Y354250D02*
X891250D01*
Y310250D02*
Y354250D01*
X807250Y310250D02*
X891250D01*
X807250D02*
Y354250D01*
D18*
X40250Y162750D02*
Y297750D01*
Y162750D02*
X295250D01*
X40250Y297750D02*
X295250D01*
Y162750D02*
Y297750D01*
X40000Y500000D02*
Y635000D01*
Y500000D02*
X295000D01*
X40000Y635000D02*
X295000D01*
Y500000D02*
Y635000D01*
X40000Y330000D02*
Y465000D01*
Y330000D02*
X295000D01*
X40000Y465000D02*
X295000D01*
Y330000D02*
Y465000D01*
M02*
