G04*
G04 #@! TF.GenerationSoftware,Altium Limited,Altium Designer,24.1.2 (44)*
G04*
G04 Layer_Physical_Order=1*
G04 Layer_Color=13278208*
%FSLAX44Y44*%
%MOMM*%
G71*
G04*
G04 #@! TF.SameCoordinates,9659F079-296E-40C6-98A9-55E0524B4074*
G04*
G04*
G04 #@! TF.FilePolarity,Positive*
G04*
G01*
G75*
%ADD16C,0.2540*%
%ADD26C,0.8500*%
%ADD33C,0.4000*%
%ADD34C,1.7000*%
%ADD35C,2.0000*%
%ADD36R,1.5000X1.5000*%
%ADD37C,1.5000*%
%ADD38C,2.4000*%
%ADD39C,8.0000*%
%ADD40R,1.7000X1.7000*%
%ADD41C,2.1996*%
%ADD42R,1.8000X1.8000*%
%ADD43C,1.8000*%
%ADD44R,2.2000X2.2000*%
%ADD45R,2.2000X2.2000*%
%ADD46C,2.2000*%
%ADD47C,1.0000*%
G36*
X1127500Y627500D02*
X1257500D01*
Y167500D01*
X1127500D01*
Y27500D01*
X167500D01*
Y167500D01*
X32500D01*
Y625000D01*
X35000Y627500D01*
X167500D01*
Y767500D01*
X1127500D01*
Y627500D01*
D02*
G37*
%LPC*%
G36*
X722920Y744950D02*
X719760D01*
X716708Y744132D01*
X713972Y742552D01*
X711738Y740318D01*
X710158Y737582D01*
X709340Y734530D01*
Y731370D01*
X710158Y728318D01*
X711738Y725582D01*
X713972Y723348D01*
X716708Y721768D01*
X719760Y720950D01*
X722920D01*
X725972Y721768D01*
X728708Y723348D01*
X730942Y725582D01*
X732522Y728318D01*
X733340Y731370D01*
Y734530D01*
X732522Y737582D01*
X730942Y740318D01*
X728708Y742552D01*
X725972Y744132D01*
X722920Y744950D01*
D02*
G37*
G36*
Y719550D02*
X719760D01*
X716708Y718732D01*
X713972Y717152D01*
X711738Y714918D01*
X710158Y712182D01*
X709340Y709130D01*
Y705970D01*
X710158Y702918D01*
X711738Y700182D01*
X713972Y697948D01*
X716708Y696368D01*
X719760Y695550D01*
X722920D01*
X725972Y696368D01*
X728708Y697948D01*
X730942Y700182D01*
X732522Y702918D01*
X733340Y705970D01*
Y709130D01*
X732522Y712182D01*
X730942Y714918D01*
X728708Y717152D01*
X725972Y718732D01*
X722920Y719550D01*
D02*
G37*
G36*
X282343Y609500D02*
X278657D01*
X275096Y608546D01*
X271904Y606703D01*
X269297Y604096D01*
X267454Y600904D01*
X266900Y598834D01*
X243100D01*
X242546Y600904D01*
X240703Y604096D01*
X238096Y606703D01*
X234904Y608546D01*
X231343Y609500D01*
X227657D01*
X224096Y608546D01*
X220904Y606703D01*
X218297Y604096D01*
X216454Y600904D01*
X215500Y597343D01*
Y593657D01*
X216454Y590096D01*
X218297Y586904D01*
X220904Y584297D01*
X224096Y582454D01*
X226166Y581899D01*
Y558101D01*
X224096Y557546D01*
X220904Y555703D01*
X218297Y553096D01*
X216454Y549904D01*
X215500Y546343D01*
Y542657D01*
X216454Y539096D01*
X218297Y535904D01*
X220904Y533297D01*
X224096Y531454D01*
X227657Y530500D01*
X231343D01*
X234904Y531454D01*
X238096Y533297D01*
X240703Y535904D01*
X242546Y539096D01*
X243100Y541166D01*
X266900D01*
X267454Y539096D01*
X269297Y535904D01*
X271904Y533297D01*
X275096Y531454D01*
X278657Y530500D01*
X282343D01*
X285904Y531454D01*
X289096Y533297D01*
X291703Y535904D01*
X293546Y539096D01*
X294500Y542657D01*
Y546343D01*
X293546Y549904D01*
X291703Y553096D01*
X289096Y555703D01*
X285904Y557546D01*
X282343Y558500D01*
X278657D01*
X275096Y557546D01*
X271904Y555703D01*
X269297Y553096D01*
X267454Y549904D01*
X266900Y547834D01*
X243100D01*
X242546Y549904D01*
X240703Y553096D01*
X238096Y555703D01*
X234904Y557546D01*
X232834Y558101D01*
Y581899D01*
X234904Y582454D01*
X238096Y584297D01*
X240703Y586904D01*
X242546Y590096D01*
X243100Y592166D01*
X266900D01*
X267454Y590096D01*
X269297Y586904D01*
X271904Y584297D01*
X275096Y582454D01*
X278657Y581500D01*
X282343D01*
X285904Y582454D01*
X289096Y584297D01*
X291703Y586904D01*
X293546Y590096D01*
X294500Y593657D01*
Y597343D01*
X293546Y600904D01*
X291703Y604096D01*
X289096Y606703D01*
X285904Y608546D01*
X282343Y609500D01*
D02*
G37*
G36*
X815632Y617750D02*
X812868D01*
X810197Y617034D01*
X807803Y615652D01*
X805848Y613697D01*
X804466Y611303D01*
X803750Y608632D01*
Y605868D01*
X804466Y603197D01*
X805848Y600803D01*
X807803Y598848D01*
X810197Y597466D01*
X812868Y596750D01*
X815632D01*
X818303Y597466D01*
X820697Y598848D01*
X822652Y600803D01*
X824034Y603197D01*
X824750Y605868D01*
Y608632D01*
X824034Y611303D01*
X822652Y613697D01*
X820697Y615652D01*
X818303Y617034D01*
X815632Y617750D01*
D02*
G37*
G36*
X790632D02*
X787868D01*
X785197Y617034D01*
X782803Y615652D01*
X780848Y613697D01*
X779466Y611303D01*
X778750Y608632D01*
Y605868D01*
X779466Y603197D01*
X780848Y600803D01*
X782803Y598848D01*
X785197Y597466D01*
X787868Y596750D01*
X790632D01*
X793303Y597466D01*
X795697Y598848D01*
X797652Y600803D01*
X799034Y603197D01*
X799750Y605868D01*
Y608632D01*
X799034Y611303D01*
X797652Y613697D01*
X795697Y615652D01*
X793303Y617034D01*
X790632Y617750D01*
D02*
G37*
G36*
X765632D02*
X762868D01*
X760197Y617034D01*
X757803Y615652D01*
X755848Y613697D01*
X754466Y611303D01*
X753750Y608632D01*
Y605868D01*
X754466Y603197D01*
X755848Y600803D01*
X757803Y598848D01*
X760197Y597466D01*
X762868Y596750D01*
X765632D01*
X768303Y597466D01*
X770697Y598848D01*
X772652Y600803D01*
X774034Y603197D01*
X774750Y605868D01*
Y608632D01*
X774034Y611303D01*
X772652Y613697D01*
X770697Y615652D01*
X768303Y617034D01*
X765632Y617750D01*
D02*
G37*
G36*
Y584750D02*
X762868D01*
X760197Y584034D01*
X757803Y582652D01*
X755848Y580697D01*
X754466Y578303D01*
X753750Y575632D01*
Y572868D01*
X754466Y570197D01*
X755848Y567803D01*
X757803Y565848D01*
X760197Y564466D01*
X762868Y563750D01*
X765632D01*
X768303Y564466D01*
X770697Y565848D01*
X772652Y567803D01*
X774034Y570197D01*
X774750Y572868D01*
Y575632D01*
X774034Y578303D01*
X772652Y580697D01*
X770697Y582652D01*
X768303Y584034D01*
X765632Y584750D01*
D02*
G37*
G36*
X594750Y529250D02*
X568750D01*
Y520328D01*
X518745D01*
Y529249D01*
X492745D01*
Y503249D01*
X518745D01*
Y512171D01*
X568750D01*
Y503250D01*
X575122D01*
Y402364D01*
X574183Y402112D01*
X571219Y400401D01*
X568799Y397981D01*
X567088Y395017D01*
X566836Y394078D01*
X542995D01*
X542950Y394246D01*
X541502Y396754D01*
X539454Y398802D01*
X536946Y400250D01*
X534148Y401000D01*
X531252D01*
X528454Y400250D01*
X525946Y398802D01*
X523898Y396754D01*
X522450Y394246D01*
X521700Y391448D01*
Y388552D01*
X522450Y385754D01*
X523898Y383246D01*
X525946Y381198D01*
X528454Y379750D01*
X531252Y379000D01*
X534148D01*
X536946Y379750D01*
X539454Y381198D01*
X541502Y383246D01*
X542950Y385754D01*
X542995Y385922D01*
X566836D01*
X567088Y384983D01*
X568799Y382019D01*
X571219Y379599D01*
X574183Y377888D01*
X577489Y377002D01*
X580911D01*
X584217Y377888D01*
X587181Y379599D01*
X589601Y382019D01*
X591312Y384983D01*
X592198Y388289D01*
Y391711D01*
X591312Y395017D01*
X589601Y397981D01*
X587181Y400401D01*
X584217Y402112D01*
X583278Y402364D01*
Y503250D01*
X594750D01*
Y512171D01*
X641745D01*
Y503249D01*
X667745D01*
Y529249D01*
X641745D01*
Y520328D01*
X594750D01*
Y529250D01*
D02*
G37*
G36*
X815632Y584750D02*
X812868D01*
X810197Y584034D01*
X807803Y582652D01*
X805848Y580697D01*
X804466Y578303D01*
X803750Y575632D01*
Y572868D01*
X804466Y570197D01*
X805848Y567803D01*
X807803Y565848D01*
X810197Y564466D01*
X810922Y564272D01*
Y545000D01*
X810922Y545000D01*
X811181Y543698D01*
X811232Y543439D01*
X812116Y542116D01*
X824616Y529616D01*
X824616Y529616D01*
X825939Y528732D01*
X826198Y528681D01*
X827500Y528422D01*
X827500Y528422D01*
X851836D01*
X852088Y527483D01*
X853799Y524519D01*
X856219Y522099D01*
X859183Y520388D01*
X862489Y519502D01*
X865911D01*
X869217Y520388D01*
X872181Y522099D01*
X874601Y524519D01*
X876312Y527483D01*
X877198Y530789D01*
Y534211D01*
X876312Y537517D01*
X874601Y540481D01*
X872181Y542901D01*
X869217Y544612D01*
X865911Y545498D01*
X862489D01*
X859183Y544612D01*
X856219Y542901D01*
X853799Y540481D01*
X852088Y537517D01*
X851836Y536578D01*
X829189D01*
X819078Y546689D01*
Y564913D01*
X820697Y565848D01*
X822652Y567803D01*
X824034Y570197D01*
X824750Y572868D01*
Y575632D01*
X824034Y578303D01*
X822652Y580697D01*
X820697Y582652D01*
X818303Y584034D01*
X815632Y584750D01*
D02*
G37*
G36*
X967511Y545498D02*
X964089D01*
X960783Y544612D01*
X957819Y542901D01*
X955399Y540481D01*
X953688Y537517D01*
X952802Y534211D01*
Y530789D01*
X953688Y527483D01*
X955399Y524519D01*
X957819Y522099D01*
X960783Y520388D01*
X964089Y519502D01*
X967511D01*
X970817Y520388D01*
X973781Y522099D01*
X976201Y524519D01*
X977011Y525922D01*
X1011811D01*
X1013222Y524511D01*
Y514500D01*
Y401000D01*
X1006300D01*
Y394078D01*
X964189D01*
X907884Y450384D01*
X906561Y451268D01*
X906302Y451319D01*
X905000Y451578D01*
X905000Y451578D01*
X817500D01*
X815939Y451268D01*
X814616Y450384D01*
X814616Y450384D01*
X802666Y438434D01*
X801782Y437111D01*
X801731Y436852D01*
X801472Y435550D01*
X801472Y435550D01*
Y420350D01*
X796050D01*
Y401350D01*
X815050D01*
Y420350D01*
X809628D01*
Y433861D01*
X819189Y443422D01*
X903311D01*
X959616Y387116D01*
X960939Y386232D01*
X961198Y386181D01*
X962500Y385922D01*
X962500Y385922D01*
X1006300D01*
Y379000D01*
X1015338D01*
X1015739Y378732D01*
X1017300Y378422D01*
X1018861Y378732D01*
X1019262Y379000D01*
X1028300D01*
Y401000D01*
X1021378D01*
Y510422D01*
X1032000D01*
Y503250D01*
X1058000D01*
Y510422D01*
X1102000D01*
Y503250D01*
X1128000D01*
Y529250D01*
X1102000D01*
Y518578D01*
X1058000D01*
Y529250D01*
X1032000D01*
Y518578D01*
X1021378D01*
Y526200D01*
X1021068Y527761D01*
X1020184Y529084D01*
X1020184Y529084D01*
X1016384Y532884D01*
X1015061Y533768D01*
X1014802Y533819D01*
X1013500Y534078D01*
X1013500Y534078D01*
X978798D01*
Y534211D01*
X977912Y537517D01*
X976201Y540481D01*
X973781Y542901D01*
X970817Y544612D01*
X967511Y545498D01*
D02*
G37*
G36*
X759211Y473798D02*
X755789D01*
X752483Y472912D01*
X749519Y471201D01*
X747099Y468781D01*
X745388Y465817D01*
X744502Y462511D01*
Y459089D01*
X745388Y455783D01*
X747099Y452819D01*
X749519Y450399D01*
X752483Y448688D01*
X755789Y447802D01*
X759211D01*
X762517Y448688D01*
X765481Y450399D01*
X767901Y452819D01*
X769612Y455783D01*
X770498Y459089D01*
Y462511D01*
X769612Y465817D01*
X767901Y468781D01*
X765481Y471201D01*
X762517Y472912D01*
X759211Y473798D01*
D02*
G37*
G36*
X282414Y440040D02*
X281770D01*
Y426770D01*
X295040D01*
Y427414D01*
X294049Y431112D01*
X292135Y434428D01*
X289428Y437135D01*
X286112Y439049D01*
X282414Y440040D01*
D02*
G37*
G36*
X231414D02*
X230770D01*
Y426770D01*
X244040D01*
Y427414D01*
X243049Y431112D01*
X241135Y434428D01*
X238428Y437135D01*
X235112Y439049D01*
X231414Y440040D01*
D02*
G37*
G36*
X228230D02*
X227586D01*
X223888Y439049D01*
X220572Y437135D01*
X217865Y434428D01*
X215951Y431112D01*
X214960Y427414D01*
Y426770D01*
X228230D01*
Y440040D01*
D02*
G37*
G36*
X279230D02*
X278586D01*
X274888Y439049D01*
X271572Y437135D01*
X268865Y434428D01*
X266951Y431112D01*
X265960Y427414D01*
Y426770D01*
X279230D01*
Y440040D01*
D02*
G37*
G36*
X886272Y420890D02*
X886220D01*
Y412120D01*
X894990D01*
Y412172D01*
X894306Y414725D01*
X892984Y417015D01*
X891115Y418884D01*
X888825Y420206D01*
X886272Y420890D01*
D02*
G37*
G36*
X883680D02*
X883628D01*
X881075Y420206D01*
X878785Y418884D01*
X876916Y417015D01*
X875594Y414725D01*
X874910Y412172D01*
Y412120D01*
X883680D01*
Y420890D01*
D02*
G37*
G36*
X295040Y424230D02*
X281770D01*
Y410960D01*
X282414D01*
X286112Y411951D01*
X289428Y413865D01*
X292135Y416572D01*
X294049Y419888D01*
X295040Y423586D01*
Y424230D01*
D02*
G37*
G36*
X279230D02*
X265960D01*
Y423586D01*
X266951Y419888D01*
X268865Y416572D01*
X271572Y413865D01*
X274888Y411951D01*
X278586Y410960D01*
X279230D01*
Y424230D01*
D02*
G37*
G36*
X244040D02*
X230770D01*
Y410960D01*
X231414D01*
X235112Y411951D01*
X238428Y413865D01*
X241135Y416572D01*
X243049Y419888D01*
X244040Y423586D01*
Y424230D01*
D02*
G37*
G36*
X228230D02*
X214960D01*
Y423586D01*
X215951Y419888D01*
X217865Y416572D01*
X220572Y413865D01*
X223888Y411951D01*
X227586Y410960D01*
X228230D01*
Y424230D01*
D02*
G37*
G36*
X894990Y409580D02*
X886220D01*
Y400810D01*
X886272D01*
X888825Y401494D01*
X891115Y402816D01*
X892984Y404685D01*
X894306Y406975D01*
X894990Y409528D01*
Y409580D01*
D02*
G37*
G36*
X883680D02*
X874910D01*
Y409528D01*
X875594Y406975D01*
X876916Y404685D01*
X878785Y402816D01*
X881075Y401494D01*
X883628Y400810D01*
X883680D01*
Y409580D01*
D02*
G37*
G36*
X790632Y584750D02*
X787868D01*
X785197Y584034D01*
X782803Y582652D01*
X780848Y580697D01*
X779466Y578303D01*
X778750Y575632D01*
Y572868D01*
X779466Y570197D01*
X780848Y567803D01*
X782803Y565848D01*
X783922Y565202D01*
Y547189D01*
X727866Y491134D01*
X726982Y489811D01*
X726931Y489552D01*
X726672Y488250D01*
X726672Y488250D01*
Y391578D01*
X693798D01*
Y391711D01*
X692912Y395017D01*
X691201Y397981D01*
X688781Y400401D01*
X685817Y402112D01*
X682511Y402998D01*
X679089D01*
X675783Y402112D01*
X672819Y400401D01*
X670399Y397981D01*
X668688Y395017D01*
X667802Y391711D01*
Y388289D01*
X668688Y384983D01*
X670399Y382019D01*
X672819Y379599D01*
X675783Y377888D01*
X679089Y377002D01*
X682511D01*
X685817Y377888D01*
X688781Y379599D01*
X691201Y382019D01*
X692011Y383422D01*
X796258D01*
X796697Y381783D01*
X797948Y379617D01*
X799717Y377848D01*
X801883Y376597D01*
X804299Y375950D01*
X806801D01*
X809217Y376597D01*
X811383Y377848D01*
X813152Y379617D01*
X814403Y381783D01*
X815050Y384199D01*
Y386701D01*
X814403Y389117D01*
X813152Y391283D01*
X811383Y393052D01*
X809217Y394303D01*
X806801Y394950D01*
X804299D01*
X801883Y394303D01*
X799717Y393052D01*
X798243Y391578D01*
X734828D01*
Y486561D01*
X790884Y542616D01*
X790884Y542616D01*
X791768Y543939D01*
X792078Y545500D01*
Y564137D01*
X793303Y564466D01*
X795697Y565848D01*
X797652Y567803D01*
X799034Y570197D01*
X799750Y572868D01*
Y575632D01*
X799034Y578303D01*
X797652Y580697D01*
X795697Y582652D01*
X793303Y584034D01*
X790632Y584750D01*
D02*
G37*
G36*
X1224153Y401040D02*
X1223970D01*
Y391270D01*
X1233740D01*
Y391453D01*
X1232988Y394261D01*
X1231534Y396779D01*
X1229479Y398834D01*
X1226961Y400288D01*
X1224153Y401040D01*
D02*
G37*
G36*
X1221430D02*
X1221247D01*
X1218439Y400288D01*
X1215921Y398834D01*
X1213866Y396779D01*
X1212412Y394261D01*
X1211660Y391453D01*
Y391270D01*
X1221430D01*
Y401040D01*
D02*
G37*
G36*
X886272Y395490D02*
X886220D01*
Y386720D01*
X894990D01*
Y386772D01*
X894306Y389325D01*
X892984Y391615D01*
X891115Y393484D01*
X888825Y394806D01*
X886272Y395490D01*
D02*
G37*
G36*
X883680D02*
X883628D01*
X881075Y394806D01*
X878785Y393484D01*
X876916Y391615D01*
X875594Y389325D01*
X874910Y386772D01*
Y386720D01*
X883680D01*
Y395490D01*
D02*
G37*
G36*
X1207800Y400500D02*
X1186800D01*
Y379500D01*
X1207800D01*
Y400500D01*
D02*
G37*
G36*
X1044148Y401000D02*
X1041252D01*
X1038454Y400250D01*
X1035946Y398802D01*
X1033898Y396754D01*
X1032450Y394246D01*
X1031700Y391448D01*
Y388552D01*
X1032450Y385754D01*
X1033898Y383246D01*
X1035946Y381198D01*
X1038454Y379750D01*
X1041252Y379000D01*
X1044148D01*
X1046946Y379750D01*
X1049454Y381198D01*
X1051502Y383246D01*
X1052950Y385754D01*
X1053700Y388552D01*
Y391448D01*
X1052950Y394246D01*
X1051502Y396754D01*
X1049454Y398802D01*
X1046946Y400250D01*
X1044148Y401000D01*
D02*
G37*
G36*
X518300D02*
X496300D01*
Y379000D01*
X518300D01*
Y401000D01*
D02*
G37*
G36*
X1233740Y388730D02*
X1223970D01*
Y378960D01*
X1224153D01*
X1226961Y379712D01*
X1229479Y381166D01*
X1231534Y383221D01*
X1232988Y385739D01*
X1233740Y388547D01*
Y388730D01*
D02*
G37*
G36*
X1221430D02*
X1211660D01*
Y388547D01*
X1212412Y385739D01*
X1213866Y383221D01*
X1215921Y381166D01*
X1218439Y379712D01*
X1221247Y378960D01*
X1221430D01*
Y388730D01*
D02*
G37*
G36*
X282414Y389040D02*
X281770D01*
Y375770D01*
X295040D01*
Y376414D01*
X294049Y380112D01*
X292135Y383428D01*
X289428Y386135D01*
X286112Y388049D01*
X282414Y389040D01*
D02*
G37*
G36*
X231414D02*
X230770D01*
Y375770D01*
X244040D01*
Y376414D01*
X243049Y380112D01*
X241135Y383428D01*
X238428Y386135D01*
X235112Y388049D01*
X231414Y389040D01*
D02*
G37*
G36*
X228230D02*
X227586D01*
X223888Y388049D01*
X220572Y386135D01*
X217865Y383428D01*
X215951Y380112D01*
X214960Y376414D01*
Y375770D01*
X228230D01*
Y389040D01*
D02*
G37*
G36*
X279230D02*
X278586D01*
X274888Y388049D01*
X271572Y386135D01*
X268865Y383428D01*
X266951Y380112D01*
X265960Y376414D01*
Y375770D01*
X279230D01*
Y389040D01*
D02*
G37*
G36*
X894990Y384180D02*
X886220D01*
Y375410D01*
X886272D01*
X888825Y376094D01*
X891115Y377416D01*
X892984Y379285D01*
X894306Y381575D01*
X894990Y384128D01*
Y384180D01*
D02*
G37*
G36*
X883680D02*
X874910D01*
Y384128D01*
X875594Y381575D01*
X876916Y379285D01*
X878785Y377416D01*
X881075Y376094D01*
X883628Y375410D01*
X883680D01*
Y384180D01*
D02*
G37*
G36*
X886272Y370090D02*
X886220D01*
Y361320D01*
X894990D01*
Y361372D01*
X894306Y363925D01*
X892984Y366215D01*
X891115Y368084D01*
X888825Y369406D01*
X886272Y370090D01*
D02*
G37*
G36*
X883680D02*
X883628D01*
X881075Y369406D01*
X878785Y368084D01*
X876916Y366215D01*
X875594Y363925D01*
X874910Y361372D01*
Y361320D01*
X883680D01*
Y370090D01*
D02*
G37*
G36*
X295040Y373230D02*
X281770D01*
Y359960D01*
X282414D01*
X286112Y360951D01*
X289428Y362865D01*
X292135Y365572D01*
X294049Y368888D01*
X295040Y372586D01*
Y373230D01*
D02*
G37*
G36*
X279230D02*
X265960D01*
Y372586D01*
X266951Y368888D01*
X268865Y365572D01*
X271572Y362865D01*
X274888Y360951D01*
X278586Y359960D01*
X279230D01*
Y373230D01*
D02*
G37*
G36*
X244040D02*
X230770D01*
Y359960D01*
X231414D01*
X235112Y360951D01*
X238428Y362865D01*
X241135Y365572D01*
X243049Y368888D01*
X244040Y372586D01*
Y373230D01*
D02*
G37*
G36*
X228230D02*
X214960D01*
Y372586D01*
X215951Y368888D01*
X217865Y365572D01*
X220572Y362865D01*
X223888Y360951D01*
X227586Y359960D01*
X228230D01*
Y373230D01*
D02*
G37*
G36*
X759211Y372198D02*
X755789D01*
X752483Y371312D01*
X749519Y369601D01*
X747099Y367181D01*
X745388Y364217D01*
X744502Y360911D01*
Y357489D01*
X745388Y354183D01*
X747099Y351219D01*
X749519Y348799D01*
X752483Y347088D01*
X753422Y346836D01*
Y333298D01*
X751983Y332912D01*
X749019Y331201D01*
X746599Y328781D01*
X744888Y325817D01*
X744002Y322511D01*
Y319089D01*
X744888Y315783D01*
X746599Y312819D01*
X749019Y310399D01*
X751983Y308688D01*
X755289Y307802D01*
X758711D01*
X762017Y308688D01*
X764981Y310399D01*
X767401Y312819D01*
X769112Y315783D01*
X769998Y319089D01*
Y322511D01*
X769112Y325817D01*
X767401Y328781D01*
X764981Y331201D01*
X762017Y332912D01*
X761578Y333030D01*
Y346836D01*
X762517Y347088D01*
X765481Y348799D01*
X767901Y351219D01*
X769612Y354183D01*
X770092Y355972D01*
X796935D01*
X797948Y354217D01*
X799717Y352448D01*
X801883Y351197D01*
X804299Y350550D01*
X806801D01*
X809217Y351197D01*
X811383Y352448D01*
X813152Y354217D01*
X814403Y356383D01*
X815050Y358799D01*
Y361301D01*
X814403Y363717D01*
X813152Y365883D01*
X811383Y367652D01*
X809217Y368903D01*
X806801Y369550D01*
X804299D01*
X801883Y368903D01*
X799717Y367652D01*
X797948Y365883D01*
X796935Y364128D01*
X769636D01*
X769612Y364217D01*
X767901Y367181D01*
X765481Y369601D01*
X762517Y371312D01*
X759211Y372198D01*
D02*
G37*
G36*
X894990Y358780D02*
X886220D01*
Y350010D01*
X886272D01*
X888825Y350694D01*
X891115Y352016D01*
X892984Y353885D01*
X894306Y356175D01*
X894990Y358728D01*
Y358780D01*
D02*
G37*
G36*
X883680D02*
X874910D01*
Y358728D01*
X875594Y356175D01*
X876916Y353885D01*
X878785Y352016D01*
X881075Y350694D01*
X883628Y350010D01*
X883680D01*
Y358780D01*
D02*
G37*
G36*
X886272Y344690D02*
X886220D01*
Y335920D01*
X894990D01*
Y335972D01*
X894306Y338525D01*
X892984Y340815D01*
X891115Y342684D01*
X888825Y344006D01*
X886272Y344690D01*
D02*
G37*
G36*
X883680D02*
X883628D01*
X881075Y344006D01*
X878785Y342684D01*
X876916Y340815D01*
X875594Y338525D01*
X874910Y335972D01*
Y335920D01*
X883680D01*
Y344690D01*
D02*
G37*
G36*
X894990Y333380D02*
X886220D01*
Y324610D01*
X886272D01*
X888825Y325294D01*
X891115Y326616D01*
X892984Y328485D01*
X894306Y330775D01*
X894990Y333328D01*
Y333380D01*
D02*
G37*
G36*
X883680D02*
X874910D01*
Y333328D01*
X875594Y330775D01*
X876916Y328485D01*
X878785Y326616D01*
X881075Y325294D01*
X883628Y324610D01*
X883680D01*
Y333380D01*
D02*
G37*
G36*
X873183Y306040D02*
X872670D01*
Y293770D01*
X884940D01*
Y294283D01*
X884017Y297726D01*
X882235Y300814D01*
X879714Y303335D01*
X876626Y305117D01*
X873183Y306040D01*
D02*
G37*
G36*
X870130D02*
X869617D01*
X866174Y305117D01*
X863086Y303335D01*
X860565Y300814D01*
X858783Y297726D01*
X857860Y294283D01*
Y293770D01*
X870130D01*
Y306040D01*
D02*
G37*
G36*
X806801Y344150D02*
X804299D01*
X801883Y343503D01*
X799717Y342252D01*
X797948Y340483D01*
X796697Y338317D01*
X796050Y335901D01*
Y333399D01*
X796697Y330983D01*
X797948Y328817D01*
X799717Y327048D01*
X801472Y326035D01*
Y307550D01*
X801472Y307550D01*
X801731Y306248D01*
X801782Y305989D01*
X802666Y304666D01*
X808972Y298360D01*
X808486Y297518D01*
X807600Y294212D01*
Y290788D01*
X808486Y287482D01*
X810197Y284518D01*
X812618Y282097D01*
X815582Y280386D01*
X818888Y279500D01*
X822311D01*
X825618Y280386D01*
X828582Y282097D01*
X831003Y284518D01*
X832714Y287482D01*
X833600Y290788D01*
Y294212D01*
X832714Y297518D01*
X831003Y300482D01*
X828582Y302903D01*
X825618Y304614D01*
X822311Y305500D01*
X818888D01*
X815582Y304614D01*
X814740Y304128D01*
X809628Y309239D01*
Y326035D01*
X811383Y327048D01*
X813152Y328817D01*
X814403Y330983D01*
X815050Y333399D01*
Y335901D01*
X814403Y338317D01*
X813152Y340483D01*
X811383Y342252D01*
X809217Y343503D01*
X806801Y344150D01*
D02*
G37*
G36*
X884940Y291230D02*
X872670D01*
Y278960D01*
X873183D01*
X876626Y279883D01*
X879714Y281665D01*
X882235Y284186D01*
X884017Y287274D01*
X884940Y290717D01*
Y291230D01*
D02*
G37*
G36*
X870130D02*
X857860D01*
Y290717D01*
X858783Y287274D01*
X860565Y284186D01*
X863086Y281665D01*
X866174Y279883D01*
X869617Y278960D01*
X870130D01*
Y291230D01*
D02*
G37*
G36*
X282593Y272250D02*
X278907D01*
X275346Y271296D01*
X272154Y269453D01*
X269547Y266846D01*
X267952Y264084D01*
X242547D01*
X240953Y266846D01*
X238346Y269453D01*
X235154Y271296D01*
X231593Y272250D01*
X227907D01*
X224346Y271296D01*
X221154Y269453D01*
X218547Y266846D01*
X216704Y263654D01*
X215750Y260093D01*
Y256407D01*
X216704Y252846D01*
X218547Y249654D01*
X221154Y247047D01*
X224346Y245204D01*
X226416Y244650D01*
Y220851D01*
X224346Y220296D01*
X221154Y218453D01*
X218547Y215846D01*
X216704Y212654D01*
X215750Y209093D01*
Y205407D01*
X216704Y201846D01*
X218547Y198654D01*
X221154Y196047D01*
X224346Y194204D01*
X227907Y193250D01*
X231593D01*
X235154Y194204D01*
X238346Y196047D01*
X240953Y198654D01*
X242796Y201846D01*
X243750Y205407D01*
Y206416D01*
X266750D01*
Y205407D01*
X267704Y201846D01*
X269547Y198654D01*
X272154Y196047D01*
X275346Y194204D01*
X278907Y193250D01*
X282593D01*
X286154Y194204D01*
X289346Y196047D01*
X291953Y198654D01*
X293796Y201846D01*
X294750Y205407D01*
Y209093D01*
X293796Y212654D01*
X291953Y215846D01*
X289346Y218453D01*
X286154Y220296D01*
X284084Y220851D01*
Y244650D01*
X286154Y245204D01*
X289346Y247047D01*
X291953Y249654D01*
X293796Y252846D01*
X294750Y256407D01*
Y260093D01*
X293796Y263654D01*
X291953Y266846D01*
X289346Y269453D01*
X286154Y271296D01*
X282593Y272250D01*
D02*
G37*
G36*
X757672Y304750D02*
X755828D01*
X754048Y304273D01*
X752452Y303351D01*
X751149Y302048D01*
X750227Y300452D01*
X749750Y298672D01*
Y296828D01*
X750227Y295048D01*
X751149Y293452D01*
X752452Y292149D01*
X752922Y291877D01*
Y251821D01*
X751649Y250548D01*
X750727Y248952D01*
X750250Y247172D01*
Y245328D01*
X750727Y243548D01*
X751649Y241952D01*
X752952Y240649D01*
X754548Y239727D01*
X756328Y239250D01*
X758172D01*
X759952Y239727D01*
X761548Y240649D01*
X762851Y241952D01*
X763773Y243548D01*
X764250Y245328D01*
Y247172D01*
X763773Y248952D01*
X762851Y250548D01*
X761548Y251851D01*
X761078Y252123D01*
Y292179D01*
X762351Y293452D01*
X763273Y295048D01*
X763750Y296828D01*
Y298672D01*
X763273Y300452D01*
X762351Y302048D01*
X761048Y303351D01*
X759452Y304273D01*
X757672Y304750D01*
D02*
G37*
G36*
X1058540Y243540D02*
X1046270D01*
Y231270D01*
X1058540D01*
Y243540D01*
D02*
G37*
G36*
X1043730D02*
X1031460D01*
Y231270D01*
X1043730D01*
Y243540D01*
D02*
G37*
G36*
X668540D02*
X656270D01*
Y231270D01*
X668540D01*
Y243540D01*
D02*
G37*
G36*
X653730D02*
X641460D01*
Y231270D01*
X653730D01*
Y243540D01*
D02*
G37*
G36*
X593540D02*
X581270D01*
Y231270D01*
X593540D01*
Y243540D01*
D02*
G37*
G36*
X578730D02*
X566460D01*
Y231270D01*
X578730D01*
Y243540D01*
D02*
G37*
G36*
X513540D02*
X501270D01*
Y231270D01*
X513540D01*
Y243540D01*
D02*
G37*
G36*
X498730D02*
X486460D01*
Y231270D01*
X498730D01*
Y243540D01*
D02*
G37*
G36*
X1123540D02*
X1111270D01*
Y231270D01*
X1123540D01*
Y243540D01*
D02*
G37*
G36*
X1108730D02*
X1096460D01*
Y231270D01*
X1108730D01*
Y243540D01*
D02*
G37*
G36*
X758782Y232738D02*
X758270D01*
Y220470D01*
X770538D01*
Y220982D01*
X769616Y224426D01*
X767833Y227513D01*
X765313Y230033D01*
X762226Y231816D01*
X758782Y232738D01*
D02*
G37*
G36*
X755730D02*
X755218D01*
X751775Y231816D01*
X748687Y230033D01*
X746167Y227513D01*
X744384Y224426D01*
X743462Y220982D01*
Y220470D01*
X755730D01*
Y232738D01*
D02*
G37*
G36*
X1123540Y228730D02*
X1111270D01*
Y216460D01*
X1123540D01*
Y228730D01*
D02*
G37*
G36*
X1108730D02*
X1096460D01*
Y216460D01*
X1108730D01*
Y228730D01*
D02*
G37*
G36*
X1058540Y228730D02*
X1046270D01*
Y216460D01*
X1058540D01*
Y228730D01*
D02*
G37*
G36*
X1043730D02*
X1031460D01*
Y216460D01*
X1043730D01*
Y228730D01*
D02*
G37*
G36*
X668540D02*
X656270D01*
Y216460D01*
X668540D01*
Y228730D01*
D02*
G37*
G36*
X653730D02*
X641460D01*
Y216460D01*
X653730D01*
Y228730D01*
D02*
G37*
G36*
X593540D02*
X581270D01*
Y216460D01*
X593540D01*
Y228730D01*
D02*
G37*
G36*
X578730D02*
X566460D01*
Y216460D01*
X578730D01*
Y228730D01*
D02*
G37*
G36*
X513540D02*
X501270D01*
Y216460D01*
X513540D01*
Y228730D01*
D02*
G37*
G36*
X498730D02*
X486460D01*
Y216460D01*
X498730D01*
Y228730D01*
D02*
G37*
G36*
X770538Y217930D02*
X758270D01*
Y205662D01*
X758782D01*
X762226Y206584D01*
X765313Y208367D01*
X767833Y210887D01*
X769616Y213974D01*
X770538Y217418D01*
Y217930D01*
D02*
G37*
G36*
X755730D02*
X743462D01*
Y217418D01*
X744384Y213974D01*
X746167Y210887D01*
X748687Y208367D01*
X751775Y206584D01*
X755218Y205662D01*
X755730D01*
Y217930D01*
D02*
G37*
G36*
X433453Y128290D02*
X433270D01*
Y118520D01*
X443040D01*
Y118703D01*
X442288Y121511D01*
X440834Y124029D01*
X438779Y126084D01*
X436261Y127538D01*
X433453Y128290D01*
D02*
G37*
G36*
X430730D02*
X430547D01*
X427739Y127538D01*
X425221Y126084D01*
X423166Y124029D01*
X421712Y121511D01*
X420960Y118703D01*
Y118520D01*
X430730D01*
Y128290D01*
D02*
G37*
G36*
X408382Y127750D02*
X405618D01*
X402947Y127034D01*
X400553Y125652D01*
X398598Y123697D01*
X397216Y121303D01*
X396500Y118632D01*
Y115868D01*
X397216Y113197D01*
X398598Y110803D01*
X400553Y108848D01*
X402947Y107466D01*
X405618Y106750D01*
X408382D01*
X411053Y107466D01*
X413447Y108848D01*
X415402Y110803D01*
X416784Y113197D01*
X417500Y115868D01*
Y118632D01*
X416784Y121303D01*
X415402Y123697D01*
X413447Y125652D01*
X411053Y127034D01*
X408382Y127750D01*
D02*
G37*
G36*
X383382D02*
X380618D01*
X377947Y127034D01*
X375553Y125652D01*
X373598Y123697D01*
X372216Y121303D01*
X371500Y118632D01*
Y115868D01*
X372216Y113197D01*
X373598Y110803D01*
X375553Y108848D01*
X377947Y107466D01*
X380618Y106750D01*
X383382D01*
X386053Y107466D01*
X388447Y108848D01*
X390402Y110803D01*
X391784Y113197D01*
X392500Y115868D01*
Y118632D01*
X391784Y121303D01*
X390402Y123697D01*
X388447Y125652D01*
X386053Y127034D01*
X383382Y127750D01*
D02*
G37*
G36*
X443040Y115980D02*
X433270D01*
Y106210D01*
X433453D01*
X436261Y106962D01*
X438779Y108416D01*
X440834Y110471D01*
X442288Y112989D01*
X443040Y115796D01*
Y115980D01*
D02*
G37*
G36*
X430730D02*
X420960D01*
Y115796D01*
X421712Y112989D01*
X423166Y110471D01*
X425221Y108416D01*
X427739Y106962D01*
X430547Y106210D01*
X430730D01*
Y115980D01*
D02*
G37*
G36*
X723240Y104700D02*
X720080D01*
X717028Y103882D01*
X714292Y102302D01*
X712058Y100068D01*
X710478Y97332D01*
X709660Y94280D01*
Y91120D01*
X710478Y88068D01*
X712058Y85332D01*
X714292Y83098D01*
X717028Y81518D01*
X720080Y80700D01*
X723240D01*
X726292Y81518D01*
X729028Y83098D01*
X731262Y85332D01*
X732842Y88068D01*
X733660Y91120D01*
Y94280D01*
X732842Y97332D01*
X731262Y100068D01*
X729028Y102302D01*
X726292Y103882D01*
X723240Y104700D01*
D02*
G37*
G36*
X433382Y94750D02*
X430618D01*
X427947Y94034D01*
X425553Y92652D01*
X423598Y90697D01*
X422216Y88303D01*
X421500Y85632D01*
Y82868D01*
X422216Y80197D01*
X423598Y77803D01*
X425553Y75848D01*
X427947Y74466D01*
X430618Y73750D01*
X433382D01*
X436053Y74466D01*
X438447Y75848D01*
X440402Y77803D01*
X441784Y80197D01*
X442500Y82868D01*
Y85632D01*
X441784Y88303D01*
X440402Y90697D01*
X438447Y92652D01*
X436053Y94034D01*
X433382Y94750D01*
D02*
G37*
G36*
X408382D02*
X405618D01*
X402947Y94034D01*
X400553Y92652D01*
X398598Y90697D01*
X397216Y88303D01*
X396500Y85632D01*
Y82868D01*
X397216Y80197D01*
X398598Y77803D01*
X400553Y75848D01*
X402947Y74466D01*
X405618Y73750D01*
X408382D01*
X411053Y74466D01*
X413447Y75848D01*
X415402Y77803D01*
X416784Y80197D01*
X417500Y82868D01*
Y85632D01*
X416784Y88303D01*
X415402Y90697D01*
X413447Y92652D01*
X411053Y94034D01*
X408382Y94750D01*
D02*
G37*
G36*
X383382D02*
X380618D01*
X377947Y94034D01*
X375553Y92652D01*
X373598Y90697D01*
X372216Y88303D01*
X371500Y85632D01*
Y82868D01*
X372216Y80197D01*
X373598Y77803D01*
X375553Y75848D01*
X377947Y74466D01*
X380618Y73750D01*
X383382D01*
X386053Y74466D01*
X388447Y75848D01*
X390402Y77803D01*
X391784Y80197D01*
X392500Y82868D01*
Y85632D01*
X391784Y88303D01*
X390402Y90697D01*
X388447Y92652D01*
X386053Y94034D01*
X383382Y94750D01*
D02*
G37*
G36*
X530456Y86660D02*
X528744D01*
X527091Y86217D01*
X525609Y85361D01*
X524399Y84151D01*
X523543Y82669D01*
X523100Y81016D01*
Y79304D01*
X523543Y77651D01*
X524399Y76169D01*
X525609Y74959D01*
X527091Y74103D01*
X528744Y73660D01*
X530456D01*
X532109Y74103D01*
X533591Y74959D01*
X534801Y76169D01*
X535657Y77651D01*
X536100Y79304D01*
Y81016D01*
X535657Y82669D01*
X534801Y84151D01*
X533591Y85361D01*
X532109Y86217D01*
X530456Y86660D01*
D02*
G37*
G36*
X581256Y76500D02*
X579544D01*
X577891Y76057D01*
X576409Y75201D01*
X575199Y73991D01*
X574343Y72509D01*
X573900Y70856D01*
Y69144D01*
X574343Y67491D01*
X575199Y66009D01*
X576409Y64799D01*
X577891Y63943D01*
X579544Y63500D01*
X581256D01*
X582909Y63943D01*
X584391Y64799D01*
X585601Y66009D01*
X586457Y67491D01*
X586900Y69144D01*
Y70856D01*
X586457Y72509D01*
X585601Y73991D01*
X584391Y75201D01*
X582909Y76057D01*
X581256Y76500D01*
D02*
G37*
G36*
X723240Y79300D02*
X720080D01*
X717028Y78482D01*
X714292Y76902D01*
X712058Y74668D01*
X710478Y71932D01*
X709660Y68880D01*
Y65720D01*
X710478Y62668D01*
X712058Y59932D01*
X714292Y57698D01*
X717028Y56118D01*
X720080Y55300D01*
X723240D01*
X726292Y56118D01*
X729028Y57698D01*
X731262Y59932D01*
X732842Y62668D01*
X733660Y65720D01*
Y68880D01*
X732842Y71932D01*
X731262Y74668D01*
X729028Y76902D01*
X726292Y78482D01*
X723240Y79300D01*
D02*
G37*
G36*
X530456Y66340D02*
X528744D01*
X527091Y65897D01*
X525609Y65041D01*
X524399Y63831D01*
X523543Y62349D01*
X523100Y60696D01*
Y58984D01*
X523543Y57331D01*
X524399Y55849D01*
X525609Y54639D01*
X527091Y53783D01*
X528744Y53340D01*
X530456D01*
X532109Y53783D01*
X533591Y54639D01*
X534801Y55849D01*
X535657Y57331D01*
X536100Y58984D01*
Y60696D01*
X535657Y62349D01*
X534801Y63831D01*
X533591Y65041D01*
X532109Y65897D01*
X530456Y66340D01*
D02*
G37*
%LPD*%
D16*
X229750Y260750D02*
X280750D01*
X229750Y209750D02*
X280750D01*
X229500Y595500D02*
X280500D01*
X229500Y544500D02*
X280500D01*
X281778Y543222D01*
X229500Y544500D02*
Y595500D01*
X280750Y258250D02*
Y260750D01*
Y209750D02*
Y258250D01*
X229750D02*
Y260750D01*
Y209750D02*
Y258250D01*
X229500Y377000D02*
X232000Y374500D01*
Y425500D02*
X278000D01*
X229500Y377000D02*
Y428000D01*
X232000Y425500D01*
X278000D02*
X280500Y428000D01*
X232000Y374500D02*
X278000D01*
X280500Y377000D01*
X680800Y390000D02*
X683300Y387500D01*
D26*
X529600Y59840D02*
D03*
Y80160D02*
D03*
X580400Y70000D02*
D03*
D33*
X757000Y246500D02*
X757250Y246250D01*
X756750Y297750D02*
X757000Y297500D01*
Y246500D02*
Y297500D01*
X815000Y545000D02*
Y573500D01*
X814250Y574250D02*
X815000Y573500D01*
X827500Y532500D02*
X864200D01*
X815000Y545000D02*
X827500Y532500D01*
X788000Y545500D02*
Y573000D01*
X789250Y574250D01*
X730750Y488250D02*
X788000Y545500D01*
X730750Y387500D02*
Y488250D01*
X757500Y321300D02*
Y359200D01*
X757000Y320800D02*
X757500Y321300D01*
X758350Y360050D02*
X805550D01*
X757000Y358700D02*
X758350Y360050D01*
X805550Y307550D02*
Y334650D01*
Y307550D02*
X820600Y292500D01*
X805550Y410850D02*
Y435550D01*
X817500Y447500D01*
X905000D01*
X962500Y390000D01*
X1016969D01*
X730750Y387500D02*
X803500D01*
X805550Y410850D02*
X805550Y410850D01*
X803500Y387500D02*
X805550Y385450D01*
X1017300Y390000D02*
Y514500D01*
Y382500D02*
Y390000D01*
X968300Y530000D02*
X1013500D01*
X1017300Y526200D01*
Y514500D02*
Y526200D01*
X1045000Y514500D02*
X1117966D01*
X1017300D02*
X1045000D01*
X580748Y515248D02*
X581750Y516250D01*
X579747Y514247D02*
X580748Y515248D01*
X579200Y513045D02*
Y514247D01*
Y390000D02*
Y513045D01*
Y514247D02*
Y516250D01*
X683300Y387500D02*
X730750D01*
X965800Y532500D02*
X968300Y530000D01*
X505745Y516249D02*
X579747D01*
Y514247D02*
X580950Y513045D01*
X581751Y516249D02*
X654745D01*
X581750Y516250D02*
X581751Y516249D01*
X532700Y390000D02*
X579200D01*
D34*
X789250Y574250D02*
D03*
X764250D02*
D03*
Y607250D02*
D03*
X789250D02*
D03*
X814250D02*
D03*
Y574250D02*
D03*
X407000Y84250D02*
D03*
X382000D02*
D03*
Y117250D02*
D03*
X407000D02*
D03*
X432000D02*
D03*
Y84250D02*
D03*
X1222700Y390000D02*
D03*
D35*
X721660Y92700D02*
D03*
Y67300D02*
D03*
X721340Y732950D02*
D03*
Y707550D02*
D03*
D36*
X805550Y410850D02*
D03*
D37*
Y385450D02*
D03*
Y360050D02*
D03*
Y334650D02*
D03*
X884950D02*
D03*
Y360050D02*
D03*
Y385450D02*
D03*
Y410850D02*
D03*
D38*
X280750Y207250D02*
D03*
X229750D02*
D03*
X280750Y258250D02*
D03*
X229750D02*
D03*
X229500Y595500D02*
D03*
X280500D02*
D03*
X229500Y544500D02*
D03*
X280500D02*
D03*
X229500Y425500D02*
D03*
X280500D02*
D03*
X229500Y374500D02*
D03*
X280500D02*
D03*
D39*
X1220000Y720000D02*
D03*
X80000D02*
D03*
Y80000D02*
D03*
X1220000D02*
D03*
D40*
X1197300Y390000D02*
D03*
D41*
X757000Y219200D02*
D03*
Y320800D02*
D03*
X579200Y390000D02*
D03*
X680800D02*
D03*
X757500Y460800D02*
D03*
Y359200D02*
D03*
X864200Y532500D02*
D03*
X965800D02*
D03*
D42*
X1017300Y390000D02*
D03*
X507300D02*
D03*
D43*
X1042700D02*
D03*
X532700D02*
D03*
D44*
X654745Y516249D02*
D03*
X581750Y516250D02*
D03*
X505745Y516249D02*
D03*
X655000Y230000D02*
D03*
X580000D02*
D03*
X500000D02*
D03*
X1115000Y516250D02*
D03*
X1045000D02*
D03*
Y230000D02*
D03*
D45*
X1110000D02*
D03*
D46*
X820600Y292500D02*
D03*
X871400D02*
D03*
D47*
X650500Y48000D02*
D03*
X756750Y297750D02*
D03*
X555250Y48250D02*
D03*
X238500Y718250D02*
D03*
X757250Y246250D02*
D03*
X675750Y291750D02*
D03*
X702500Y315000D02*
D03*
X721500Y167500D02*
D03*
X685000Y167500D02*
D03*
X363500Y212250D02*
D03*
X522500Y184750D02*
D03*
X581250Y353000D02*
D03*
X528000Y274000D02*
D03*
M02*
