G04*
G04 #@! TF.GenerationSoftware,Altium Limited,Altium Designer,24.1.2 (44)*
G04*
G04 Layer_Physical_Order=1*
G04 Layer_Color=13278208*
%FSLAX44Y44*%
%MOMM*%
G71*
G04*
G04 #@! TF.SameCoordinates,310A886F-5AEF-4929-BF30-60E29D6AC2F0*
G04*
G04*
G04 #@! TF.FilePolarity,Positive*
G04*
G01*
G75*
%ADD19C,0.2540*%
%ADD32C,0.8500*%
%ADD34C,0.4000*%
%ADD35C,1.7000*%
%ADD36R,2.2000X2.2000*%
%ADD37C,2.0000*%
%ADD38C,1.5000*%
%ADD39R,1.5000X1.5000*%
%ADD40C,2.4000*%
%ADD41C,8.0000*%
%ADD42R,1.7000X1.7000*%
%ADD43R,2.2000X2.2000*%
%ADD44C,2.2000*%
%ADD45C,2.1996*%
%ADD46C,1.0000*%
G36*
X1127500Y627500D02*
X1257500D01*
Y167500D01*
X1127500D01*
Y27500D01*
X167500D01*
Y167500D01*
X32500D01*
Y625000D01*
X35000Y627500D01*
X167500D01*
Y767500D01*
X1127500D01*
Y627500D01*
D02*
G37*
%LPC*%
G36*
X722920Y744950D02*
X719760D01*
X716708Y744132D01*
X713972Y742552D01*
X711738Y740318D01*
X710158Y737582D01*
X709340Y734530D01*
Y731370D01*
X710158Y728318D01*
X711738Y725582D01*
X713972Y723348D01*
X716708Y721768D01*
X719760Y720950D01*
X722920D01*
X725972Y721768D01*
X728708Y723348D01*
X730943Y725582D01*
X732522Y728318D01*
X733340Y731370D01*
Y734530D01*
X732522Y737582D01*
X730943Y740318D01*
X728708Y742552D01*
X725972Y744132D01*
X722920Y744950D01*
D02*
G37*
G36*
Y719550D02*
X719760D01*
X716708Y718732D01*
X713972Y717152D01*
X711738Y714918D01*
X710158Y712182D01*
X709340Y709130D01*
Y705970D01*
X710158Y702918D01*
X711738Y700182D01*
X713972Y697948D01*
X716708Y696368D01*
X719760Y695550D01*
X722920D01*
X725972Y696368D01*
X728708Y697948D01*
X730943Y700182D01*
X732522Y702918D01*
X733340Y705970D01*
Y709130D01*
X732522Y712182D01*
X730943Y714918D01*
X728708Y717152D01*
X725972Y718732D01*
X722920Y719550D01*
D02*
G37*
G36*
X906500Y721275D02*
X880500D01*
Y695275D01*
X906500D01*
Y721275D01*
D02*
G37*
G36*
X823382Y645250D02*
X820618D01*
X817947Y644534D01*
X815553Y643152D01*
X813598Y641197D01*
X812216Y638803D01*
X811500Y636132D01*
Y633368D01*
X812216Y630697D01*
X813598Y628303D01*
X815553Y626348D01*
X817947Y624966D01*
X820618Y624250D01*
X823382D01*
X826053Y624966D01*
X828447Y626348D01*
X830402Y628303D01*
X831784Y630697D01*
X832500Y633368D01*
Y636132D01*
X831784Y638803D01*
X830402Y641197D01*
X828447Y643152D01*
X826053Y644534D01*
X823382Y645250D01*
D02*
G37*
G36*
X798382D02*
X795618D01*
X792947Y644534D01*
X790553Y643152D01*
X788598Y641197D01*
X787216Y638803D01*
X786500Y636132D01*
Y633368D01*
X787216Y630697D01*
X788598Y628303D01*
X790553Y626348D01*
X792947Y624966D01*
X795618Y624250D01*
X798382D01*
X801053Y624966D01*
X803447Y626348D01*
X805402Y628303D01*
X806784Y630697D01*
X807500Y633368D01*
Y636132D01*
X806784Y638803D01*
X805402Y641197D01*
X803447Y643152D01*
X801053Y644534D01*
X798382Y645250D01*
D02*
G37*
G36*
X773382D02*
X770618D01*
X767947Y644534D01*
X765553Y643152D01*
X763598Y641197D01*
X762216Y638803D01*
X761500Y636132D01*
Y633368D01*
X762216Y630697D01*
X763598Y628303D01*
X765553Y626348D01*
X767947Y624966D01*
X770618Y624250D01*
X773382D01*
X776053Y624966D01*
X778447Y626348D01*
X780402Y628303D01*
X781784Y630697D01*
X782500Y633368D01*
Y636132D01*
X781784Y638803D01*
X780402Y641197D01*
X778447Y643152D01*
X776053Y644534D01*
X773382Y645250D01*
D02*
G37*
G36*
X867911Y629498D02*
X864489D01*
X861183Y628612D01*
X858219Y626901D01*
X855799Y624481D01*
X854088Y621517D01*
X853836Y620578D01*
X836750D01*
X835189Y620268D01*
X833866Y619384D01*
X826024Y611542D01*
X823382Y612250D01*
X820618D01*
X817947Y611534D01*
X815553Y610152D01*
X813598Y608197D01*
X812216Y605803D01*
X811500Y603132D01*
Y600368D01*
X812216Y597697D01*
X813598Y595303D01*
X815553Y593348D01*
X817947Y591966D01*
X820618Y591250D01*
X823382D01*
X826053Y591966D01*
X828447Y593348D01*
X830402Y595303D01*
X831784Y597697D01*
X832500Y600368D01*
Y603132D01*
X831792Y605774D01*
X838439Y612422D01*
X853836D01*
X854088Y611483D01*
X855799Y608519D01*
X858219Y606099D01*
X861183Y604388D01*
X864489Y603502D01*
X867911D01*
X871217Y604388D01*
X874181Y606099D01*
X876601Y608519D01*
X878312Y611483D01*
X879198Y614789D01*
Y618211D01*
X878312Y621517D01*
X876601Y624481D01*
X874181Y626901D01*
X871217Y628612D01*
X867911Y629498D01*
D02*
G37*
G36*
X282343Y609500D02*
X278657D01*
X275096Y608546D01*
X271904Y606703D01*
X269297Y604096D01*
X267454Y600904D01*
X266900Y598834D01*
X243100D01*
X242546Y600904D01*
X240703Y604096D01*
X238096Y606703D01*
X234904Y608546D01*
X231343Y609500D01*
X227657D01*
X224096Y608546D01*
X220904Y606703D01*
X218297Y604096D01*
X216454Y600904D01*
X215500Y597343D01*
Y593657D01*
X216454Y590096D01*
X218297Y586904D01*
X220904Y584297D01*
X224096Y582454D01*
X226166Y581899D01*
Y558101D01*
X224096Y557546D01*
X220904Y555703D01*
X218297Y553096D01*
X216454Y549904D01*
X215500Y546343D01*
Y542657D01*
X216454Y539096D01*
X218297Y535904D01*
X220904Y533297D01*
X224096Y531454D01*
X227657Y530500D01*
X231343D01*
X234904Y531454D01*
X238096Y533297D01*
X240703Y535904D01*
X242546Y539096D01*
X243100Y541166D01*
X266900D01*
X267454Y539096D01*
X269297Y535904D01*
X271904Y533297D01*
X275096Y531454D01*
X278657Y530500D01*
X282343D01*
X285904Y531454D01*
X289096Y533297D01*
X291703Y535904D01*
X293546Y539096D01*
X294500Y542657D01*
Y546343D01*
X293546Y549904D01*
X291703Y553096D01*
X289096Y555703D01*
X285904Y557546D01*
X282343Y558500D01*
X278657D01*
X275096Y557546D01*
X271904Y555703D01*
X269297Y553096D01*
X267454Y549904D01*
X266900Y547834D01*
X243100D01*
X242546Y549904D01*
X240703Y553096D01*
X238096Y555703D01*
X234904Y557546D01*
X232834Y558101D01*
Y581899D01*
X234904Y582454D01*
X238096Y584297D01*
X240703Y586904D01*
X242546Y590096D01*
X243100Y592166D01*
X266900D01*
X267454Y590096D01*
X269297Y586904D01*
X271904Y584297D01*
X275096Y582454D01*
X278657Y581500D01*
X282343D01*
X285904Y582454D01*
X289096Y584297D01*
X291703Y586904D01*
X293546Y590096D01*
X294500Y593657D01*
Y597343D01*
X293546Y600904D01*
X291703Y604096D01*
X289096Y606703D01*
X285904Y608546D01*
X282343Y609500D01*
D02*
G37*
G36*
X780250Y622578D02*
X780250Y622578D01*
X760950D01*
X759389Y622268D01*
X758066Y621384D01*
X758066Y621384D01*
X735666Y598984D01*
X734782Y597661D01*
X734731Y597402D01*
X734472Y596100D01*
X734472Y596100D01*
Y405864D01*
X733533Y405612D01*
X730569Y403901D01*
X728149Y401481D01*
X726438Y398517D01*
X725552Y395211D01*
Y391789D01*
X726438Y388483D01*
X728149Y385519D01*
X730569Y383099D01*
X733533Y381388D01*
X736839Y380502D01*
X740261D01*
X743567Y381388D01*
X746531Y383099D01*
X748951Y385519D01*
X750662Y388483D01*
X751249Y390672D01*
X800320D01*
X801448Y388717D01*
X803217Y386948D01*
X805383Y385698D01*
X807799Y385050D01*
X810301D01*
X812717Y385698D01*
X814883Y386948D01*
X816652Y388717D01*
X817903Y390883D01*
X818550Y393299D01*
Y395801D01*
X817903Y398217D01*
X816652Y400383D01*
X814883Y402152D01*
X812717Y403403D01*
X810301Y404050D01*
X807799D01*
X805383Y403403D01*
X803217Y402152D01*
X801448Y400383D01*
X800551Y398828D01*
X750483D01*
X748951Y401481D01*
X746531Y403901D01*
X743567Y405612D01*
X742628Y405864D01*
Y594411D01*
X762639Y614422D01*
X778561D01*
X787208Y605774D01*
X786500Y603132D01*
Y600368D01*
X787216Y597697D01*
X788598Y595303D01*
X790553Y593348D01*
X792947Y591966D01*
X795618Y591250D01*
X798382D01*
X801053Y591966D01*
X803447Y593348D01*
X805402Y595303D01*
X806784Y597697D01*
X807500Y600368D01*
Y603132D01*
X806784Y605803D01*
X805402Y608197D01*
X803447Y610152D01*
X801053Y611534D01*
X798382Y612250D01*
X795618D01*
X792976Y611542D01*
X783134Y621384D01*
X781811Y622268D01*
X781552Y622319D01*
X780250Y622578D01*
D02*
G37*
G36*
X773382Y612250D02*
X770618D01*
X767947Y611534D01*
X765553Y610152D01*
X763598Y608197D01*
X762216Y605803D01*
X761500Y603132D01*
Y600368D01*
X762216Y597697D01*
X763598Y595303D01*
X765553Y593348D01*
X767947Y591966D01*
X770618Y591250D01*
X773382D01*
X776053Y591966D01*
X778447Y593348D01*
X780402Y595303D01*
X781784Y597697D01*
X782500Y600368D01*
Y603132D01*
X781784Y605803D01*
X780402Y608197D01*
X778447Y610152D01*
X776053Y611534D01*
X773382Y612250D01*
D02*
G37*
G36*
X770211Y535798D02*
X766789D01*
X763483Y534912D01*
X760519Y533201D01*
X758099Y530781D01*
X756388Y527817D01*
X755502Y524511D01*
Y521089D01*
X756388Y517783D01*
X758099Y514819D01*
X760519Y512399D01*
X763483Y510688D01*
X766789Y509802D01*
X770211D01*
X773517Y510688D01*
X776481Y512399D01*
X778901Y514819D01*
X780612Y517783D01*
X781498Y521089D01*
Y524511D01*
X780612Y527817D01*
X778901Y530781D01*
X776481Y533201D01*
X773517Y534912D01*
X770211Y535798D01*
D02*
G37*
G36*
X477250Y530750D02*
X451250D01*
Y504750D01*
X477250D01*
Y530750D01*
D02*
G37*
G36*
X594750Y529250D02*
X568750D01*
Y503250D01*
X577672D01*
Y418578D01*
X492250D01*
Y419935D01*
X491534Y422606D01*
X490152Y425000D01*
X488197Y426955D01*
X485803Y428337D01*
X483132Y429053D01*
X480368D01*
X477697Y428337D01*
X475303Y426955D01*
X473348Y425000D01*
X471966Y422606D01*
X471250Y419935D01*
Y417170D01*
X471966Y414500D01*
X473348Y412106D01*
X475303Y410151D01*
X477697Y408768D01*
X480368Y408053D01*
X483132D01*
X485803Y408768D01*
X488197Y410151D01*
X488609Y410563D01*
X489321Y410422D01*
X577672D01*
Y395843D01*
X577672Y395843D01*
X577931Y394541D01*
X577982Y394282D01*
X578866Y392959D01*
X581209Y390616D01*
X581209Y390616D01*
X582532Y389732D01*
X584093Y389422D01*
X624586D01*
X624838Y388483D01*
X626549Y385519D01*
X628969Y383099D01*
X631933Y381388D01*
X635239Y380502D01*
X638661D01*
X641967Y381388D01*
X644931Y383099D01*
X647351Y385519D01*
X649062Y388483D01*
X649948Y391789D01*
Y395211D01*
X649062Y398517D01*
X647351Y401481D01*
X644931Y403901D01*
X641967Y405612D01*
X638661Y406498D01*
X635239D01*
X631933Y405612D01*
X628969Y403901D01*
X626549Y401481D01*
X624838Y398517D01*
X624586Y397578D01*
X585828D01*
Y414500D01*
Y503250D01*
X594750D01*
Y512171D01*
X641745D01*
Y503249D01*
X667745D01*
Y529249D01*
X641745D01*
Y520328D01*
X594750D01*
Y529250D01*
D02*
G37*
G36*
X1145750Y527250D02*
X1119750D01*
Y501250D01*
X1145750D01*
Y527250D01*
D02*
G37*
G36*
X1075750D02*
X1049750D01*
Y501250D01*
X1075750D01*
Y527250D01*
D02*
G37*
G36*
X969511Y629498D02*
X966089D01*
X962783Y628612D01*
X959819Y626901D01*
X957399Y624481D01*
X955688Y621517D01*
X954802Y618211D01*
Y614789D01*
X955688Y611483D01*
X957399Y608519D01*
X959819Y606099D01*
X962783Y604388D01*
X966089Y603502D01*
X969511D01*
X972817Y604388D01*
X975781Y606099D01*
X978201Y608519D01*
X979912Y611483D01*
X980644Y614212D01*
X982021D01*
X991922Y604311D01*
Y468828D01*
X815250D01*
X815250Y468828D01*
X813948Y468569D01*
X813689Y468518D01*
X812366Y467634D01*
X806166Y461434D01*
X805282Y460111D01*
X805231Y459852D01*
X804972Y458550D01*
X804972Y458550D01*
Y454850D01*
X799550D01*
Y435850D01*
X818550D01*
Y454850D01*
X813128D01*
Y456861D01*
X816939Y460672D01*
X993657D01*
X993657Y460672D01*
X994959Y460931D01*
X995218Y460982D01*
X996541Y461866D01*
X998884Y464209D01*
X998884Y464209D01*
X999768Y465532D01*
X1000078Y467093D01*
Y606000D01*
X1000078Y606000D01*
X999819Y607302D01*
X999768Y607561D01*
X998884Y608884D01*
X998884Y608884D01*
X986594Y621174D01*
X985271Y622058D01*
X985012Y622109D01*
X983710Y622368D01*
X983710Y622368D01*
X979421D01*
X978201Y624481D01*
X975781Y626901D01*
X972817Y628612D01*
X969511Y629498D01*
D02*
G37*
G36*
X889701Y454850D02*
X887199D01*
X884783Y454203D01*
X882617Y452952D01*
X880848Y451183D01*
X879597Y449017D01*
X878950Y446601D01*
Y444099D01*
X879597Y441683D01*
X880848Y439517D01*
X882617Y437748D01*
X884783Y436497D01*
X887199Y435850D01*
X889701D01*
X892117Y436497D01*
X894283Y437748D01*
X896052Y439517D01*
X897303Y441683D01*
X897950Y444099D01*
Y446601D01*
X897303Y449017D01*
X896052Y451183D01*
X894283Y452952D01*
X892117Y454203D01*
X889701Y454850D01*
D02*
G37*
G36*
X483132Y454053D02*
X480368D01*
X477697Y453337D01*
X475303Y451955D01*
X473348Y450000D01*
X471966Y447606D01*
X471250Y444935D01*
Y442170D01*
X471966Y439500D01*
X473348Y437106D01*
X475303Y435151D01*
X477697Y433768D01*
X480368Y433053D01*
X483132D01*
X485803Y433768D01*
X488197Y435151D01*
X490152Y437106D01*
X491534Y439500D01*
X492250Y442170D01*
Y444935D01*
X491534Y447606D01*
X490152Y450000D01*
X488197Y451955D01*
X485803Y453337D01*
X483132Y454053D01*
D02*
G37*
G36*
X450132D02*
X447368D01*
X444697Y453337D01*
X442303Y451955D01*
X440348Y450000D01*
X438966Y447606D01*
X438250Y444935D01*
Y442170D01*
X438966Y439500D01*
X440348Y437106D01*
X442303Y435151D01*
X444697Y433768D01*
X447368Y433053D01*
X450132D01*
X452803Y433768D01*
X455197Y435151D01*
X457152Y437106D01*
X458534Y439500D01*
X459250Y442170D01*
Y444935D01*
X458534Y447606D01*
X457152Y450000D01*
X455197Y451955D01*
X452803Y453337D01*
X450132Y454053D01*
D02*
G37*
G36*
X282414Y440040D02*
X281770D01*
Y426770D01*
X295040D01*
Y427414D01*
X294049Y431112D01*
X292135Y434428D01*
X289428Y437135D01*
X286112Y439049D01*
X282414Y440040D01*
D02*
G37*
G36*
X231414D02*
X230770D01*
Y426770D01*
X244040D01*
Y427414D01*
X243049Y431112D01*
X241135Y434428D01*
X238428Y437135D01*
X235112Y439049D01*
X231414Y440040D01*
D02*
G37*
G36*
X228230D02*
X227586D01*
X223888Y439049D01*
X220572Y437135D01*
X217865Y434428D01*
X215951Y431112D01*
X214960Y427414D01*
Y426770D01*
X228230D01*
Y440040D01*
D02*
G37*
G36*
X279230D02*
X278586D01*
X274888Y439049D01*
X271572Y437135D01*
X268865Y434428D01*
X266951Y431112D01*
X265960Y427414D01*
Y426770D01*
X279230D01*
Y440040D01*
D02*
G37*
G36*
X295040Y424230D02*
X281770D01*
Y410960D01*
X282414D01*
X286112Y411951D01*
X289428Y413865D01*
X292135Y416572D01*
X294049Y419888D01*
X295040Y423586D01*
Y424230D01*
D02*
G37*
G36*
X279230D02*
X265960D01*
Y423586D01*
X266951Y419888D01*
X268865Y416572D01*
X271572Y413865D01*
X274888Y411951D01*
X278586Y410960D01*
X279230D01*
Y424230D01*
D02*
G37*
G36*
X244040D02*
X230770D01*
Y410960D01*
X231414D01*
X235112Y411951D01*
X238428Y413865D01*
X241135Y416572D01*
X243049Y419888D01*
X244040Y423586D01*
Y424230D01*
D02*
G37*
G36*
X228230D02*
X214960D01*
Y423586D01*
X215951Y419888D01*
X217865Y416572D01*
X220572Y413865D01*
X223888Y411951D01*
X227586Y410960D01*
X228230D01*
Y424230D01*
D02*
G37*
G36*
X889701Y429450D02*
X887199D01*
X884783Y428803D01*
X882617Y427552D01*
X880848Y425783D01*
X879597Y423617D01*
X878950Y421201D01*
Y418699D01*
X879597Y416283D01*
X880848Y414117D01*
X882617Y412348D01*
X884783Y411097D01*
X887199Y410450D01*
X889701D01*
X892117Y411097D01*
X894283Y412348D01*
X896052Y414117D01*
X897303Y416283D01*
X897950Y418699D01*
Y421201D01*
X897303Y423617D01*
X896052Y425783D01*
X894283Y427552D01*
X892117Y428803D01*
X889701Y429450D01*
D02*
G37*
G36*
X770211Y434198D02*
X766789D01*
X763483Y433312D01*
X760519Y431601D01*
X758099Y429181D01*
X756388Y426217D01*
X755502Y422911D01*
Y419489D01*
X756388Y416183D01*
X758099Y413219D01*
X760519Y410799D01*
X763483Y409088D01*
X766789Y408202D01*
X770211D01*
X773517Y409088D01*
X776481Y410799D01*
X778901Y413219D01*
X780288Y415622D01*
X800579D01*
X801448Y414117D01*
X803217Y412348D01*
X805383Y411097D01*
X807799Y410450D01*
X810301D01*
X812717Y411097D01*
X814883Y412348D01*
X816652Y414117D01*
X817903Y416283D01*
X818550Y418699D01*
Y421201D01*
X817903Y423617D01*
X816652Y425783D01*
X814883Y427552D01*
X812717Y428803D01*
X810301Y429450D01*
X807799D01*
X805383Y428803D01*
X803217Y427552D01*
X801448Y425783D01*
X800291Y423778D01*
X781266D01*
X780612Y426217D01*
X778901Y429181D01*
X776481Y431601D01*
X773517Y433312D01*
X770211Y434198D01*
D02*
G37*
G36*
X1224403Y418790D02*
X1224220D01*
Y409020D01*
X1233990D01*
Y409203D01*
X1233238Y412011D01*
X1231784Y414529D01*
X1229729Y416584D01*
X1227211Y418038D01*
X1224403Y418790D01*
D02*
G37*
G36*
X1221680D02*
X1221497D01*
X1218689Y418038D01*
X1216171Y416584D01*
X1214116Y414529D01*
X1212662Y412011D01*
X1211910Y409203D01*
Y409020D01*
X1221680D01*
Y418790D01*
D02*
G37*
G36*
X450132Y429053D02*
X447368D01*
X444697Y428337D01*
X442303Y426955D01*
X440348Y425000D01*
X438966Y422606D01*
X438250Y419935D01*
Y417170D01*
X438966Y414500D01*
X440348Y412106D01*
X442303Y410151D01*
X444697Y408768D01*
X447368Y408053D01*
X450132D01*
X452803Y408768D01*
X455197Y410151D01*
X457152Y412106D01*
X458534Y414500D01*
X459250Y417170D01*
Y419935D01*
X458534Y422606D01*
X457152Y425000D01*
X455197Y426955D01*
X452803Y428337D01*
X450132Y429053D01*
D02*
G37*
G36*
X1208050Y418250D02*
X1187050D01*
Y397250D01*
X1208050D01*
Y418250D01*
D02*
G37*
G36*
X1233990Y406480D02*
X1224220D01*
Y396710D01*
X1224403D01*
X1227211Y397462D01*
X1229729Y398916D01*
X1231784Y400971D01*
X1233238Y403489D01*
X1233990Y406297D01*
Y406480D01*
D02*
G37*
G36*
X1221680D02*
X1211910D01*
Y406297D01*
X1212662Y403489D01*
X1214116Y400971D01*
X1216171Y398916D01*
X1218689Y397462D01*
X1221497Y396710D01*
X1221680D01*
Y406480D01*
D02*
G37*
G36*
X889701Y404050D02*
X887199D01*
X884783Y403403D01*
X882617Y402152D01*
X880848Y400383D01*
X879597Y398217D01*
X878950Y395801D01*
Y393299D01*
X879597Y390883D01*
X880848Y388717D01*
X882617Y386948D01*
X884783Y385698D01*
X887199Y385050D01*
X889701D01*
X892117Y385698D01*
X894283Y386948D01*
X896052Y388717D01*
X897303Y390883D01*
X897950Y393299D01*
Y395801D01*
X897303Y398217D01*
X896052Y400383D01*
X894283Y402152D01*
X892117Y403403D01*
X889701Y404050D01*
D02*
G37*
G36*
X483132Y404053D02*
X480368D01*
X477697Y403337D01*
X475303Y401955D01*
X473348Y400000D01*
X471966Y397606D01*
X471250Y394935D01*
Y392170D01*
X471966Y389500D01*
X473348Y387106D01*
X475303Y385151D01*
X477697Y383768D01*
X480368Y383053D01*
X483132D01*
X485803Y383768D01*
X488197Y385151D01*
X490152Y387106D01*
X491534Y389500D01*
X492250Y392170D01*
Y394935D01*
X491534Y397606D01*
X490152Y400000D01*
X488197Y401955D01*
X485803Y403337D01*
X483132Y404053D01*
D02*
G37*
G36*
X450132D02*
X447368D01*
X444697Y403337D01*
X442303Y401955D01*
X440348Y400000D01*
X438966Y397606D01*
X438250Y394935D01*
Y392170D01*
X438966Y389500D01*
X440348Y387106D01*
X442303Y385151D01*
X444697Y383768D01*
X447368Y383053D01*
X450132D01*
X452803Y383768D01*
X455197Y385151D01*
X457152Y387106D01*
X458534Y389500D01*
X459250Y392170D01*
Y394935D01*
X458534Y397606D01*
X457152Y400000D01*
X455197Y401955D01*
X452803Y403337D01*
X450132Y404053D01*
D02*
G37*
G36*
X282414Y389040D02*
X281770D01*
Y375770D01*
X295040D01*
Y376414D01*
X294049Y380112D01*
X292135Y383428D01*
X289428Y386135D01*
X286112Y388049D01*
X282414Y389040D01*
D02*
G37*
G36*
X231414D02*
X230770D01*
Y375770D01*
X244040D01*
Y376414D01*
X243049Y380112D01*
X241135Y383428D01*
X238428Y386135D01*
X235112Y388049D01*
X231414Y389040D01*
D02*
G37*
G36*
X228230D02*
X227586D01*
X223888Y388049D01*
X220572Y386135D01*
X217865Y383428D01*
X215951Y380112D01*
X214960Y376414D01*
Y375770D01*
X228230D01*
Y389040D01*
D02*
G37*
G36*
X279230D02*
X278586D01*
X274888Y388049D01*
X271572Y386135D01*
X268865Y383428D01*
X266951Y380112D01*
X265960Y376414D01*
Y375770D01*
X279230D01*
Y389040D01*
D02*
G37*
G36*
X396500Y398000D02*
X370500D01*
Y372000D01*
X396500D01*
Y398000D01*
D02*
G37*
G36*
X810372Y379190D02*
X810320D01*
Y370420D01*
X819090D01*
Y370472D01*
X818406Y373025D01*
X817084Y375315D01*
X815215Y377184D01*
X812925Y378506D01*
X810372Y379190D01*
D02*
G37*
G36*
X807780D02*
X807728D01*
X805175Y378506D01*
X802885Y377184D01*
X801016Y375315D01*
X799694Y373025D01*
X799010Y370472D01*
Y370420D01*
X807780D01*
Y379190D01*
D02*
G37*
G36*
X295040Y373230D02*
X281770D01*
Y359960D01*
X282414D01*
X286112Y360951D01*
X289428Y362865D01*
X292135Y365572D01*
X294049Y368888D01*
X295040Y372586D01*
Y373230D01*
D02*
G37*
G36*
X279230D02*
X265960D01*
Y372586D01*
X266951Y368888D01*
X268865Y365572D01*
X271572Y362865D01*
X274888Y360951D01*
X278586Y359960D01*
X279230D01*
Y373230D01*
D02*
G37*
G36*
X244040D02*
X230770D01*
Y359960D01*
X231414D01*
X235112Y360951D01*
X238428Y362865D01*
X241135Y365572D01*
X243049Y368888D01*
X244040Y372586D01*
Y373230D01*
D02*
G37*
G36*
X228230D02*
X214960D01*
Y372586D01*
X215951Y368888D01*
X217865Y365572D01*
X220572Y362865D01*
X223888Y360951D01*
X227586Y359960D01*
X228230D01*
Y373230D01*
D02*
G37*
G36*
X889701Y378650D02*
X887199D01*
X884783Y378003D01*
X882617Y376752D01*
X880848Y374983D01*
X879597Y372817D01*
X878950Y370401D01*
Y367899D01*
X879597Y365483D01*
X880848Y363317D01*
X882617Y361548D01*
X884783Y360298D01*
X887199Y359650D01*
X889701D01*
X892117Y360298D01*
X894283Y361548D01*
X896052Y363317D01*
X897303Y365483D01*
X897950Y367899D01*
Y370401D01*
X897303Y372817D01*
X896052Y374983D01*
X894283Y376752D01*
X892117Y378003D01*
X889701Y378650D01*
D02*
G37*
G36*
X819090Y367880D02*
X810320D01*
Y359110D01*
X810372D01*
X812925Y359794D01*
X815215Y361116D01*
X817084Y362985D01*
X818406Y365275D01*
X819090Y367828D01*
Y367880D01*
D02*
G37*
G36*
X807780D02*
X799010D01*
Y367828D01*
X799694Y365275D01*
X801016Y362985D01*
X802885Y361116D01*
X805175Y359794D01*
X807728Y359110D01*
X807780D01*
Y367880D01*
D02*
G37*
G36*
X770711Y382798D02*
X767289D01*
X763983Y381912D01*
X761019Y380201D01*
X758599Y377781D01*
X756888Y374817D01*
X756636Y373878D01*
X730843D01*
X729282Y373568D01*
X727959Y372684D01*
X727959Y372684D01*
X725616Y370341D01*
X724732Y369018D01*
X724681Y368759D01*
X724422Y367457D01*
X724422Y367457D01*
Y356766D01*
X723482Y356514D01*
X720518Y354803D01*
X718097Y352382D01*
X716386Y349418D01*
X715500Y346111D01*
Y342688D01*
X716386Y339382D01*
X718097Y336418D01*
X720518Y333997D01*
X723482Y332286D01*
X726788Y331400D01*
X730211D01*
X733518Y332286D01*
X736482Y333997D01*
X738903Y336418D01*
X740614Y339382D01*
X741500Y342688D01*
Y346111D01*
X740614Y349418D01*
X738903Y352382D01*
X736482Y354803D01*
X733518Y356514D01*
X732578Y356766D01*
Y365722D01*
X756636D01*
X756888Y364783D01*
X758599Y361819D01*
X761019Y359399D01*
X763983Y357688D01*
X767289Y356802D01*
X770711D01*
X774017Y357688D01*
X776981Y359399D01*
X779401Y361819D01*
X781112Y364783D01*
X781998Y368089D01*
Y371511D01*
X781112Y374817D01*
X779401Y377781D01*
X776981Y380201D01*
X774017Y381912D01*
X770711Y382798D01*
D02*
G37*
G36*
X876433Y345790D02*
X875920D01*
Y333520D01*
X888190D01*
Y334033D01*
X887267Y337476D01*
X885485Y340564D01*
X882964Y343085D01*
X879876Y344867D01*
X876433Y345790D01*
D02*
G37*
G36*
X873380D02*
X872867D01*
X869424Y344867D01*
X866336Y343085D01*
X863815Y340564D01*
X862033Y337476D01*
X861110Y334033D01*
Y333520D01*
X873380D01*
Y345790D01*
D02*
G37*
G36*
X396500Y354000D02*
X370500D01*
Y328000D01*
X396500D01*
Y354000D01*
D02*
G37*
G36*
X825562Y345250D02*
X822139D01*
X818832Y344364D01*
X815868Y342653D01*
X813447Y340232D01*
X811736Y337268D01*
X810850Y333961D01*
Y330538D01*
X811736Y327232D01*
X813447Y324268D01*
X815868Y321847D01*
X818832Y320136D01*
X822139Y319250D01*
X825562D01*
X828868Y320136D01*
X831832Y321847D01*
X834253Y324268D01*
X835964Y327232D01*
X836850Y330538D01*
Y333961D01*
X835964Y337268D01*
X834253Y340232D01*
X831832Y342653D01*
X828868Y344364D01*
X825562Y345250D01*
D02*
G37*
G36*
X888190Y330980D02*
X875920D01*
Y318710D01*
X876433D01*
X879876Y319633D01*
X882964Y321415D01*
X885485Y323936D01*
X887267Y327024D01*
X888190Y330467D01*
Y330980D01*
D02*
G37*
G36*
X873380D02*
X861110D01*
Y330467D01*
X862033Y327024D01*
X863815Y323936D01*
X866336Y321415D01*
X869424Y319633D01*
X872867Y318710D01*
X873380D01*
Y330980D01*
D02*
G37*
G36*
X730283Y307140D02*
X729770D01*
Y294870D01*
X742040D01*
Y295383D01*
X741117Y298826D01*
X739335Y301914D01*
X736814Y304435D01*
X733726Y306217D01*
X730283Y307140D01*
D02*
G37*
G36*
X727230D02*
X726717D01*
X723274Y306217D01*
X720186Y304435D01*
X717665Y301914D01*
X715883Y298826D01*
X714960Y295383D01*
Y294870D01*
X727230D01*
Y307140D01*
D02*
G37*
G36*
X742040Y292330D02*
X729770D01*
Y280060D01*
X730283D01*
X733726Y280983D01*
X736814Y282765D01*
X739335Y285286D01*
X741117Y288374D01*
X742040Y291817D01*
Y292330D01*
D02*
G37*
G36*
X727230D02*
X714960D01*
Y291817D01*
X715883Y288374D01*
X717665Y285286D01*
X720186Y282765D01*
X723274Y280983D01*
X726717Y280060D01*
X727230D01*
Y292330D01*
D02*
G37*
G36*
X770782Y281738D02*
X770270D01*
Y269470D01*
X782538D01*
Y269982D01*
X781616Y273426D01*
X779833Y276513D01*
X777313Y279033D01*
X774225Y280816D01*
X770782Y281738D01*
D02*
G37*
G36*
X767730D02*
X767218D01*
X763774Y280816D01*
X760687Y279033D01*
X758167Y276513D01*
X756384Y273426D01*
X755462Y269982D01*
Y269470D01*
X767730D01*
Y281738D01*
D02*
G37*
G36*
X282593Y272250D02*
X278907D01*
X275346Y271296D01*
X272154Y269453D01*
X269547Y266846D01*
X267952Y264084D01*
X242547D01*
X240953Y266846D01*
X238346Y269453D01*
X235154Y271296D01*
X231593Y272250D01*
X227907D01*
X224346Y271296D01*
X221154Y269453D01*
X218547Y266846D01*
X216704Y263654D01*
X215750Y260093D01*
Y256407D01*
X216704Y252846D01*
X218547Y249654D01*
X221154Y247047D01*
X224346Y245204D01*
X227907Y244250D01*
X231593D01*
X235154Y245204D01*
X238346Y247047D01*
X240953Y249654D01*
X242796Y252846D01*
X243750Y256407D01*
Y257416D01*
X266750D01*
Y256407D01*
X267704Y252846D01*
X269547Y249654D01*
X272154Y247047D01*
X275346Y245204D01*
X277416Y244650D01*
Y220851D01*
X275346Y220296D01*
X272154Y218453D01*
X269547Y215846D01*
X267952Y213084D01*
X242547D01*
X240953Y215846D01*
X238346Y218453D01*
X235154Y220296D01*
X231593Y221250D01*
X227907D01*
X224346Y220296D01*
X221154Y218453D01*
X218547Y215846D01*
X216704Y212654D01*
X215750Y209093D01*
Y205407D01*
X216704Y201846D01*
X218547Y198654D01*
X221154Y196047D01*
X224346Y194204D01*
X227907Y193250D01*
X231593D01*
X235154Y194204D01*
X238346Y196047D01*
X240953Y198654D01*
X242796Y201846D01*
X243750Y205407D01*
Y206416D01*
X266750D01*
Y205407D01*
X267704Y201846D01*
X269547Y198654D01*
X272154Y196047D01*
X275346Y194204D01*
X278907Y193250D01*
X282593D01*
X286154Y194204D01*
X289346Y196047D01*
X291953Y198654D01*
X293796Y201846D01*
X294750Y205407D01*
Y209093D01*
X293796Y212654D01*
X291953Y215846D01*
X289346Y218453D01*
X286154Y220296D01*
X284084Y220851D01*
Y244650D01*
X286154Y245204D01*
X289346Y247047D01*
X291953Y249654D01*
X293796Y252846D01*
X294750Y256407D01*
Y260093D01*
X293796Y263654D01*
X291953Y266846D01*
X289346Y269453D01*
X286154Y271296D01*
X282593Y272250D01*
D02*
G37*
G36*
X782538Y266930D02*
X770270D01*
Y254662D01*
X770782D01*
X774225Y255584D01*
X777313Y257367D01*
X779833Y259887D01*
X781616Y262974D01*
X782538Y266418D01*
Y266930D01*
D02*
G37*
G36*
X767730D02*
X755462D01*
Y266418D01*
X756384Y262974D01*
X758167Y259887D01*
X760687Y257367D01*
X763774Y255584D01*
X767218Y254662D01*
X767730D01*
Y266930D01*
D02*
G37*
G36*
X1076040Y245040D02*
X1063770D01*
Y232770D01*
X1076040D01*
Y245040D01*
D02*
G37*
G36*
X1061230D02*
X1048960D01*
Y232770D01*
X1061230D01*
Y245040D01*
D02*
G37*
G36*
X1141040D02*
X1128770D01*
Y232770D01*
X1141040D01*
Y245040D01*
D02*
G37*
G36*
X1126230D02*
X1113960D01*
Y232770D01*
X1126230D01*
Y245040D01*
D02*
G37*
G36*
X668540Y243540D02*
X656270D01*
Y231270D01*
X668540D01*
Y243540D01*
D02*
G37*
G36*
X653730D02*
X641460D01*
Y231270D01*
X653730D01*
Y243540D01*
D02*
G37*
G36*
X593540D02*
X581270D01*
Y231270D01*
X593540D01*
Y243540D01*
D02*
G37*
G36*
X578730D02*
X566460D01*
Y231270D01*
X578730D01*
Y243540D01*
D02*
G37*
G36*
X513540D02*
X501270D01*
Y231270D01*
X513540D01*
Y243540D01*
D02*
G37*
G36*
X498730D02*
X486460D01*
Y231270D01*
X498730D01*
Y243540D01*
D02*
G37*
G36*
X1141040Y230230D02*
X1128770D01*
Y217960D01*
X1141040D01*
Y230230D01*
D02*
G37*
G36*
X1126230D02*
X1113960D01*
Y217960D01*
X1126230D01*
Y230230D01*
D02*
G37*
G36*
X1076040Y230230D02*
X1063770D01*
Y217960D01*
X1076040D01*
Y230230D01*
D02*
G37*
G36*
X1061230D02*
X1048960D01*
Y217960D01*
X1061230D01*
Y230230D01*
D02*
G37*
G36*
X668540Y228730D02*
X656270D01*
Y216460D01*
X668540D01*
Y228730D01*
D02*
G37*
G36*
X653730D02*
X641460D01*
Y216460D01*
X653730D01*
Y228730D01*
D02*
G37*
G36*
X593540D02*
X581270D01*
Y216460D01*
X593540D01*
Y228730D01*
D02*
G37*
G36*
X578730D02*
X566460D01*
Y216460D01*
X578730D01*
Y228730D01*
D02*
G37*
G36*
X513540D02*
X501270D01*
Y216460D01*
X513540D01*
Y228730D01*
D02*
G37*
G36*
X498730D02*
X486460D01*
Y216460D01*
X498730D01*
Y228730D01*
D02*
G37*
G36*
X433453Y128290D02*
X433270D01*
Y118520D01*
X443040D01*
Y118703D01*
X442288Y121511D01*
X440834Y124029D01*
X438779Y126084D01*
X436261Y127538D01*
X433453Y128290D01*
D02*
G37*
G36*
X430730D02*
X430547D01*
X427739Y127538D01*
X425221Y126084D01*
X423166Y124029D01*
X421712Y121511D01*
X420960Y118703D01*
Y118520D01*
X430730D01*
Y128290D01*
D02*
G37*
G36*
X327750Y144000D02*
X301750D01*
Y118000D01*
X327750D01*
Y144000D01*
D02*
G37*
G36*
X408382Y127750D02*
X405618D01*
X402947Y127034D01*
X400553Y125652D01*
X398598Y123697D01*
X397216Y121303D01*
X396500Y118632D01*
Y115868D01*
X397216Y113197D01*
X398598Y110803D01*
X400553Y108848D01*
X402947Y107466D01*
X405618Y106750D01*
X408382D01*
X411053Y107466D01*
X413447Y108848D01*
X415402Y110803D01*
X416784Y113197D01*
X417500Y115868D01*
Y118632D01*
X416784Y121303D01*
X415402Y123697D01*
X413447Y125652D01*
X411053Y127034D01*
X408382Y127750D01*
D02*
G37*
G36*
X383382D02*
X380618D01*
X377947Y127034D01*
X375553Y125652D01*
X373598Y123697D01*
X372216Y121303D01*
X371500Y118632D01*
Y115868D01*
X372216Y113197D01*
X373598Y110803D01*
X375553Y108848D01*
X377947Y107466D01*
X380618Y106750D01*
X383382D01*
X386053Y107466D01*
X388447Y108848D01*
X390402Y110803D01*
X391784Y113197D01*
X392500Y115868D01*
Y118632D01*
X391784Y121303D01*
X390402Y123697D01*
X388447Y125652D01*
X386053Y127034D01*
X383382Y127750D01*
D02*
G37*
G36*
X443040Y115980D02*
X433270D01*
Y106210D01*
X433453D01*
X436261Y106962D01*
X438779Y108416D01*
X440834Y110471D01*
X442288Y112989D01*
X443040Y115796D01*
Y115980D01*
D02*
G37*
G36*
X430730D02*
X420960D01*
Y115796D01*
X421712Y112989D01*
X423166Y110471D01*
X425221Y108416D01*
X427739Y106962D01*
X430547Y106210D01*
X430730D01*
Y115980D01*
D02*
G37*
G36*
X723240Y104700D02*
X720080D01*
X717028Y103882D01*
X714292Y102302D01*
X712057Y100068D01*
X710478Y97332D01*
X709660Y94280D01*
Y91120D01*
X710478Y88068D01*
X712057Y85332D01*
X714292Y83098D01*
X717028Y81518D01*
X720080Y80700D01*
X723240D01*
X726292Y81518D01*
X729028Y83098D01*
X731262Y85332D01*
X732842Y88068D01*
X733660Y91120D01*
Y94280D01*
X732842Y97332D01*
X731262Y100068D01*
X729028Y102302D01*
X726292Y103882D01*
X723240Y104700D01*
D02*
G37*
G36*
X906225Y102475D02*
X880225D01*
Y76475D01*
X906225D01*
Y102475D01*
D02*
G37*
G36*
X433382Y94750D02*
X430618D01*
X427947Y94034D01*
X425553Y92652D01*
X423598Y90697D01*
X422216Y88303D01*
X421500Y85632D01*
Y82868D01*
X422216Y80197D01*
X423598Y77803D01*
X425553Y75848D01*
X427947Y74466D01*
X430618Y73750D01*
X433382D01*
X436053Y74466D01*
X438447Y75848D01*
X440402Y77803D01*
X441784Y80197D01*
X442500Y82868D01*
Y85632D01*
X441784Y88303D01*
X440402Y90697D01*
X438447Y92652D01*
X436053Y94034D01*
X433382Y94750D01*
D02*
G37*
G36*
X408382D02*
X405618D01*
X402947Y94034D01*
X400553Y92652D01*
X398598Y90697D01*
X397216Y88303D01*
X396500Y85632D01*
Y82868D01*
X397216Y80197D01*
X398598Y77803D01*
X400553Y75848D01*
X402947Y74466D01*
X405618Y73750D01*
X408382D01*
X411053Y74466D01*
X413447Y75848D01*
X415402Y77803D01*
X416784Y80197D01*
X417500Y82868D01*
Y85632D01*
X416784Y88303D01*
X415402Y90697D01*
X413447Y92652D01*
X411053Y94034D01*
X408382Y94750D01*
D02*
G37*
G36*
X383382D02*
X380618D01*
X377947Y94034D01*
X375553Y92652D01*
X373598Y90697D01*
X372216Y88303D01*
X371500Y85632D01*
Y82868D01*
X372216Y80197D01*
X373598Y77803D01*
X375553Y75848D01*
X377947Y74466D01*
X380618Y73750D01*
X383382D01*
X386053Y74466D01*
X388447Y75848D01*
X390402Y77803D01*
X391784Y80197D01*
X392500Y82868D01*
Y85632D01*
X391784Y88303D01*
X390402Y90697D01*
X388447Y92652D01*
X386053Y94034D01*
X383382Y94750D01*
D02*
G37*
G36*
X530456Y86660D02*
X528744D01*
X527091Y86217D01*
X525609Y85361D01*
X524399Y84151D01*
X523543Y82669D01*
X523100Y81016D01*
Y79304D01*
X523543Y77651D01*
X524399Y76169D01*
X525609Y74959D01*
X527091Y74103D01*
X528744Y73660D01*
X530456D01*
X532109Y74103D01*
X533591Y74959D01*
X534801Y76169D01*
X535657Y77651D01*
X536100Y79304D01*
Y81016D01*
X535657Y82669D01*
X534801Y84151D01*
X533591Y85361D01*
X532109Y86217D01*
X530456Y86660D01*
D02*
G37*
G36*
X581256Y76500D02*
X579544D01*
X577891Y76057D01*
X576409Y75201D01*
X575199Y73991D01*
X574343Y72509D01*
X573900Y70856D01*
Y69144D01*
X574343Y67491D01*
X575199Y66009D01*
X576409Y64799D01*
X577891Y63943D01*
X579544Y63500D01*
X581256D01*
X582909Y63943D01*
X584391Y64799D01*
X585601Y66009D01*
X586457Y67491D01*
X586900Y69144D01*
Y70856D01*
X586457Y72509D01*
X585601Y73991D01*
X584391Y75201D01*
X582909Y76057D01*
X581256Y76500D01*
D02*
G37*
G36*
X723240Y79300D02*
X720080D01*
X717028Y78482D01*
X714292Y76902D01*
X712057Y74668D01*
X710478Y71932D01*
X709660Y68880D01*
Y65720D01*
X710478Y62668D01*
X712057Y59932D01*
X714292Y57698D01*
X717028Y56118D01*
X720080Y55300D01*
X723240D01*
X726292Y56118D01*
X729028Y57698D01*
X731262Y59932D01*
X732842Y62668D01*
X733660Y65720D01*
Y68880D01*
X732842Y71932D01*
X731262Y74668D01*
X729028Y76902D01*
X726292Y78482D01*
X723240Y79300D01*
D02*
G37*
G36*
X530456Y66340D02*
X528744D01*
X527091Y65897D01*
X525609Y65041D01*
X524399Y63831D01*
X523543Y62349D01*
X523100Y60696D01*
Y58984D01*
X523543Y57331D01*
X524399Y55849D01*
X525609Y54639D01*
X527091Y53783D01*
X528744Y53340D01*
X530456D01*
X532109Y53783D01*
X533591Y54639D01*
X534801Y55849D01*
X535657Y57331D01*
X536100Y58984D01*
Y60696D01*
X535657Y62349D01*
X534801Y63831D01*
X533591Y65041D01*
X532109Y65897D01*
X530456Y66340D01*
D02*
G37*
%LPD*%
D19*
X229750Y260750D02*
X280750D01*
X229750Y209750D02*
X280750D01*
X229500Y595500D02*
X280500D01*
X229500Y544500D02*
X280500D01*
X281778Y543222D01*
X229500Y544500D02*
Y595500D01*
X280750Y258250D02*
Y260750D01*
Y209750D02*
Y258250D01*
X229750D02*
Y260750D01*
X229500Y377000D02*
X232000Y374500D01*
Y425500D02*
X278000D01*
X229500Y377000D02*
Y428000D01*
X232000Y425500D01*
X278000D02*
X280500Y428000D01*
X232000Y374500D02*
X278000D01*
X280500Y377000D01*
D32*
X529600Y59840D02*
D03*
Y80160D02*
D03*
X580400Y70000D02*
D03*
D34*
X481750Y418553D02*
X485268D01*
X489321Y414500D02*
X581750D01*
X485268Y418553D02*
X489321Y414500D01*
X581750Y395843D02*
Y414500D01*
Y516250D01*
Y395843D02*
X584093Y393500D01*
X636950D01*
X822000Y601750D02*
X836750Y616500D01*
X866200D01*
X780250Y618500D02*
X797000Y601750D01*
X760950Y618500D02*
X780250D01*
X738550Y596100D02*
X760950Y618500D01*
X969590Y618290D02*
X983710D01*
X967800Y616500D02*
X969590Y618290D01*
X983710D02*
X996000Y606000D01*
Y467093D02*
Y606000D01*
X993657Y464750D02*
X996000Y467093D01*
X815250Y464750D02*
X993657D01*
X809050Y458550D02*
X815250Y464750D01*
X809050Y445350D02*
Y458550D01*
X738550Y393500D02*
Y596100D01*
Y393500D02*
X739800Y394750D01*
X770000Y419700D02*
X808800D01*
X768500Y421200D02*
X770000Y419700D01*
X728500Y271250D02*
Y293600D01*
Y271250D02*
X732300Y267450D01*
X768250D01*
X769000Y268200D01*
X730843Y369800D02*
X769000D01*
X728500Y367457D02*
X730843Y369800D01*
X728500Y344400D02*
Y367457D01*
X581751Y516249D02*
X654745D01*
X739800Y394750D02*
X808850D01*
X809050Y394550D01*
D35*
X448750Y418553D02*
D03*
Y443553D02*
D03*
X481750D02*
D03*
Y418553D02*
D03*
Y393553D02*
D03*
X448750D02*
D03*
X822000Y601750D02*
D03*
Y634750D02*
D03*
X797000D02*
D03*
X772000D02*
D03*
Y601750D02*
D03*
X797000D02*
D03*
X432000Y84250D02*
D03*
Y117250D02*
D03*
X407000D02*
D03*
X382000D02*
D03*
Y84250D02*
D03*
X407000D02*
D03*
X1222950Y407750D02*
D03*
D36*
X893225Y89475D02*
D03*
X314750Y131000D02*
D03*
X383500Y341000D02*
D03*
Y385000D02*
D03*
X1127500Y231500D02*
D03*
D37*
X721340Y707550D02*
D03*
Y732950D02*
D03*
X721660Y67300D02*
D03*
Y92700D02*
D03*
D38*
X888450Y445350D02*
D03*
Y419950D02*
D03*
Y394550D02*
D03*
Y369150D02*
D03*
X809050D02*
D03*
Y394550D02*
D03*
Y419950D02*
D03*
D39*
Y445350D02*
D03*
D40*
X229750Y258250D02*
D03*
X280750D02*
D03*
X229750Y207250D02*
D03*
X280750D02*
D03*
X229500Y595500D02*
D03*
X280500D02*
D03*
X229500Y544500D02*
D03*
X280500D02*
D03*
X229500Y425500D02*
D03*
X280500D02*
D03*
X229500Y374500D02*
D03*
X280500D02*
D03*
D41*
X1220000Y720000D02*
D03*
X80000D02*
D03*
Y80000D02*
D03*
X1220000D02*
D03*
D42*
X1197550Y407750D02*
D03*
D43*
X893500Y708275D02*
D03*
X654745Y516249D02*
D03*
X581750Y516250D02*
D03*
X464250Y517750D02*
D03*
X655000Y230000D02*
D03*
X580000D02*
D03*
X500000D02*
D03*
X1132750Y514250D02*
D03*
X1062750D02*
D03*
X1062500Y231500D02*
D03*
D44*
X728500Y344400D02*
D03*
Y293600D02*
D03*
X823850Y332250D02*
D03*
X874650D02*
D03*
D45*
X769000Y268200D02*
D03*
Y369800D02*
D03*
X636950Y393500D02*
D03*
X738550D02*
D03*
X768500Y522800D02*
D03*
Y421200D02*
D03*
X866200Y616500D02*
D03*
X967800D02*
D03*
D46*
X681311Y271000D02*
D03*
X528500Y271298D02*
D03*
X581000Y353250D02*
D03*
X650500Y48000D02*
D03*
X555250Y48250D02*
D03*
X238500Y718250D02*
D03*
X721000Y167500D02*
D03*
X720750Y627750D02*
D03*
X685000Y167500D02*
D03*
X363500Y212250D02*
D03*
X522500Y184750D02*
D03*
M02*
