G04*
G04 #@! TF.GenerationSoftware,Altium Limited,Altium Designer,24.1.2 (44)*
G04*
G04 Layer_Color=16711935*
%FSLAX44Y44*%
%MOMM*%
G71*
G04*
G04 #@! TF.SameCoordinates,310A886F-5AEF-4929-BF30-60E29D6AC2F0*
G04*
G04*
G04 #@! TF.FilePolarity,Positive*
G04*
G01*
G75*
%ADD10C,0.2000*%
%ADD11C,0.1270*%
%ADD13C,0.1000*%
%ADD15C,0.0500*%
%ADD19C,0.2540*%
D10*
X700112Y699890D02*
G03*
X700112Y699890I-1432J0D01*
G01*
X745752Y100360D02*
G03*
X745752Y100360I-1432J0D01*
G01*
X794000Y449500D02*
G03*
X794000Y449500I-1000J0D01*
G01*
D11*
X709882Y736650D02*
G03*
X732840Y736650I11479J-16393D01*
G01*
X733118Y63600D02*
G03*
X710161Y63600I-11479J16393D01*
G01*
X709740Y736550D02*
X732940D01*
X710060Y63700D02*
X733260D01*
X880500Y359300D02*
Y455200D01*
X817000Y359300D02*
Y455200D01*
Y359300D02*
X880500D01*
X817000Y455200D02*
X880500D01*
D13*
X1230500Y407750D02*
G03*
X1230500Y407750I-20000J0D01*
G01*
X748500Y279000D02*
Y319000D01*
X708500Y279000D02*
Y359000D01*
X748500D01*
Y319000D02*
Y359000D01*
X708500Y279000D02*
X748500D01*
X756300Y346940D02*
X781700D01*
X756300Y350699D02*
X781700D01*
X756300Y287301D02*
X781700D01*
X766460Y369800D02*
X771540D01*
X766460Y268200D02*
X771540D01*
X781700Y287301D02*
Y350699D01*
X756300Y287301D02*
Y350699D01*
X771540Y350750D02*
Y369800D01*
Y268200D02*
Y287250D01*
X766460Y350750D02*
Y369800D01*
Y268200D02*
Y287250D01*
X640745Y502249D02*
Y530249D01*
X668745Y502249D02*
Y530249D01*
X640745D02*
X668745D01*
X640745Y502249D02*
X668745D01*
X567750Y502250D02*
Y530250D01*
X595750Y502250D02*
Y530250D01*
X567750D02*
X595750D01*
X567750Y502250D02*
X595750D01*
X450250Y503750D02*
Y531750D01*
X478250Y503750D02*
Y531750D01*
X450250D02*
X478250D01*
X450250Y503750D02*
X478250D01*
X641000Y216000D02*
Y244000D01*
X669000Y216000D02*
Y244000D01*
X641000D02*
X669000D01*
X641000Y216000D02*
X669000D01*
X566000D02*
Y244000D01*
X594000Y216000D02*
Y244000D01*
X566000D02*
X594000D01*
X566000Y216000D02*
X594000D01*
X486000D02*
Y244000D01*
X514000Y216000D02*
Y244000D01*
X486000D02*
X514000D01*
X486000Y216000D02*
X514000D01*
X1118750Y500250D02*
Y528250D01*
X1146750Y500250D02*
Y528250D01*
X1118750D02*
X1146750D01*
X1118750Y500250D02*
X1146750D01*
X1048750D02*
Y528250D01*
X1076750Y500250D02*
Y528250D01*
X1048750D02*
X1076750D01*
X1048750Y500250D02*
X1076750D01*
X1048500Y217500D02*
Y245500D01*
X1076500Y217500D02*
Y245500D01*
X1048500D02*
X1076500D01*
X1048500Y217500D02*
X1076500D01*
X1113500D02*
X1141500D01*
X1113500Y245500D02*
X1141500D01*
X1113500Y217500D02*
Y245500D01*
X1141500Y217500D02*
Y245500D01*
X719500Y390960D02*
X738550D01*
X636950D02*
X656000D01*
X719500Y396040D02*
X738550D01*
X636950D02*
X656000D01*
X656051Y380800D02*
X719449D01*
X656051Y406200D02*
X719449D01*
X738550Y390960D02*
Y396040D01*
X636950Y390960D02*
Y396040D01*
X719449Y380800D02*
Y406200D01*
X656051Y380800D02*
Y406200D01*
X659810Y380800D02*
Y406200D01*
X765960Y421200D02*
Y440250D01*
Y503750D02*
Y522800D01*
X771040Y421200D02*
Y440250D01*
Y503750D02*
Y522800D01*
X755800Y440301D02*
Y503699D01*
X781200Y440301D02*
Y503699D01*
X765960Y421200D02*
X771040D01*
X765960Y522800D02*
X771040D01*
X755800Y440301D02*
X781200D01*
X755800Y503699D02*
X781200D01*
X755800Y499940D02*
X781200D01*
X948750Y613960D02*
X967800D01*
X866200D02*
X885250D01*
X948750Y619040D02*
X967800D01*
X866200D02*
X885250D01*
X885301Y603800D02*
X948699D01*
X885301Y629200D02*
X948699D01*
X967800Y613960D02*
Y619040D01*
X866200Y613960D02*
Y619040D01*
X948699Y603800D02*
Y629200D01*
X885301Y603800D02*
Y629200D01*
X889060Y603800D02*
Y629200D01*
X809250Y312250D02*
Y352250D01*
X849250Y312250D02*
X889250D01*
Y352250D01*
X809250D02*
X889250D01*
X809250Y312250D02*
X849250D01*
X410215Y450134D02*
X408549Y451800D01*
X405216D01*
X403550Y450134D01*
Y448467D01*
X405216Y446801D01*
X408549D01*
X410215Y445135D01*
Y443469D01*
X408549Y441803D01*
X405216D01*
X403550Y443469D01*
X413547Y450134D02*
X415213Y451800D01*
X418545D01*
X420211Y450134D01*
Y448467D01*
X418545Y446801D01*
X416879D01*
X418545D01*
X420211Y445135D01*
Y443469D01*
X418545Y441803D01*
X415213D01*
X413547Y443469D01*
X910250Y377247D02*
Y367250D01*
Y370582D01*
X916915Y377247D01*
X911916Y372248D01*
X916915Y367250D01*
X920247D02*
X923579D01*
X921913D01*
Y377247D01*
X920247Y375581D01*
X675665Y331831D02*
X673998Y333497D01*
X670666D01*
X669000Y331831D01*
Y325166D01*
X670666Y323500D01*
X673998D01*
X675665Y325166D01*
X685661Y323500D02*
X678997D01*
X685661Y330164D01*
Y331831D01*
X683995Y333497D01*
X680663D01*
X678997Y331831D01*
X676665Y736416D02*
Y743081D01*
X674998Y744747D01*
X671666D01*
X670000Y743081D01*
Y736416D01*
X671666Y734750D01*
X674998D01*
X673332Y738082D02*
X676665Y734750D01*
X674998D02*
X676665Y736416D01*
X679997Y734750D02*
X683329D01*
X681663D01*
Y744747D01*
X679997Y743081D01*
X675164Y63386D02*
Y70051D01*
X673498Y71717D01*
X670166D01*
X668500Y70051D01*
Y63386D01*
X670166Y61720D01*
X673498D01*
X671832Y65052D02*
X675164Y61720D01*
X673498D02*
X675164Y63386D01*
X685161Y61720D02*
X678497D01*
X685161Y68384D01*
Y70051D01*
X683495Y71717D01*
X680163D01*
X678497Y70051D01*
X797165Y581081D02*
X795498Y582747D01*
X792166D01*
X790500Y581081D01*
Y579414D01*
X792166Y577748D01*
X795498D01*
X797165Y576082D01*
Y574416D01*
X795498Y572750D01*
X792166D01*
X790500Y574416D01*
X800497Y572750D02*
X803829D01*
X802163D01*
Y582747D01*
X800497Y581081D01*
X403665Y148831D02*
X401998Y150497D01*
X398666D01*
X397000Y148831D01*
Y147164D01*
X398666Y145498D01*
X401998D01*
X403665Y143832D01*
Y142166D01*
X401998Y140500D01*
X398666D01*
X397000Y142166D01*
X413661Y140500D02*
X406997D01*
X413661Y147164D01*
Y148831D01*
X411995Y150497D01*
X408663D01*
X406997Y148831D01*
X246000Y287747D02*
X252665Y277750D01*
Y287747D02*
X246000Y277750D01*
X262661Y287747D02*
X255997D01*
Y282748D01*
X259329Y284415D01*
X260995D01*
X262661Y282748D01*
Y279416D01*
X260995Y277750D01*
X257663D01*
X255997Y279416D01*
X246250Y625497D02*
X252915Y615500D01*
Y625497D02*
X246250Y615500D01*
X261245D02*
Y625497D01*
X256247Y620498D01*
X262911D01*
X246000Y456247D02*
X252665Y446250D01*
Y456247D02*
X246000Y446250D01*
X255997Y454581D02*
X257663Y456247D01*
X260995D01*
X262661Y454581D01*
Y452915D01*
X260995Y451248D01*
X259329D01*
X260995D01*
X262661Y449582D01*
Y447916D01*
X260995Y446250D01*
X257663D01*
X255997Y447916D01*
X1200500Y449750D02*
Y459747D01*
X1205498D01*
X1207165Y458081D01*
Y454748D01*
X1205498Y453082D01*
X1200500D01*
X1210497Y449750D02*
X1213829D01*
X1212163D01*
Y459747D01*
X1210497Y458081D01*
X790250Y268000D02*
Y277997D01*
X795248D01*
X796915Y276331D01*
Y272998D01*
X795248Y271332D01*
X790250D01*
X793582D02*
X796915Y268000D01*
X800247Y276331D02*
X801913Y277997D01*
X805245D01*
X806911Y276331D01*
Y274664D01*
X805245Y272998D01*
X803579D01*
X805245D01*
X806911Y271332D01*
Y269666D01*
X805245Y268000D01*
X801913D01*
X800247Y269666D01*
X644750Y551247D02*
X651414D01*
X648082D01*
Y541250D01*
X654747D02*
Y551247D01*
X659745D01*
X661411Y549581D01*
Y546248D01*
X659745Y544582D01*
X654747D01*
X664744Y549581D02*
X666410Y551247D01*
X669742D01*
X671408Y549581D01*
Y547915D01*
X669742Y546248D01*
X668076D01*
X669742D01*
X671408Y544582D01*
Y542916D01*
X669742Y541250D01*
X666410D01*
X664744Y542916D01*
X571750Y551247D02*
X578414D01*
X575082D01*
Y541250D01*
X581747D02*
Y551247D01*
X586745D01*
X588411Y549581D01*
Y546248D01*
X586745Y544582D01*
X581747D01*
X598408Y541250D02*
X591744D01*
X598408Y547915D01*
Y549581D01*
X596742Y551247D01*
X593410D01*
X591744Y549581D01*
X452255Y551747D02*
X458919D01*
X455587D01*
Y541751D01*
X462252D02*
Y551747D01*
X467250D01*
X468916Y550081D01*
Y546749D01*
X467250Y545083D01*
X462252D01*
X472248Y541751D02*
X475581D01*
X473914D01*
Y551747D01*
X472248Y550081D01*
X645000Y269997D02*
X651665D01*
X648332D01*
Y260000D01*
X654997D02*
Y269997D01*
X659995D01*
X661661Y268331D01*
Y264998D01*
X659995Y263332D01*
X654997D01*
X664994Y268331D02*
X666660Y269997D01*
X669992D01*
X671658Y268331D01*
Y266665D01*
X669992Y264998D01*
X671658Y263332D01*
Y261666D01*
X669992Y260000D01*
X666660D01*
X664994Y261666D01*
Y263332D01*
X666660Y264998D01*
X664994Y266665D01*
Y268331D01*
X666660Y264998D02*
X669992D01*
X570000Y264997D02*
X576665D01*
X573332D01*
Y255000D01*
X579997D02*
Y264997D01*
X584995D01*
X586661Y263331D01*
Y259998D01*
X584995Y258332D01*
X579997D01*
X589994Y264997D02*
X596658D01*
Y263331D01*
X589994Y256666D01*
Y255000D01*
X490000Y266997D02*
X496665D01*
X493332D01*
Y257000D01*
X499997D02*
Y266997D01*
X504995D01*
X506661Y265331D01*
Y261998D01*
X504995Y260332D01*
X499997D01*
X516658Y266997D02*
X513326Y265331D01*
X509994Y261998D01*
Y258666D01*
X511660Y257000D01*
X514992D01*
X516658Y258666D01*
Y260332D01*
X514992Y261998D01*
X509994D01*
X1122750Y549247D02*
X1129415D01*
X1126082D01*
Y539250D01*
X1132747D02*
Y549247D01*
X1137745D01*
X1139411Y547581D01*
Y544248D01*
X1137745Y542582D01*
X1132747D01*
X1149408Y549247D02*
X1142744D01*
Y544248D01*
X1146076Y545914D01*
X1147742D01*
X1149408Y544248D01*
Y540916D01*
X1147742Y539250D01*
X1144410D01*
X1142744Y540916D01*
X1052750Y549247D02*
X1059415D01*
X1056082D01*
Y539250D01*
X1062747D02*
Y549247D01*
X1067745D01*
X1069411Y547581D01*
Y544248D01*
X1067745Y542582D01*
X1062747D01*
X1077742Y539250D02*
Y549247D01*
X1072744Y544248D01*
X1079408D01*
X1052500Y266497D02*
X1059165D01*
X1055832D01*
Y256500D01*
X1062497D02*
Y266497D01*
X1067495D01*
X1069161Y264831D01*
Y261498D01*
X1067495Y259832D01*
X1062497D01*
X1072494Y258166D02*
X1074160Y256500D01*
X1077492D01*
X1079158Y258166D01*
Y264831D01*
X1077492Y266497D01*
X1074160D01*
X1072494Y264831D01*
Y263165D01*
X1074160Y261498D01*
X1079158D01*
X1117500Y266497D02*
X1124165D01*
X1120832D01*
Y256500D01*
X1127497D02*
Y266497D01*
X1132495D01*
X1134161Y264831D01*
Y261498D01*
X1132495Y259832D01*
X1127497D01*
X1137494Y256500D02*
X1140826D01*
X1139160D01*
Y266497D01*
X1137494Y264831D01*
X1145824D02*
X1147490Y266497D01*
X1150823D01*
X1152489Y264831D01*
Y258166D01*
X1150823Y256500D01*
X1147490D01*
X1145824Y258166D01*
Y264831D01*
X687750Y414750D02*
Y424747D01*
X692748D01*
X694415Y423081D01*
Y419748D01*
X692748Y418082D01*
X687750D01*
X691082D02*
X694415Y414750D01*
X697747D02*
X701079D01*
X699413D01*
Y424747D01*
X697747Y423081D01*
X786750Y486250D02*
Y496247D01*
X791748D01*
X793415Y494581D01*
Y491248D01*
X791748Y489582D01*
X786750D01*
X790082D02*
X793415Y486250D01*
X803411D02*
X796747D01*
X803411Y492915D01*
Y494581D01*
X801745Y496247D01*
X798413D01*
X796747Y494581D01*
X911500Y588000D02*
Y597997D01*
X916498D01*
X918165Y596331D01*
Y592998D01*
X916498Y591332D01*
X911500D01*
X914832D02*
X918165Y588000D01*
X926495D02*
Y597997D01*
X921497Y592998D01*
X928161D01*
X847414Y303081D02*
X845748Y304747D01*
X842416D01*
X840750Y303081D01*
Y296416D01*
X842416Y294750D01*
X845748D01*
X847414Y296416D01*
X850747Y294750D02*
X854079D01*
X852413D01*
Y304747D01*
X850747Y303081D01*
D15*
X446750Y373553D02*
X483250D01*
X446750Y463553D02*
X483250D01*
X446750Y373553D02*
Y463553D01*
X483250Y373553D02*
Y463553D01*
X752000Y636250D02*
X842000D01*
X752000Y599750D02*
X842000D01*
X752000D02*
Y636250D01*
X842000Y599750D02*
Y636250D01*
X362000Y118750D02*
X452000D01*
X362000Y82250D02*
X452000D01*
X362000D02*
Y118750D01*
X452000Y82250D02*
Y118750D01*
D19*
X40750Y162750D02*
X288750D01*
X40750D02*
Y297750D01*
X288750D01*
Y162750D02*
Y297750D01*
X40500Y500000D02*
X288500D01*
X40500D02*
Y635000D01*
X288500D01*
Y500000D02*
Y635000D01*
X40500Y330000D02*
X288500D01*
X40500D02*
Y465000D01*
X288500D01*
Y330000D02*
Y465000D01*
M02*
